<svg width="23" height="23" viewBox="0 0 23 23" xmlns="http://www.w3.org/2000/svg" xmlns:sketch="http://www.bohemiancoding.com/sketch/ns"><title>arrow-right</title><desc>Created with Sketch.</desc><path d="M11.5 23c6.345 0 11.5-5.155 11.5-11.5s-5.155-11.5-11.5-11.5-11.5 5.155-11.5 11.5c0 6.444 5.155 11.5 11.5 11.5zm0-22c5.775 0 10.5 4.725 10.5 10.5s-4.725 10.5-10.5 10.5-10.5-4.725-10.5-10.5 4.725-10.5 10.5-10.5zm4.5 9.95l-1.536-.367-.096.092.096-.55-4.32-4.125-.96 1.008 4.608 4.308-4.992 4.675.864 1.008 6.336-6.05z" fill="#1372C9" sketch:type="MSShapeGroup"/></svg>