<?xml version="1.0" encoding="UTF-8" standalone="no"?>
<svg width="147px" height="108px" viewBox="0 0 147 108" version="1.1" xmlns="http://www.w3.org/2000/svg" xmlns:xlink="http://www.w3.org/1999/xlink" xmlns:sketch="http://www.bohemiancoding.com/sketch/ns">
    <!-- Generator: Sketch 3.0.2 (7799) - http://www.bohemiancoding.com/sketch -->
    <title>logo</title>
    <description>Created with Sketch.</description>
    <defs>
        <linearGradient x1="49.9700113%" y1="100.004721%" x2="49.9700113%" y2="0.0462427746%" id="linearGradient-2">
            <stop stop-color="#2C2D57" offset="0%"></stop>
            <stop stop-color="#005AA9" offset="100%"></stop>
        </linearGradient>
    </defs>
    <g id="Page-1" stroke="none" stroke-width="1" fill="none" fill-rule="evenodd" sketch:type="MSPage">
        <g id="vector-elements" sketch:type="MSLayerGroup" transform="translate(-616.000000, 1.000000)">
            <g id="logo" transform="translate(616.000000, 0.000000)" sketch:type="MSShapeGroup">
                <path d="M73.5,106.7 C113.8,106.7 146.7,82.6 146.7,53.1 C146.7,23.6 113.8,-0.5 73.5,-0.5 C33.2,-0.5 0.3,23.6 0.3,53.1 C0.2,82.7 33.1,106.7 73.5,106.7 L73.5,106.7 Z" id="Shape" fill="#DA2128"></path>
                <path d="M73.5,105 C112.9,105 145,81.7 145,53.1 C145,24.5 112.9,1.2 73.5,1.2 C34.1,1.2 2,24.5 2,53.1 C1.9,81.7 34.1,105 73.5,105 L73.5,105 Z" id="Shape" fill="url(#linearGradient-2)"></path>
                <path d="M94.4,53.4 C99.5,53.4 100.1,45.4 100.1,45.4 L89.2,45.4 L89.2,47.9 L79.2,47.9 L79.2,37.9 L81.7,37.9 L81.7,27 C81.7,27 73.8,27.6 73.8,32.7 C73.8,27.6 65.8,27 65.8,27 L65.8,37.9 L68.3,37.9 L68.3,47.9 L58.3,47.9 L58.3,45.4 L47.4,45.4 C47.4,45.4 48,53.4 53.1,53.4 C48,53.4 47.4,61.3 47.4,61.3 L58.3,61.3 L58.3,58.8 L68.3,58.8 L68.3,68.9 L65.8,68.9 L65.8,79.8 C65.8,79.8 73.8,79.2 73.8,74.1 C73.8,79.2 81.7,79.8 81.7,79.8 L81.7,68.9 L79.2,68.9 L79.2,58.8 L89.2,58.8 L89.2,61.3 L100.1,61.3 C100.1,61.3 99.5,53.4 94.4,53.4 L94.4,53.4 Z" id="Shape" fill="#DA2128"></path>
                <path d="M94.4,52.8 C98.2,52.8 99.3,47.7 99.5,45.9 L89.8,45.9 L89.8,47.9 L89.8,48.4 L89.3,48.4 L79.3,48.4 L78.8,48.4 L78.8,47.9 L78.8,37.9 L78.8,37.4 L79.3,37.4 L81.2,37.4 L81.2,27.7 C79.5,27.9 74.4,29 74.4,32.8 L73.8,32.8 L73.8,30.5 C73.8,30.5 73.8,30.5 73.8,30.6 C75.6,27.1 81.6,26.6 81.7,26.6 L82.3,26.5 L82.3,27 L82.3,37.9 L82.3,38.4 L81.8,38.4 L79.9,38.4 L79.9,47.4 L88.8,47.4 L88.8,45.4 L88.8,44.9 L89.3,44.9 L100.2,44.9 L100.8,44.9 L100.8,45.5 C100.8,45.5 100.3,51.6 96.8,53.4 C100.4,55.2 100.8,61.3 100.8,61.3 L100.8,61.9 L100.2,61.9 L89.3,61.9 L88.8,61.9 L88.8,61.4 L88.8,59.4 L79.9,59.4 L79.9,68.5 L81.8,68.5 L82.3,68.5 L82.3,69 L82.3,79.9 L82.3,80.5 L81.7,80.5 C81.7,80.5 75.7,80 73.8,76.5 C73.8,76.5 73.8,76.5 73.8,76.6 L73.8,74 L74.4,74 C74.4,77.8 79.5,78.9 81.2,79.1 L81.2,69.4 L79.3,69.4 L78.8,69.4 L78.8,68.9 L78.8,58.8 L78.8,58.3 L79.3,58.3 L89.3,58.3 L89.8,58.3 L89.8,58.8 L89.8,60.8 L99.5,60.8 C99.3,59.1 98.2,54 94.4,54 L94.4,52.8 L94.4,52.8 Z M73.8,32.7 L73.3,32.7 C73.3,28.9 68.1,27.8 66.4,27.6 L66.4,37.3 L68.4,37.3 L68.9,37.3 L68.9,37.8 L68.9,47.8 L68.9,48.3 L68.4,48.3 L58.4,48.3 L57.9,48.3 L57.9,47.8 L57.9,45.8 L48.2,45.8 C48.4,47.6 49.5,52.7 53.3,52.7 L53.3,53.8 C49.5,53.8 48.4,58.9 48.2,60.6 L57.9,60.6 L57.9,58.7 L57.9,58.2 L58.4,58.2 L68.4,58.2 L68.9,58.2 L68.9,58.7 L68.9,68.8 L68.9,69.3 L68.4,69.3 L66.4,69.3 L66.4,79 C68.2,78.8 73.3,77.7 73.3,73.9 L73.8,73.9 L73.8,76.2 C71.9,79.7 65.9,80.2 65.9,80.2 L65.3,80.2 L65.3,79.6 L65.3,68.9 L65.3,68.4 L65.8,68.4 L67.8,68.4 L67.8,59.3 L58.9,59.3 L58.9,61.3 L58.9,61.8 L58.4,61.8 L47.5,61.8 L46.9,61.8 L46.9,61.2 C46.9,61.2 47.4,55.2 50.9,53.3 C47.4,51.5 46.9,45.4 46.9,45.4 L46.9,44.8 L47.5,44.8 L58.4,44.8 L58.9,44.8 L58.9,45.3 L58.9,47.3 L67.8,47.3 L67.8,38.3 L65.8,38.3 L65.3,38.3 L65.3,37.8 L65.3,27 L65.3,26.4 L65.9,26.5 C65.9,26.5 71.9,27 73.8,30.5 L73.8,32.7 L73.8,32.7 Z" id="Shape" fill="#FFFFFF"></path>
                <path d="M40.8,52.9 C40.8,53.1 40.5,53 40.4,53.1 C40.5,53.3 40.4,53.6 40.3,53.8 L39.8,53.8 L39.8,55.8 C40.1,55.6 40.1,55.1 40.5,55 C40.5,54.1 41.2,54 41.6,53.6 C41.9,52.2 41.5,51.3 41.2,49.9 C41,49.4 40.3,49.2 39.8,49.3 L39.8,50.9 C40.3,51 40.6,51.4 40.8,51.9 C40.9,52.1 40.9,52.5 40.8,52.9 L40.8,52.9 Z M39.7,53.8 C39.5,53.8 39.2,53.8 39.1,53.7 C39.4,52.9 39.5,51.6 38.6,51.4 C38.8,51.1 38.9,50.8 39.3,50.7 C39.4,50.7 39.6,50.7 39.7,50.8 L39.7,49.2 L39.6,49.2 C39.3,49.3 39.1,49.5 38.9,49.7 C38.5,50 37.6,50.5 37.2,50.6 C36.7,50.7 36,50.5 35.8,50.1 C35.7,49.7 35.4,48.8 34.8,48.3 C34.2,47.9 33.1,47.5 32.7,47.4 C31.7,47.1 30.6,46.1 29.9,45.4 C29.7,45.2 29.3,44 29.7,43.9 C29.9,44.1 30.2,44.2 30.5,44.3 C30.8,44.4 31.5,44.3 31.8,44.3 L32.7,44.3 C33.1,44.3 33.3,44.3 33.6,44.4 C33.7,44.5 34,44.8 34.2,44.7 C34.3,44.6 34.9,44.7 34.8,44.4 L34.8,44.3 C34.9,44.4 35,44.4 35.3,44.4 C35.8,44.3 35.6,43.7 35.6,43.5 C35.6,43.1 34.7,42.4 34.5,42.2 C34.2,41.9 31.2,40.6 31,40.4 C30.9,40.4 30.8,39.9 30.4,39.7 C29.8,39.3 28.8,39.7 28.8,39.2 C28.8,39.1 28.7,38.6 28.5,38.5 C28.3,38.4 28.2,38.2 28.2,38.2 C28.2,38.2 27.9,38.4 27.9,38.8 C27.9,39.1 27.9,39.2 28.1,39.4 C27.9,39.4 27.8,39.3 27.8,39.3 C27.4,39.2 27,38.9 26.8,39 C26.7,39.7 27.2,39.8 27.4,40.2 C26.6,40.2 25.7,41 25.5,41.5 C25.6,41.5 26.2,41.3 26.2,41.4 C25.7,41.7 25.8,41.9 24.8,42 C24.8,42.2 25.1,42.4 25.2,42.5 C24.9,42.7 24.7,43 24.4,43.3 C24.6,43.4 24.9,43.1 25,43.2 C24.3,43.6 24.1,44 23.8,44.4 C23.8,44.6 24.8,43.7 24.9,44 C24.4,44.1 23.5,44.8 23.6,45.4 C23.8,45.1 24.4,45 24.3,45.1 C23.9,45.5 23.2,46.1 22.9,46.5 C23,46.5 23.2,46.5 23.2,46.6 C23.1,47.1 22.7,47 22.7,48 C22.9,47.6 22.9,47.4 23.2,47.5 C23.1,47.7 22.8,48.2 22.7,48.4 C22.9,48.4 23.3,47.8 23.5,47.8 C23.3,48.1 23,48.6 22.9,49 C23.5,48.9 23.4,48 23.9,48.1 C23.6,48.5 23.4,49.3 23.4,50 C24,49.2 24.3,48.9 24.9,48.5 C23.9,49.5 24.1,49.5 23.6,50.3 C23.9,50.4 24.5,49.4 24.5,49.9 C24.1,50.1 23.8,50.6 23.7,50.8 C23.8,50.8 24.2,50.3 24.3,50.5 C24.3,50.4 24.1,51.7 24,52.2 C24.4,52.1 24.3,50.7 24.6,50.8 C24.5,51.8 25.1,52.2 24.9,52.9 C25.2,52.9 25.4,51.6 25.4,51.8 C25.7,52.5 25.5,53.1 25.2,53.7 C24.8,54.3 24.4,54.9 23.8,55.6 C23,56.6 20.1,57.8 19.3,58.6 L19.2,58.7 L19.2,65.6 C19.4,65.9 19.5,66.2 19.6,66.6 L19.6,67.3 C19.4,67.3 19.3,67 19.3,66.8 L19.3,67.2 C19.4,67.3 19.4,67.4 19.5,67.5 C19.4,67.6 19.4,67.7 19.4,67.8 C19.4,67.8 19.3,67.8 19.3,67.7 L19.3,73.5 C19.4,73.8 19.4,74.2 19.3,74.6 L19.3,74.6 C19.7,74.7 19.9,74.9 20,75.2 C19.8,75.4 20,75.7 20.1,76 C20.5,76.1 21.4,76.2 21.9,76 C21.8,75.3 21.5,74.9 20.8,74.7 C20.7,74.3 20.3,73.7 20.2,73.3 C20,72.6 20,71.7 20.1,71.2 C20.2,70.5 20.7,69.9 20.8,69.3 C21.3,69.1 21.6,68.8 21.9,68.4 C22.4,69.8 20.5,69.7 21,70.8 C21.4,71.5 22.2,72 22.6,72.9 C23,73.7 23.2,74.4 23.5,75.3 C23.5,75.5 23.6,75.5 23.6,75.7 C24.1,75.7 24.3,76 24.7,76.2 C24.6,76.6 25,76.5 24.9,76.8 L26.8,76.8 C26.7,76.2 26.2,75.9 25.8,75.6 C25.6,75.6 25.4,75.6 25.3,75.5 C24.9,74.7 23.7,72.4 23.6,72.2 C23,71.1 23.4,70.7 23.7,70.2 C23.9,69.5 24.7,69.3 25.5,68.2 C25.6,68 25.7,67.7 25.9,67.5 C26,67.4 27.1,66.4 27.3,65.4 C27.6,64.5 27.4,63.2 26.5,62.1 C27.2,61.1 30.8,59.9 32.3,58.4 C34.1,56.6 34.5,54.1 35.4,54.1 C36,54.4 36.2,54.1 36.6,53.8 C37.2,53.3 37.7,52.3 38.3,52.4 C38.7,52.7 38.9,53.2 38.6,54 C38.3,54.5 38,55 37.4,55 C37.4,55.2 37.5,55.3 37.5,55.5 C37.1,55.8 36.8,55.2 36.2,55.4 L36.2,57.5 C36.8,57.4 37,56.8 37.6,56.7 C37.9,56.5 37.9,56.1 38.2,55.9 C38.5,55.6 39.1,55.7 39.3,55.3 C39.6,55.3 39.7,55.5 39.9,55.7 L40,55.7 L40,53.8 L39.7,53.8 Z M19.2,58.9 L19.2,65.8 C18.9,65.2 18.4,64.7 18,64.1 C17.9,63.8 17.6,63.1 17.2,63.4 C16.7,64.2 18.3,65.6 18.6,65.9 C18.8,66.2 19,66.6 19.2,66.9 L19.2,66.9 L19.2,67.3 C19.1,67.2 19.1,67.2 19,67.2 C19,67.4 19.1,67.7 19.2,67.9 L19.2,73.7 C19.1,73.4 19,73.1 18.8,72.9 C18.7,73.9 17.9,75.5 15.3,75.6 C16.6,74.8 16.7,72.6 16.6,70.9 C16.5,70.8 16.3,71.8 16.2,71.8 C16.3,71.6 16.2,70.3 16.3,70.1 C16.2,70 16.1,71.3 16,71.2 C15.8,70.7 16.2,69.5 16,69.1 C15.8,69 15.8,69.9 15.7,69.9 C15.7,69.7 15.8,68.7 15.8,68.5 C15.7,68.4 15.7,69.1 15.5,69.3 C15.5,69.1 15.2,68.2 15.2,67.9 C15.2,67.5 15.6,66.7 15.2,66.4 C15.2,66.8 15.1,67.4 14.9,67.5 C15.1,66.6 14.5,65.4 14.7,64.5 C14.8,64.2 15.2,62.3 16.4,62.3 C16.7,62.3 17.1,62.6 17.3,62.6 C17.6,62.5 17.6,62.3 17.8,62.1 C17.7,62 17.7,60.6 19.2,58.9 L19.2,58.9 L19.2,58.9 Z" id="Shape" fill="#FFFFFF"></path>
                <path d="M128.4,65.9 C128.2,66.2 128,66.6 127.8,66.9 L127.8,66.9 L127.8,67.3 C127.9,67.2 127.9,67.2 128,67.2 C128,67.4 127.9,67.7 127.8,67.9 L127.8,73.7 C127.9,73.4 128,73.1 128.2,72.9 C128.3,73.9 129.1,75.5 131.7,75.6 C130.4,74.8 130.3,72.6 130.4,70.9 C130.5,70.8 130.7,71.8 130.8,71.8 C130.7,71.6 130.8,70.3 130.7,70.1 C130.8,70 130.9,71.3 131,71.2 C131.2,70.7 130.8,69.5 131,69.1 C131.2,69 131.2,69.9 131.3,69.9 C131.3,69.7 131.2,68.7 131.2,68.5 C131.3,68.4 131.3,69.1 131.5,69.3 C131.5,69.1 131.8,68.2 131.8,67.9 C131.8,67.5 131.4,66.7 131.8,66.4 C131.8,66.8 131.9,67.4 132.1,67.5 C131.9,66.6 132.5,65.4 132.3,64.5 C132.2,64.2 131.8,62.3 130.6,62.3 C130.3,62.3 129.9,62.6 129.7,62.6 C129.4,62.5 129.4,62.3 129.2,62.1 C129.2,62 129.2,60.6 127.7,58.9 L127.7,65.8 C128,65.2 128.5,64.7 128.9,64.1 C129,63.8 129.3,63.1 129.7,63.4 C130.3,64.3 128.6,65.6 128.4,65.9 L128.4,65.9 L128.4,65.9 Z M127.8,66.9 C127.7,67.1 127.7,67.4 127.4,67.4 C127.3,67.2 127.4,66.9 127.4,66.7 C127.5,66.3 127.6,66 127.8,65.7 L127.8,58.8 L127.7,58.7 C127,57.9 124.1,56.7 123.2,55.7 C122.6,55 122.2,54.4 121.8,53.8 C121.5,53.2 121.3,52.6 121.6,51.9 C121.7,51.8 121.8,53 122.1,53 C121.9,52.3 122.6,51.9 122.4,50.9 C122.7,50.8 122.6,52.1 123,52.3 C123,51.8 122.7,50.5 122.7,50.6 C122.8,50.4 123.2,50.9 123.3,50.9 C123.2,50.7 122.9,50.2 122.5,50 C122.5,49.5 123.1,50.4 123.4,50.4 C122.9,49.7 123.2,49.6 122.1,48.6 C122.7,49 123,49.4 123.6,50.1 C123.6,49.4 123.4,48.6 123.1,48.2 C123.5,48.1 123.5,49 124.1,49.1 C123.9,48.8 123.7,48.2 123.5,47.9 C123.7,47.8 124,48.5 124.3,48.5 C124.2,48.3 123.9,47.9 123.8,47.6 C124.1,47.5 124.2,47.7 124.3,48.1 C124.3,47.1 124,47.2 123.8,46.7 C123.8,46.6 124,46.6 124.1,46.6 C123.8,46.2 123.1,45.5 122.7,45.2 C122.7,45.1 123.2,45.2 123.4,45.5 C123.5,45 122.6,44.2 122.1,44.1 C122.2,43.8 123.2,44.6 123.2,44.5 C122.9,44 122.8,43.7 122,43.3 C122.2,43.2 122.4,43.5 122.6,43.4 C122.4,43.2 122.1,42.8 121.8,42.6 C121.8,42.5 122.2,42.3 122.2,42.1 C121.2,42 121.3,41.8 120.8,41.5 C120.8,41.4 121.4,41.6 121.5,41.6 C121.3,41.1 120.4,40.3 119.6,40.3 C119.8,39.9 120.3,39.7 120.2,39.1 C120,39 119.5,39.4 119.2,39.4 C119.2,39.4 119.1,39.4 118.9,39.5 C119.1,39.3 119.1,39.2 119.1,38.9 C119.1,38.6 118.8,38.3 118.8,38.3 C118.8,38.3 118.6,38.4 118.5,38.6 C118.3,38.7 118.2,39.2 118.2,39.3 C118.2,39.7 117.2,39.4 116.6,39.8 C116.2,40.1 116,40.5 116,40.5 C115.7,40.7 112.8,42 112.5,42.3 C112.3,42.5 111.4,43.2 111.4,43.6 C111.4,43.8 111.3,44.4 111.7,44.5 C111.9,44.5 112.1,44.5 112.2,44.4 L112.2,44.5 C112.2,44.8 112.7,44.7 112.8,44.8 C112.9,44.9 113.2,44.6 113.4,44.5 C113.6,44.4 113.9,44.4 114.3,44.4 L115.2,44.4 C115.5,44.4 116.2,44.5 116.5,44.4 C116.8,44.3 117.1,44.2 117.3,44 C117.7,44.1 117.3,45.3 117.1,45.5 C116.4,46.3 115.3,47.2 114.3,47.5 C113.9,47.6 112.8,48 112.2,48.4 C111.6,48.9 111.3,49.8 111.2,50.2 C111.1,50.6 110.4,50.8 109.8,50.7 C109.4,50.6 108.5,50.2 108.1,49.8 C107.9,49.6 107.7,49.4 107.4,49.3 L107.3,49.3 L107.3,50.9 C107.4,50.9 107.5,50.8 107.7,50.8 C108.1,50.9 108.2,51.2 108.4,51.5 C107.5,51.6 107.6,53 107.9,53.8 C107.8,53.9 107.5,53.9 107.3,53.9 L107.3,55.9 L107.4,55.9 C107.6,55.8 107.7,55.6 108,55.5 C108.2,55.9 108.8,55.8 109.1,56.1 C109.4,56.3 109.4,56.7 109.7,56.9 C110.4,57 110.5,57.6 111.1,57.7 L111.1,55.6 C110.5,55.5 110.3,56 109.8,55.7 C109.8,55.5 109.8,55.4 109.9,55.2 C109.3,55.1 109,54.7 108.7,54.2 C108.5,53.4 108.6,52.9 109,52.6 C109.5,52.6 110.1,53.6 110.7,54 C111,54.3 111.3,54.6 111.9,54.3 C112.9,54.3 113.3,56.8 115,58.6 C116.5,60.1 120.2,61.3 120.8,62.3 C119.9,63.3 119.7,64.6 120,65.6 C120.3,66.6 121.3,67.6 121.4,67.7 C121.6,67.9 121.7,68.2 121.8,68.4 C122.5,69.5 123.4,69.7 123.6,70.4 C123.8,70.9 124.3,71.3 123.7,72.4 C123.6,72.6 122.4,74.9 122,75.7 C121.9,75.8 121.7,75.8 121.5,75.8 C121.1,76.1 120.6,76.4 120.5,77 C121.2,77 121.8,77.1 122.4,77 C122.4,76.7 122.7,76.8 122.6,76.4 C122.9,76.2 123.1,75.9 123.7,75.9 C123.7,75.8 123.8,75.7 123.8,75.5 C124.1,74.6 124.3,73.9 124.7,73.1 C125.1,72.2 126,71.7 126.3,71 C126.9,69.8 125,70 125.4,68.6 C125.7,69 126.1,69.3 126.5,69.5 C126.6,70.1 127.1,70.8 127.2,71.4 C127.3,71.9 127.2,72.8 127.1,73.5 C127,73.9 126.6,74.5 126.5,74.9 C125.9,75.1 125.6,75.5 125.4,76.2 C125.8,76.4 126.7,76.3 127.2,76.2 C127.3,76 127.5,75.7 127.3,75.4 C127.4,75.1 127.6,74.9 128,74.8 L128,74.8 C127.9,74.4 127.9,74 128,73.7 L128,67.9 L127.9,68 C127.8,67.9 127.8,67.8 127.8,67.7 C127.9,67.6 127.9,67.5 128,67.4 L128,66.9 L127.8,66.9 Z M107.2,49.2 L107.2,50.8 C106.7,50.9 106.4,51.3 106.2,51.8 C106.1,52.2 106.1,52.6 106.2,52.9 C106.2,53.1 106.5,53 106.6,53.1 C106.5,53.3 106.6,53.6 106.7,53.8 L107.2,53.8 L107.2,55.8 C106.9,55.6 106.9,55.1 106.5,55 C106.5,54.1 105.8,54 105.4,53.6 C105.1,52.2 105.5,51.3 105.8,49.9 C106,49.4 106.6,49.2 107.2,49.2 L107.2,49.2 Z" id="Shape" fill="#FFFFFF"></path>
                <path d="M67.3,44.6 L86.2,63.6 C86.3,63.7 86.3,63.7 86.4,63.8 C86.9,64.3 87.4,64.8 87.5,65.5 C87.5,65.7 87.5,65.9 87.4,66.1 C87.3,66.3 87.2,66.5 87,66.6 L86.9,66.7 C86.7,66.8 86.6,66.9 86.4,67 C86.2,67.1 85.9,67.1 85.7,67 C85.6,67 85.5,66.9 85.3,66.9 C85.2,66.9 85.1,66.8 85,66.7 C84.7,66.5 84.5,66.3 84.3,66.1 L84.2,66 L65,46.9 C64.5,47.3 64,47.2 63.5,46.8 C63.1,47.1 62.8,47.4 62.5,47.7 C62.1,48.1 61.7,48.6 61.4,49.1 L61.4,49.1 C61.1,49.6 60.9,50 60.7,50.5 L60.7,50.6 L60.7,45.5 C61,45.2 61.2,45 61.4,44.8 L61.2,44.6 C60.8,44.2 60.9,43.5 61.3,43.1 L61.3,43.1 L63.6,40.9 C64,40.5 64.6,40.5 65,41 L65,41 L67.1,43.1 C67.1,43.1 67.1,43.1 67.2,43.2 C67.6,43.4 67.8,44 67.3,44.6 L67.3,44.6 L67.3,44.6 Z M60.7,51.5 L60.7,54.7 L60.9,54.7 C61.2,54.7 61.4,54.6 61.7,54.5 C62,54.4 62.2,54.3 62.4,54.2 L62.4,54.2 C62.6,54.1 62.8,53.9 63,53.8 C63.2,53.6 63.3,53.5 63.5,53.3 C63.7,53 63.8,52.8 63.9,52.5 C64,52.2 64.1,52 64.1,51.7 C64.1,51.4 64,51.2 63.9,50.9 L63.9,50.9 C63.8,50.6 63.6,50.4 63.4,50.2 C63.2,50 63,49.9 62.7,49.8 C62.5,49.7 62.2,49.7 61.9,49.8 C61.8,49.8 61.6,49.9 61.5,50 C61.4,50.1 61.3,50.2 61.2,50.3 C61.1,50.4 61,50.6 60.9,50.8 C60.8,51 60.8,51.2 60.8,51.4 L60.8,51.4 C60.7,51.4 60.7,51.4 60.7,51.5 L60.7,51.5 C60.7,51.4 60.7,51.5 60.7,51.5 L60.7,51.5 L60.7,51.5 Z M60.7,42.3 L60.7,42.3 L61.1,42.3 C61.3,42.3 61.5,42.2 61.7,42.1 C61.9,42 62.1,41.8 62.2,41.7 C62.4,41.5 62.5,41.3 62.6,41 C62.7,40.8 62.7,40.5 62.7,40.2 C62.7,39.9 62.6,39.7 62.5,39.4 C62.4,39.2 62.2,38.9 62,38.8 C61.8,38.6 61.6,38.5 61.3,38.4 C61.1,38.3 60.9,38.3 60.6,38.3 L60.6,42.3 L60.7,42.3 Z M60.7,50.5 C60.6,50.8 60.5,51.2 60.6,51.5 L60.7,51.5 L60.7,54.7 C60.1,54.7 59.4,54.6 58.7,54.4 C58,54.1 57.2,53.7 56.3,53 C55.7,52.6 55.3,52.1 54.9,51.6 C54.5,51.1 54.2,50.5 54,50 C53.8,49.4 53.6,48.8 53.6,48.3 C53.5,47.7 53.6,47.1 53.6,46.6 C53.6,46.5 53.6,46.4 53.7,46.4 C53.7,46.3 53.7,46.2 53.8,46.2 C53.9,46 53.9,45.9 54.1,45.7 C54.2,45.5 54.3,45.4 54.5,45.3 C54.7,45.1 54.9,45 55.1,44.9 C55.3,44.8 55.5,44.7 55.8,44.7 L56.5,44.7 C56.7,44.7 56.9,44.8 57.1,44.9 C57.3,45 57.5,45.2 57.6,45.4 C57.7,45.6 57.8,45.8 57.8,46 L57.8,46.5 C57.8,46.6 57.7,46.8 57.7,46.9 C57.6,47 57.6,47.1 57.5,47.2 C57.4,47.3 57.3,47.4 57.2,47.5 L57.2,47.5 C57.2,47.5 57.1,47.5 57.1,47.6 L57.1,47.6 C57.1,47.6 57.1,47.6 57.1,47.7 C58.1,47.5 59,47.2 59.8,46.7 C60.4,46.4 60.9,46 61.3,45.7 L61.3,50.5 L60.7,50.5 L60.7,50.5 Z M60.7,38.2 L60.7,42.2 L60.5,42.2 C60.3,42.2 60.1,42.1 59.9,42 C59.7,41.9 59.5,41.8 59.4,41.7 C59.2,41.5 59,41.3 58.9,41.1 C58.8,40.9 58.7,40.6 58.7,40.3 C58.7,40 58.7,39.8 58.8,39.5 C58.9,39.2 59,39 59.2,38.8 C59.4,38.6 59.6,38.4 59.8,38.3 C60,38.2 60.3,38.1 60.6,38.1 C60.6,38.2 60.6,38.2 60.7,38.2 L60.7,38.2 Z" id="Shape" fill="#FFFFFF"></path>
                <path d="M66.3,48.9 L66.3,48.1 L84.1,65.9 C84.4,66.2 84.6,66.4 84.9,66.6 C85.1,66.7 85.3,66.8 85.6,66.9 C86,67 86.4,66.9 86.8,66.5 L86.8,66.5 C87.1,66.2 87.2,65.8 87.2,65.4 C87.1,64.6 86.5,64.1 86,63.6 L67.4,44.9 L67.3,45 L66.8,45.5 L85.9,64.6 C86.2,64.9 86.2,65.3 85.9,65.6 C85.6,65.9 85.2,65.9 85,65.6 L66.4,47 L66.4,45.3 L67,44.7 C67.1,44.6 67.3,44.5 67.3,44.3 C67.4,44.2 67.4,44 67.4,43.9 C67.4,43.8 67.4,43.6 67.3,43.5 C67.2,43.3 67,43.2 66.9,43.1 L66.3,42.5 L66.3,41.7 L67.3,42.7 C67.5,42.9 67.6,43 67.7,43.2 C67.8,43.4 67.9,43.6 67.9,43.9 C67.9,44.1 67.8,44.4 67.7,44.6 L87,63.8 C87.4,64.2 87.7,64.8 87.8,65.4 L87.8,65.8 C87.7,66.1 87.5,66.5 87.3,66.8 C87.1,67 86.9,67.2 86.6,67.3 C86.3,67.4 85.9,67.4 85.6,67.4 C84.9,67.3 84.4,66.8 83.9,66.3 L66.3,48.9 L66.3,48.9 Z M66.3,41.6 L66.3,42.4 L65.7,41.8 L65.7,41 L66.3,41.6 L66.3,41.6 Z M66.3,45.2 L66.3,46.9 L65.8,46.4 L65.6,46.6 L65.6,45.8 L66.3,45.2 L66.3,45.2 Z M66.3,48.1 L66.3,48.9 L65.7,48.3 L65.7,47.5 L66.3,48.1 L66.3,48.1 Z M65.7,44.5 L65.7,43.1 L66,43.4 C66.2,43.6 66.2,44 66,44.3 L65.7,44.5 L65.7,44.5 Z M62.6,47.2 C62.7,47.1 62.8,47 63,46.9 L62.6,46.5 L62.6,45.7 C63.1,46.2 63.5,46.6 63.7,46.7 C64.1,47.1 64.7,46.9 64.8,46.7 L65.7,45.8 L65.7,46.6 L65.3,47 L65.7,47.4 L65.7,48.2 L64.8,47.3 C64.6,47.4 64.4,47.5 64.1,47.5 C63.8,47.5 63.5,47.4 63.2,47.2 C62.9,47.4 62.7,47.6 62.5,47.8 L62.5,47.2 L62.6,47.2 L62.6,47.2 Z M65.7,41 L65.7,41.8 L64.9,41 C64.8,40.9 64.8,40.9 64.7,40.8 C64.6,40.7 64.4,40.6 64.2,40.6 C64,40.6 63.8,40.7 63.6,40.8 L62.6,41.8 L62.6,39 C62.8,39.3 62.9,39.7 62.9,40 C62.9,40.3 62.9,40.5 62.8,40.7 L63.2,40.3 C63.5,40 63.8,39.9 64.2,39.9 C64.5,39.9 64.8,40 65.1,40.2 C65.2,40.3 65.3,40.3 65.3,40.4 L65.7,41 L65.7,41 Z M65.7,43.1 L64.6,42 C64.4,41.8 64,41.8 63.7,42 L62.5,43.2 L62.5,44.4 L63.7,45.6 C63.9,45.8 64.3,45.8 64.6,45.6 L65.7,44.5 L65.7,43.1 L65.7,43.1 Z M62.6,54.5 L62.6,53.9 C62.9,53.7 63.1,53.5 63.3,53.2 C63.7,52.7 63.9,52.2 63.9,51.7 C63.9,51.2 63.7,50.7 63.3,50.4 C63.1,50.2 62.9,50.1 62.6,50 L62.6,49.5 C63,49.6 63.3,49.7 63.6,50 C64,50.4 64.3,51.1 64.3,51.7 C64.3,52.3 64.1,53 63.6,53.6 C63.4,53.9 63,54.2 62.6,54.5 L62.6,54.5 Z M62.4,47.4 C62.5,47.3 62.5,47.3 62.6,47.2 L62.6,47.9 C62.5,48 62.5,48 62.4,48.1 L62.4,47.4 L62.4,47.4 Z M62.6,46.5 L62.4,46.3 L62.4,45.5 L62.6,45.7 L62.6,46.5 L62.6,46.5 Z M62.6,39.1 L62.6,41.9 L62.4,42.1 L62.4,41 C62.5,40.7 62.6,40.5 62.5,40.2 C62.5,40 62.4,39.8 62.4,39.6 L62.4,38.8 C62.5,38.9 62.5,39 62.6,39.1 L62.6,39.1 L62.6,39.1 Z M62.6,43.2 L62.6,44.4 L62.4,44.2 L62.4,44.2 L62.4,43.4 L62.4,43.4 L62.6,43.2 L62.6,43.2 Z M62.6,49.4 L62.6,50 L62.4,50 L62.4,49.5 C62.5,49.4 62.5,49.4 62.6,49.4 L62.6,49.4 L62.6,49.4 Z M62.6,53.9 L62.6,54.5 C62.6,54.5 62.6,54.5 62.5,54.5 C62.4,54.5 62.4,54.6 62.3,54.6 L62.3,54 C62.5,54 62.5,53.9 62.6,53.9 L62.6,53.9 Z M62,47.8 C62.1,47.7 62.3,47.5 62.4,47.4 L62.4,48.1 C62.3,48.3 62.1,48.4 62,48.6 L62,47.8 L62,47.8 Z M62.4,46.3 L62,45.9 L62,45.2 C62.1,45.3 62.3,45.5 62.4,45.6 L62.4,46.3 L62.4,46.3 Z M62.4,38.8 L62.4,39.6 C62.3,39.4 62.2,39.2 62,39 L62,38.5 C62.1,38.5 62.1,38.6 62.2,38.7 C62.2,38.6 62.3,38.7 62.4,38.8 L62.4,38.8 L62.4,38.8 Z M62.4,41 L62.4,42.1 L62,42.5 L62,41.6 L62.1,41.5 C62.2,41.3 62.3,41.2 62.4,41 L62.4,41 L62.4,41 Z M62.4,43.4 L62.4,44.2 C62.2,44 62.2,43.6 62.4,43.4 L62.4,43.4 L62.4,43.4 Z M62.4,49.4 L62.4,49.9 L62,49.9 L62,49.4 L62.4,49.4 L62.4,49.4 L62.4,49.4 Z M62.4,54 L62.4,54.6 C62.3,54.7 62.1,54.7 62,54.8 L62,54.2 C62.1,54.2 62.2,54.1 62.3,54 C62.3,54.1 62.3,54 62.4,54 L62.4,54 Z M61.4,48.5 C61.6,48.3 61.8,48 62,47.8 L62,48.6 C61.9,48.8 61.8,48.9 61.7,49.1 C61.6,49.2 61.5,49.4 61.5,49.5 L61.5,48.5 L61.4,48.5 L61.4,48.5 Z M62,45.9 L61.4,45.3 L61.4,44.6 C61.6,44.8 61.8,45 62,45.2 L62,45.9 L62,45.9 Z M62,38.4 L62,38.9 C62,38.9 61.9,38.9 61.9,38.8 C61.8,38.7 61.6,38.6 61.4,38.5 L61.4,38.1 C61.6,38.2 61.8,38.3 62,38.4 L62,38.4 L62,38.4 Z M62,41.6 L62,42.5 L61.4,43.1 L61.4,42 C61.6,41.9 61.8,41.7 62,41.6 L62,41.6 L62,41.6 Z M62,49.4 C61.9,49.4 61.9,49.4 62,49.4 C61.7,49.5 61.6,49.5 61.4,49.6 L61.4,50.2 C61.5,50.1 61.6,50.1 61.7,50 C61.8,50 61.8,49.9 61.9,49.9 L61.9,49.9 L61.9,49.4 L62,49.4 L62,49.4 Z M62,54.2 L62,54.8 C61.8,54.9 61.6,54.9 61.4,55 L61.4,54.5 C61.6,54.4 61.8,54.3 62,54.2 L62,54.2 L62,54.2 Z M61.4,41.1 L61.4,39.4 C61.6,39.6 61.8,39.9 61.8,40.2 C61.8,40.6 61.7,40.9 61.4,41.1 L61.4,41.1 Z M61.3,45.2 C60.5,46 59,47.2 56.8,47.6 C56.7,48.4 56.8,49 56.9,49.5 C57.1,50.1 57.4,50.5 57.8,50.8 C58.2,51.1 58.7,51.3 59.1,51.3 C59.6,51.4 60,51.4 60.4,51.3 C60.3,50.6 60.6,49.7 61.2,48.8 C61.3,48.7 61.3,48.6 61.4,48.5 L61.4,49.5 C61.4,49.6 61.3,49.6 61.3,49.7 L61.4,49.7 L61.4,50.3 C61.1,50.6 60.9,51 61,51.4 L61,51.6 C60.9,51.7 60.7,51.7 60.6,51.8 C60.2,51.9 59.6,51.9 59.1,51.8 C58.6,51.7 58,51.5 57.5,51.2 C57,50.8 56.6,50.3 56.4,49.7 C56.2,49.1 56.1,48.3 56.3,47.4 C56.3,47.3 56.4,47.2 56.4,47.2 C56.7,47.1 56.9,47.1 57.1,46.7 C57.2,46.5 57.3,46.2 57.2,45.9 C57.2,45.5 56.9,45.2 56.6,44.9 C56.3,44.7 55.9,44.6 55.4,44.7 C55,44.7 54.6,44.9 54.3,45.2 C54,45.5 53.8,45.9 53.7,46.1 C53.6,46.3 53.6,46.4 53.6,46.6 C53.5,47.5 53.5,48.7 54,49.9 C54.4,50.9 55.1,52 56.3,52.8 C58.1,54.2 59.6,54.6 60.8,54.5 C61,54.5 61.2,54.4 61.4,54.4 L61.4,55 C61.2,55 61.1,55.1 60.9,55.1 C59.6,55.2 57.9,54.8 56,53.3 C54.8,52.3 54,51.2 53.5,50.1 C52.9,48.7 52.9,47.3 53.1,46.3 C53.1,46.2 53.1,46.1 53.2,46 C53.3,45.7 53.5,45.2 53.9,44.7 C54.1,44.5 54.3,44.3 54.6,44.2 C55,44 55.5,43.9 56,44 C56.3,44 56.6,44.2 56.9,44.3 C57.4,44.6 57.7,45.1 57.8,45.7 C57.8,46.1 57.8,46.5 57.6,46.8 C59.2,46.3 60.3,45.4 60.9,44.8 L60.9,44.8 C60.6,44.5 60.5,44.2 60.5,43.8 C60.5,43.5 60.6,43.2 60.8,43 C60.9,42.9 60.9,42.9 61,42.8 L61.3,42.5 C61.2,42.5 61.2,42.5 61.1,42.6 L60.6,42.6 C60.1,42.6 59.6,42.4 59.2,42 C58.8,41.6 58.5,41.1 58.4,40.4 C58.4,39.8 58.6,39.2 59,38.8 C59.4,38.4 59.9,38.1 60.6,38 C60.9,38 61.2,38 61.5,38.1 L61.5,38.5 C61.2,38.4 61,38.3 60.7,38.3 C60.2,38.3 59.7,38.6 59.4,38.9 C59.1,39.3 58.9,39.7 58.9,40.3 C58.9,40.8 59.2,41.3 59.5,41.6 C59.8,41.9 60.2,42 60.6,42.1 L61.1,42.1 C61.2,42.1 61.4,42 61.5,42 L61.5,43 C61.4,43.1 61.3,43.2 61.3,43.3 C61.2,43.4 61.2,43.6 61.2,43.8 C61.2,44 61.3,44.2 61.4,44.3 C61.4,44.4 61.5,44.4 61.6,44.5 L61.6,45.2 L61.3,45.2 L61.3,45.2 Z M61.4,39.4 C61.2,39.2 60.9,39.1 60.6,39.1 C60,39.1 59.5,39.7 59.5,40.3 C59.5,40.9 60.1,41.4 60.7,41.4 C61,41.4 61.2,41.3 61.4,41.1 L61.4,39.4 L61.4,39.4 Z" id="Shape" fill="#DA2128"></path>
                <path d="M61.2,45.8 C61.2,45.8 59.4,47.7 57.2,48 C57,49.1 57.3,49.8 57.8,50.2 C58.5,50.9 59.4,51 60.1,50.8 C59.9,49.8 61,47.8 62.4,46.9 L61.2,45.8 L61.2,45.8 Z" id="Shape" fill="#DA2128"></path>
                <path d="M62.8,52.8 C62.9,52.7 62.9,52.5 62.8,52.4 C62.7,52.3 62.5,52.3 62.4,52.3 C62.4,52.3 61.8,53.1 60.6,53.2 C59.5,53.3 57.9,52.8 56.4,51.4 C55.5,50.5 54.9,49.5 54.7,48.6 C54.4,47.4 54.6,46.5 55,46 C55.1,45.9 55.1,45.7 55,45.6 C54.9,45.5 54.7,45.5 54.6,45.6 C54.1,46.2 53.9,47.4 54.3,48.7 C54.5,49.7 55.1,50.8 56.1,51.8 C57.7,53.4 59.5,53.9 60.7,53.8 C62.1,53.7 62.8,52.8 62.8,52.8 L62.8,52.8 Z" id="Shape" fill="#DA2128"></path>
                <path d="M36.9,89.8 C37.3,89.6 37.5,89.4 37.7,89.1 C38,88.5 38,88 37.6,87.6 C37.4,87.4 37.1,87.2 36.9,87.1 L36.9,86.7 L37,86.7 C37.3,86.9 37.7,87 38.1,87 C38.4,87 38.7,86.7 38.9,86.4 C39.2,85.9 39,85.6 39,85.4 C38.8,85 38.5,84.8 38.1,84.6 C37.8,84.4 37.5,84.3 37.3,84.2 L36.9,84.9 L36.9,83.6 L38.6,84.5 C39,84.7 39.6,85.1 39.8,85.6 C39.9,85.9 39.9,86.3 39.7,86.7 C39.5,87.1 39.2,87.3 39,87.4 C38.7,87.5 38.3,87.6 37.9,87.5 L37.9,87.5 C38.7,88 38.9,88.9 38.5,89.7 C38.2,90.2 37.8,90.5 37.3,90.6 L37,90.6 L37,89.8 L36.9,89.8 Z M34.9,88.6 C34.8,88.8 34.9,89.2 35.6,89.6 C36.1,89.8 36.5,89.9 36.9,89.7 L36.9,89.7 L36.9,90.4 C36.4,90.4 35.8,90.1 35.5,90 C35.2,89.9 35.1,89.8 35,89.7 C34.8,89.6 34.2,89.2 34,89.1 C33.8,89 33.6,88.9 33.4,88.8 C33.2,88.7 33.1,88.7 32.9,88.6 C32.8,88.5 32.8,88.5 32.8,88.4 L32.8,88.4 C32.9,88.3 32.9,88.3 33,88.4 C33.1,88.5 33.3,88.6 33.5,88.6 C33.8,88.6 33.9,88.5 34,88.2 L36.2,84.1 C36.3,83.9 36.4,83.7 36.2,83.5 C36.1,83.3 35.9,83.3 35.8,83.2 C35.7,83.1 35.7,83.1 35.7,83 L35.7,83 C35.7,83 35.8,82.9 35.9,83 L36.7,83.5 L36.7,84.8 L34.9,88.6 L34.9,88.6 Z M36.9,87.1 L36.9,86.7 L36.8,86.7 C36.7,86.7 36.6,86.7 36.6,86.8 L36.6,86.9 C36.5,87 36.6,87.1 36.6,87.1 L36.7,87.2 C36.8,87 36.9,87.1 36.9,87.1 L36.9,87.1 Z" id="Shape" fill="#FFFFFF"></path>
                <path d="M41.5,86.9 C41.6,86.6 41.7,86.5 41.5,86.3 C41.4,86.2 41.2,86.1 41,86 C40.9,86 40.9,85.9 40.9,85.8 L40.9,85.8 C40.9,85.8 41,85.7 41.1,85.7 L45.3,87.5 C45.3,87.5 45.4,87.6 45.3,87.6 L44.7,89 C44.7,89 44.7,89 44.6,89 L44.5,89 C44.5,89 44.5,89 44.4,88.9 C44.5,88.4 44.5,88 44.3,87.7 C44.1,87.4 43.8,87.3 43.7,87.2 L42.3,86.6 L41.3,88.8 L42,89.1 C42.2,89.2 42.4,89.2 42.7,89.1 C42.8,89 43,88.9 43.2,88.5 L43.3,88.5 L43.4,88.5 C43.4,88.5 43.4,88.5 43.4,88.6 L42.5,90.8 C42.5,90.8 42.5,90.8 42.4,90.8 L42.3,90.8 C42.3,90.8 42.3,90.8 42.3,90.7 C42.4,90.3 42.4,90.1 42.4,90 C42.3,89.7 42.1,89.5 42,89.5 L41.3,89.2 L40.4,91.2 C40.1,91.8 40.9,92.1 41.2,92.3 C41.8,92.5 42.4,92.8 43,92.6 C43.4,92.5 43.8,92.2 44,91.7 L44.1,91.7 L44.1,91.7 L44.1,91.8 C44.1,92 44,92.3 43.9,92.5 C43.8,92.8 43.5,93.1 43.3,93.2 C42.8,93.4 42.2,93.1 41.8,93 C41.4,92.8 40.7,92.5 40.4,92.4 C40.1,92.2 39.9,92.1 39.6,92 C39.2,91.8 38.7,91.7 38.5,91.6 C38.4,91.6 38.4,91.5 38.4,91.4 L38.4,91.4 C38.4,91.4 38.5,91.3 38.6,91.3 C38.8,91.4 38.9,91.4 39.1,91.4 C39.4,91.4 39.5,91.2 39.6,91 L41.5,86.9 L41.5,86.9 Z" id="Shape" fill="#FFFFFF"></path>
                <path d="M46.4,88.1 C46.4,88.1 46.4,88 46.5,88 C46.6,88 46.7,88.1 47,88.2 C47.2,88.3 47.4,88.4 47.7,88.5 C48.6,88.8 49,88.9 49.4,89 C49.9,89.2 50.5,89.4 50.9,90.1 C51.2,90.5 51.3,91 51.1,91.8 C50.9,92.3 50.6,92.7 50.2,92.9 C49.5,93.3 48.8,93.1 48.4,93 C47.8,92.8 47.4,92.5 47.3,92.4 L47.3,92.3 L47.3,92.2 C47.3,92.1 47.4,92.1 47.5,92.2 C47.8,92.5 48,92.6 48.3,92.7 C48.9,92.9 49.3,92.8 49.6,92.6 C49.9,92.4 50.2,92 50.3,91.6 C50.4,91.2 50.5,90.7 50.3,90.3 C50,89.8 49.5,89.6 49.1,89.4 C48.3,89.1 48,89.3 47.9,89.5 L46.4,93.9 C46.3,94.2 46.3,94.3 46.5,94.5 C46.6,94.6 46.8,94.7 47,94.7 C47.1,94.7 47.1,94.8 47.1,94.8 L47.1,94.9 C47.1,94.9 47.1,95 46.9,95 C46.8,95 46.7,94.9 46.4,94.8 C46.1,94.7 45.9,94.6 45.7,94.5 C45.5,94.4 45.3,94.4 45,94.3 C44.7,94.2 44.6,94.2 44.5,94.2 C44.4,94.2 44.4,94.1 44.4,94.1 L44.4,94 C44.4,94 44.4,93.9 44.5,93.9 C44.7,94 44.8,94 45,94 C45.3,94 45.4,93.8 45.4,93.5 L46.9,89.1 C47,88.8 47,88.7 46.8,88.5 C46.7,88.4 46.5,88.3 46.3,88.3 C46.3,88.3 46.4,88.2 46.4,88.1 L46.4,88.1 L46.4,88.1 Z" id="Shape" fill="#FFFFFF"></path>
                <path d="M55.3,91.7 C55.4,91.6 55.5,91.5 55.6,91.3 C55.6,91.2 55.6,91 55.3,90.9 C55.2,90.9 55.1,90.8 55.1,90.7 L55.1,90.6 C55.1,90.5 55.2,90.5 55.3,90.5 C55.7,90.6 55.8,90.7 56.3,90.8 L56.6,90.8 C56.8,90.8 56.9,90.8 57.1,90.9 C57.2,90.9 57.3,90.9 57.2,91 L57.2,91 C57.2,91.1 57.1,91.1 57,91.1 C56.8,91.1 56.6,91.1 56.5,91.2 C56.4,91.2 56.2,91.4 56.1,91.5 L54.1,93.2 L55.1,96.3 C55.1,96.4 55.3,96.6 55.3,96.7 C55.4,96.8 55.6,96.9 55.7,96.9 C55.8,96.9 55.9,96.9 55.8,97.1 L55.8,97.2 C55.8,97.3 55.7,97.3 55.6,97.3 C55.3,97.2 54.6,97 54.4,96.9 C54.3,96.9 54.1,96.9 54,96.8 C53.8,96.8 53.7,96.8 53.5,96.7 C53.4,96.7 53.3,96.7 53.4,96.6 L53.4,96.5 C53.4,96.4 53.5,96.4 53.6,96.4 C53.8,96.4 54.1,96.5 54.1,96.2 L54.1,95.8 L53.4,93.7 L53.3,93.7 L51.9,95.1 C51.8,95.2 51.6,95.4 51.6,95.6 C51.5,95.8 51.7,95.9 51.8,96 C51.9,96.1 52,96.1 52,96.1 C52.1,96.1 52.1,96.2 52.1,96.2 L52.1,96.3 C52.1,96.4 52,96.4 51.9,96.4 C51.7,96.4 51.6,96.3 51.4,96.3 C51.2,96.2 51,96.2 50.8,96.1 C50.6,96 50.1,96 49.8,95.9 C49.7,95.9 49.7,95.8 49.7,95.7 L49.7,95.6 C49.7,95.5 49.8,95.5 49.9,95.5 L50.4,95.5 C50.7,95.4 50.8,95.3 51,95.2 L53.2,93.3 L52.3,90.5 C52.3,90.4 52.2,90.2 52,90.1 C51.8,89.9 51.7,89.9 51.5,89.8 C51.4,89.8 51.4,89.7 51.4,89.7 L51.4,89.6 C51.4,89.5 51.5,89.5 51.6,89.5 C51.7,89.5 51.8,89.6 52.1,89.6 C52.3,89.7 52.5,89.8 52.7,89.8 C53,89.9 53.6,89.9 53.8,90 C53.9,90 53.9,90.1 53.9,90.1 L53.9,90.2 C53.9,90.3 53.8,90.3 53.7,90.3 C53.4,90.3 53.3,90.4 53.3,90.5 L53.3,90.8 L53.9,92.8 L54,92.8 L55.3,91.7 L55.3,91.7 Z" id="Shape" fill="#FFFFFF"></path>
                <path d="M60.3,97.9 C60.9,97.9 61.7,97.6 62.3,96.5 C62.5,96.1 62.6,95.7 62.7,95.2 C62.8,94.8 62.8,94.3 62.7,93.9 C62.4,92.4 61.4,92 60.7,91.9 L60.2,91.9 L60.2,91.5 L60.7,91.5 C61.9,91.7 63,92.6 63.4,93.8 C63.6,94.3 63.6,94.9 63.5,95.4 C63.4,96 63.2,96.6 62.8,97 C62.4,97.5 61.6,98.2 60.1,98.2 L60.1,97.9 L60.3,97.9 Z M58.2,93.2 C58,93.6 57.8,94 57.8,94.5 C57.7,95 57.7,95.4 57.8,95.8 C58.1,97.4 59.2,97.8 59.8,97.8 L60.3,97.8 L60.3,98.2 C60.1,98.2 60,98.2 59.8,98.1 C58.2,97.9 57.4,97 57.1,96.1 C56.9,95.5 56.9,94.9 57,94.4 C57.1,93.8 57.3,93.3 57.6,92.8 C58.2,91.9 59.3,91.4 60.4,91.4 L60.4,91.8 C59.7,91.9 58.8,92.1 58.2,93.2 L58.2,93.2 Z" id="Shape" fill="#FFFFFF"></path>
                <path d="M67.2,98.5 C67.6,98.5 67.9,98.4 68.2,98.1 C68.5,97.8 68.6,97.5 68.6,97.1 C68.7,96.4 68.4,96 67.9,95.8 C67.7,95.7 67.4,95.7 67.2,95.6 L67.2,95.2 C67.5,95.2 67.8,95.2 68,95 C68.2,94.8 68.4,94.5 68.5,94.1 C68.5,93.5 68.3,93.3 68.2,93.2 C67.9,93 67.6,92.9 67.2,92.9 L67.2,92.5 L67.5,92.5 C68,92.5 68.6,92.6 69.1,93 C69.3,93.2 69.5,93.6 69.5,94.1 C69.5,94.6 69.3,94.9 69.1,95 C68.9,95.2 68.5,95.4 68.2,95.5 L68.2,95.5 C69.1,95.7 69.7,96.4 69.6,97.3 C69.6,97.9 69.3,98.4 68.9,98.6 C68.4,98.9 67.8,99 67.3,98.9 L67.3,98.5 L67.2,98.5 Z M65.8,97.8 C65.8,98.1 66,98.4 66.9,98.4 L67.2,98.4 L67.2,98.8 L67.1,98.8 C66.8,98.8 66.7,98.8 66.5,98.7 C66.3,98.7 65.5,98.6 65.3,98.6 L64.7,98.6 L64.2,98.6 C64.1,98.6 64.1,98.5 64.1,98.5 L64.1,98.4 C64.1,98.3 64.2,98.3 64.2,98.3 L64.7,98.3 C65,98.2 65,98 65,97.7 L65.3,93.1 C65.3,92.8 65.3,92.6 65.1,92.5 C64.9,92.4 64.7,92.4 64.6,92.4 C64.5,92.4 64.5,92.3 64.5,92.3 L64.5,92.2 C64.5,92.2 64.5,92.1 64.6,92.1 L67.2,92.3 L67.2,92.7 L67.1,92.7 L66.2,92.7 L65.8,97.8 L65.8,97.8 Z M67.2,95.6 L67.2,95.2 L67,95.2 L66.8,95.2 C66.7,95.2 66.7,95.3 66.7,95.3 L66.7,95.4 C66.7,95.5 66.8,95.5 66.8,95.5 L66.9,95.5 C67,95.6 67.1,95.6 67.2,95.6 L67.2,95.6 Z" id="Shape" fill="#FFFFFF"></path>
                <path d="M73.8,98.9 L73.8,98.9 C74.3,98.9 75.6,98.7 76.1,97.2 C76.2,96.8 76.3,96.3 76.3,95.9 C76.3,95.4 76.2,95 76.1,94.6 C75.6,93.2 74.6,92.9 73.9,92.9 L73.9,92.5 C75.1,92.5 76.3,93.2 76.9,94.3 C77.1,94.8 77.3,95.3 77.3,95.9 C77.3,96.5 77.2,97.1 76.9,97.6 C76.5,98.3 75.7,99.2 73.9,99.2 L73.9,99.2 L73.9,98.9 L73.8,98.9 Z M71.6,94.6 C71.5,95 71.4,95.5 71.4,95.9 C71.4,96.4 71.5,96.8 71.6,97.2 C72.2,98.7 73.3,98.9 73.9,98.9 L73.9,99.3 C72.3,99.3 71.4,98.6 70.9,97.7 C70.6,97.2 70.5,96.6 70.5,96 C70.5,95.4 70.6,94.8 70.8,94.4 C71.4,93.2 72.6,92.5 73.8,92.5 L73.8,92.5 L73.8,92.9 C73.3,92.8 72.1,93 71.6,94.6 L71.6,94.6 Z" id="Shape" fill="#FFFFFF"></path>
                <path d="M82.5,90.3 C82.6,90.9 82.5,91.5 82.1,92 C81.9,92.2 81.8,92.4 81.6,92.5 L81.6,91.5 C81.7,91.4 81.8,91.3 81.8,91.2 C82,91 82.1,90.8 82.2,90.6 L82.2,90.3 L82.3,90.2 L82.4,90.2 L82.5,90.3 L82.5,90.3 Z M81.7,95.4 L83,93.4 L83.4,97.6 C83.4,97.9 83.4,98.1 83.2,98.2 C83,98.3 82.8,98.3 82.7,98.3 C82.6,98.3 82.6,98.4 82.6,98.4 L82.6,98.5 C82.6,98.5 82.6,98.6 82.7,98.6 C82.8,98.6 82.9,98.6 83.2,98.5 C83.5,98.4 83.7,98.4 83.9,98.4 L84.6,98.4 L85.1,98.4 C85.2,98.4 85.2,98.3 85.2,98.3 L85.2,98.2 C85.2,98.2 85.2,98.1 85.1,98.1 L84.6,98.1 C84.3,98 84.3,97.8 84.3,97.6 L83.8,92.8 C83.8,92.5 83.9,92.3 84.1,92.1 L84.1,92 L84.1,91.9 L84,91.9 C83.8,92 83.5,92.1 83.1,92.7 L81.8,94.7 L81.8,95.4 L81.7,95.4 Z M81.7,92.4 C81.6,92.5 81.4,92.6 81.3,92.7 C81.2,92.9 81.1,93 81,93.3 L80.9,93.4 L80.8,93.4 L80.7,93.3 C80.6,93 80.7,92.6 81,92 C81.2,91.7 81.4,91.5 81.6,91.2 L81.6,92.4 L81.7,92.4 L81.7,92.4 Z M81.7,94.6 L79.8,97.6 L79.4,93.4 C79.4,93.1 79.4,92.9 79.6,92.8 C79.8,92.7 79.9,92.7 80.1,92.7 C80.2,92.7 80.2,92.6 80.2,92.6 L80.2,92.5 C80.2,92.5 80.2,92.4 80.1,92.4 C80,92.4 79.9,92.4 79.6,92.5 C79.3,92.6 79.1,92.6 78.9,92.6 L78.2,92.6 L77.7,92.6 C77.6,92.6 77.6,92.7 77.6,92.7 L77.6,92.8 C77.6,92.8 77.6,92.9 77.7,92.9 L78.2,92.9 C78.5,93 78.5,93.2 78.5,93.4 L79.1,99 L79.2,99.1 L79.3,99.1 L79.4,99 L81.8,95.3 L81.8,94.6 L81.7,94.6 Z" id="Shape" fill="#FFFFFF"></path>
                <path d="M88,92.2 C87.9,91.9 87.9,91.8 87.6,91.7 L87.1,91.7 C87,91.7 87,91.7 87,91.6 L87,91.5 C87,91.5 87,91.4 87.1,91.4 L91.6,90.4 C91.6,90.4 91.7,90.4 91.7,90.5 L92,92 L92,92.1 L91.9,92.1 L91.8,92.1 C91.6,91.6 91.3,91.3 91.1,91.2 C90.8,91.1 90.4,91.1 90.3,91.2 L88.8,91.5 L89.3,93.9 L90,93.7 C90.2,93.7 90.4,93.6 90.5,93.3 C90.6,93.2 90.6,93 90.6,92.6 L90.6,92.6 L90.7,92.6 L90.8,92.6 L91.3,94.9 L91.3,95 L91.2,95 C91.2,95 91.2,95 91.1,95 C91,94.6 90.9,94.5 90.7,94.4 C90.5,94.2 90.2,94.2 90.1,94.2 L89.4,94.4 L89.9,96.5 C90,97.2 90.8,97 91.2,96.9 C91.8,96.8 92.5,96.6 92.8,96.1 C93,95.8 93.2,95.3 93.1,94.8 L93.1,94.7 L93.1,94.7 C93.1,94.7 93.2,94.7 93.2,94.8 C93.3,94.9 93.4,95.3 93.5,95.5 C93.6,95.8 93.5,96.2 93.4,96.4 C93.1,96.8 92.5,97 92,97.1 C91.5,97.2 90.8,97.3 90.5,97.4 C90.2,97.5 89.9,97.5 89.6,97.5 C89.2,97.6 88.7,97.8 88.4,97.8 C88.3,97.8 88.3,97.8 88.2,97.7 L88.2,97.6 C88.2,97.6 88.2,97.5 88.3,97.5 C88.5,97.5 88.6,97.4 88.8,97.3 C89,97.1 89,97 89,96.7 L88,92.2 L88,92.2 Z" id="Shape" fill="#FFFFFF"></path>
                <path d="M94.2,94.6 L94.2,94.6 L94.3,94.5 L94.4,94.5 C95,95.8 96,95.7 96.6,95.5 C96.9,95.4 98.1,95 97.7,93.5 C97.3,92 96,92.4 95.9,92.4 L95.6,92.5 L95.4,92.4 L95.4,92.3 L95.5,92.2 L95.6,92.2 C95.9,92.1 96.3,92 96.5,91.7 C96.7,91.4 96.7,91.1 96.6,90.8 C96.4,90.1 95.8,89.6 94.9,89.9 C93.9,90.2 93.7,91.2 93.7,91.7 L93.7,91.8 L93.6,91.8 L93.5,91.8 L93,90.2 L93,90.1 L93.1,90.1 L93.2,90.2 L93.2,90.3 C93.2,90.4 93.3,90.5 93.4,90.5 C93.5,90.5 93.6,90.3 94,90 C94.3,89.8 94.6,89.6 95,89.5 C96.5,89.1 97.1,89.9 97.3,90.4 C97.5,91 97.2,91.7 96.8,92.1 L96.8,92.2 C97.6,92.2 98.3,92.5 98.5,93.4 C98.8,94.3 98.5,95.5 96.8,96 C95.7,96.3 95,96.3 94.7,96.2 L94.2,94.6 L94.2,94.6 Z" id="Shape" fill="#FFFFFF"></path>
                <path d="M103.9,92.8 L102.1,90.8 L102.1,89.5 L104.7,92.4 C105.1,92.3 105,92.3 105.2,92.1 C105.3,92.1 105.4,92.2 105.4,92.3 L106,93.8 L105.9,93.9 L105.8,93.9 C105,92.5 104.4,92.8 104,93 L102,93.8 L102,93.4 L103.9,92.8 L103.9,92.8 Z M102.1,90.9 L100.6,89.2 L100.5,89.2 L100.3,94.2 L102.1,93.5 L102.1,93.9 L100.9,94.4 C100.4,94.6 99.8,94.8 100.1,96.3 L100,96.4 L99.9,96.4 L99.8,96.4 L99.2,94.9 C99.1,94.8 99.1,94.7 99.3,94.6 C99.5,94.5 99.4,94.6 99.8,94.5 L100.2,87.8 L100.2,87.7 L100.3,87.8 L102.1,89.8 L102.1,90.9 L102.1,90.9 Z" id="Shape" fill="#FFFFFF"></path>
                <path d="M112.1,88.2 C112.2,88.4 112.3,88.6 112.6,88.6 C112.8,88.6 112.9,88.5 113.1,88.4 L113.3,88.4 L113.3,88.5 C113.3,88.5 113.3,88.6 113.2,88.7 C113.1,88.8 113,88.8 112.7,88.9 C112.4,89 112.2,89.1 112,89.2 C111.8,89.3 111.7,89.4 111.4,89.6 C111.2,89.7 111.1,89.8 111,89.9 C110.9,90 110.9,89.9 110.8,89.9 L110.8,89.8 C110.8,89.8 110.8,89.7 110.9,89.6 C111,89.5 111.2,89.4 111.3,89.3 C111.5,89.1 111.4,88.9 111.3,88.7 L109.2,84.6 C109.1,84.5 109.1,84.4 109,84.3 L109,83.7 C109,83.7 109.1,83.7 109.1,83.6 C109.3,83.5 109.4,83.4 109.7,83.2 C109.9,83.1 110,83 110.1,82.9 L110.3,82.9 L110.3,82.9 C110.3,82.9 110.3,83 110.2,83.1 C110.1,83.2 109.9,83.3 109.8,83.4 C109.6,83.6 109.7,83.8 109.8,84 L112.1,88.2 L112.1,88.2 Z M109.1,90.8 C109.5,90.5 109.9,90.2 110,89.7 C110.2,89.1 110,88.5 109.8,88.1 C109.6,87.8 109.4,87.5 109,87.3 L109,88.6 C109.2,89 109.3,89.4 109.2,89.8 C109.2,90 109.1,90.1 109,90.2 L109,90.8 L109.1,90.8 Z M109.1,84.3 C109,84.2 108.9,84.2 108.8,84.2 C108.6,84.2 108.5,84.3 108.3,84.4 C108.2,84.5 108.2,84.4 108.1,84.4 L108.1,84.3 C108.1,84.3 108.1,84.2 108.2,84.1 C108.3,84 108.4,84 108.7,83.9 C108.9,83.8 109.1,83.7 109.2,83.7 L109.2,84.3 L109.1,84.3 L109.1,84.3 Z M109.1,87.3 L109.1,88.6 C108.9,88.2 108.6,87.9 108.3,87.8 C107.8,87.6 107.4,87.7 107.1,87.9 C106.8,88 106.6,88.2 106.4,88.5 L106.3,88.5 L106.3,88.4 C106.5,88 107,87.7 107.3,87.5 C107.8,87.2 108.4,87.1 109,87.3 C109,87.2 109,87.3 109.1,87.3 L109.1,87.3 L109.1,87.3 Z M109.1,90.2 C108.9,90.5 108.6,90.6 108.3,90.8 C108,91 107.7,91.1 107.6,91.1 C107.3,91.1 107.1,90.8 107.1,90.7 L105.1,86.8 C105,86.6 104.9,86.4 105.1,86.2 C105.2,86.1 105.4,86 105.5,85.9 C105.6,85.8 105.6,85.8 105.6,85.7 L105.6,85.7 C105.6,85.7 105.5,85.6 105.4,85.7 C105.3,85.8 105.2,85.8 105,86 C104.7,86.2 104.5,86.3 104.4,86.4 C104.2,86.5 104.1,86.6 103.7,86.7 C103.5,86.8 103.4,86.8 103.3,86.9 C103.2,87 103.2,87 103.2,87.1 L103.2,87.1 C103.2,87.1 103.3,87.2 103.4,87.1 C103.5,87 103.7,86.9 103.9,86.9 C104.2,86.9 104.3,87 104.4,87.3 L106.5,91.4 C106.6,91.6 106.7,91.8 106.5,92 C106.4,92.1 106.2,92.2 106.1,92.3 C106,92.3 106,92.4 106,92.5 L106,92.5 C106,92.6 106.1,92.6 106.2,92.6 C106.5,92.4 106.9,92.1 107.2,92 C107.4,91.9 107.6,91.8 107.8,91.7 C108.1,91.6 108.4,91.4 108.7,91.3 C108.9,91.2 109,91.1 109.2,91 L109.2,90.2 L109.1,90.2 Z" id="Shape" fill="#FFFFFF"></path>
                <path d="M21.5,31.2 C21.8,30.7 21.7,30.2 21.5,29.8 L21.1,28.7 C20.8,27.8 21.1,27.3 21.3,27.1 C21.6,26.8 22,26.6 22.4,27 C22.6,27.2 22.6,27.5 22.5,27.7 C22.3,27.9 22,28 21.8,27.8 C21.6,27.7 21.6,27.5 21.6,27.4 C21.6,27.4 21.5,27.4 21.5,27.5 C21.4,27.7 21.4,27.9 21.4,28 C21.5,28.5 21.7,28.6 22,29.5 C22.1,29.9 22.2,30.4 22,31 L22,31 C22.5,30.6 23.2,30.3 24.1,30.4 C24.7,30.5 25.1,30.6 25.8,30.8 C26,30.8 26.4,30.9 26.6,30.6 C26.7,30.5 26.7,30.3 26.8,30.2 L26.9,30.1 L27,30.1 L27.1,30.2 C27.2,30.5 27.1,30.7 26.8,31.1 C26.3,31.6 25.5,31.6 25,31.5 C24.2,31.4 23.7,31.2 23.2,31.2 C22.6,31.2 22.2,31.3 21.9,31.6 L23.7,33.2 C23.9,33.4 24.1,33.5 24.3,33.4 C24.5,33.3 24.6,33.2 24.7,33 C24.8,32.9 24.8,33 24.9,33 L24.9,33 C24.9,33 25,33.1 24.9,33.2 C24.8,33.3 24.7,33.4 24.6,33.5 C24.4,33.7 24.2,33.9 24.1,34 C24,34.1 23.9,34.3 23.7,34.6 C23.5,34.8 23.5,34.9 23.4,35 C23.3,35.1 23.3,35 23.2,35 L23.2,35 C23.2,35 23.1,34.9 23.2,34.8 C23.3,34.7 23.4,34.5 23.5,34.4 C23.6,34.1 23.5,34 23.3,33.8 L19.8,30.7 C19.6,30.5 19.4,30.4 19.2,30.5 C19,30.6 18.9,30.7 18.8,30.9 C18.7,31 18.7,30.9 18.6,30.9 L18.6,30.9 C18.6,30.9 18.5,30.8 18.6,30.7 C18.7,30.6 18.8,30.5 19,30.4 C19.2,30.2 19.4,30 19.5,29.9 C19.6,29.8 19.7,29.6 19.9,29.3 C20.1,29.1 20.1,29 20.2,28.9 C20.3,28.8 20.3,28.9 20.4,28.9 L20.4,28.9 C20.4,28.9 20.5,29 20.4,29.1 C20.3,29.2 20.2,29.4 20.1,29.5 C20,29.8 20.1,29.9 20.3,30.1 L21.5,31.2 L21.5,31.2 Z" id="Shape" fill="#FFFFFF"></path>
                <path d="M23.2,25.3 C23.2,25.3 23.1,25.2 23.2,25.1 C23.3,25 23.4,24.9 23.6,24.8 C23.8,24.7 23.9,24.5 24.2,24.4 C24.9,23.8 25.2,23.5 25.5,23.2 C25.9,22.9 26.5,22.5 27.2,22.4 C27.7,22.4 28.2,22.5 28.7,23.1 C29.1,23.5 29.2,24 29.2,24.5 C29.2,25.3 28.7,25.8 28.4,26.1 C28,26.5 27.5,26.7 27.3,26.7 L27.2,26.7 L27.1,26.6 C27.1,26.5 27.1,26.5 27.2,26.4 C27.6,26.3 27.8,26.1 28,26 C28.5,25.6 28.6,25.2 28.6,24.9 C28.6,24.5 28.4,24.1 28.1,23.8 C27.8,23.5 27.4,23.2 27,23.2 C26.4,23.2 26,23.5 25.6,23.8 C25,24.4 25,24.7 25.1,24.9 L28.1,28.4 C28.3,28.6 28.4,28.7 28.7,28.6 C28.9,28.5 29,28.4 29.1,28.3 C29.2,28.2 29.2,28.3 29.3,28.3 L29.3,28.3 C29.3,28.3 29.4,28.4 29.3,28.5 C29.2,28.6 29.1,28.6 28.9,28.8 C28.6,29 28.5,29.1 28.3,29.2 C28.2,29.3 28,29.5 27.8,29.7 C27.6,29.9 27.5,30 27.5,30 C27.4,30.1 27.4,30 27.3,30 L27.3,30 C27.3,30 27.2,29.9 27.3,29.8 C27.4,29.7 27.6,29.6 27.7,29.4 C27.8,29.2 27.7,29 27.5,28.8 L24.5,25.3 C24.3,25.1 24.2,25 23.9,25.1 C23.7,25.2 23.6,25.3 23.5,25.4 C23.4,25.4 23.3,25.4 23.2,25.3 L23.2,25.3 L23.2,25.3 Z" id="Shape" fill="#FFFFFF"></path>
                <path d="M29.6,21.1 C29.4,20.9 29.3,20.7 29,20.8 C28.8,20.8 28.7,20.9 28.5,21 C28.4,21.1 28.4,21 28.3,21 L28.3,21 C28.3,21 28.2,20.9 28.3,20.8 L32.1,18.2 L32.2,18.2 L33.1,19.5 L33.1,19.6 L33,19.6 L32.9,19.6 C32.5,19.2 32.2,19.1 31.9,19.1 C31.6,19.1 31.3,19.3 31.1,19.4 L29.8,20.3 L31.2,22.3 L31.8,21.9 C31.9,21.8 32.1,21.6 32.1,21.3 C32.1,21.2 32.1,20.9 31.9,20.6 C31.9,20.6 31.9,20.6 31.9,20.5 L32,20.5 L32.1,20.5 L33.4,22.5 L33.4,22.6 L33.3,22.6 C33.3,22.6 33.3,22.6 33.2,22.6 C32.9,22.3 32.8,22.2 32.6,22.1 C32.3,22 32.1,22.1 31.9,22.2 L31.3,22.6 L32.5,24.4 C32.9,25 33.6,24.5 33.8,24.3 C34.3,24 34.9,23.6 35,23 C35.1,22.6 35.1,22.1 34.8,21.7 L34.8,21.6 L34.8,21.6 L34.9,21.6 C35.1,21.7 35.3,21.9 35.4,22.1 C35.6,22.3 35.7,22.7 35.6,23 C35.5,23.5 35,23.9 34.6,24.1 C34.2,24.4 33.5,24.8 33.3,24.9 C33,25.1 32.8,25.2 32.5,25.4 C32.2,25.6 31.8,26 31.6,26.1 C31.5,26.2 31.5,26.1 31.4,26.1 L31.4,26.1 C31.4,26.1 31.3,26 31.4,25.9 C31.5,25.8 31.7,25.7 31.8,25.6 C31.9,25.4 31.9,25.2 31.7,25 L29.6,21.1 L29.6,21.1 Z" id="Shape" fill="#FFFFFF"></path>
                <path d="M39.8,14.1 C40,14 40.3,13.9 40.5,13.8 C40.6,13.7 40.8,13.7 41,13.5 C41.2,13.4 41.3,13.3 41.4,13.3 L41.6,13.3 L41.6,13.3 C41.6,13.4 41.6,13.4 41.5,13.5 C41.3,13.6 41.2,13.7 41.1,13.8 C40.9,14 41,14.2 41.1,14.4 L43.2,18.5 C43.3,18.7 43.4,18.9 43.7,18.9 C43.9,18.9 44,18.8 44.2,18.7 C44.3,18.6 44.3,18.7 44.4,18.7 L44.4,18.7 C44.5,18.8 44.4,18.8 44.3,18.9 C44.2,19 44.1,19 43.9,19.1 C43.6,19.2 43.4,19.3 43.2,19.4 C43,19.5 42.7,19.7 42.6,19.8 C42.5,19.9 42.3,20 42.2,20 C42.1,20.1 42.1,20 42,20 L42,20 C42,20 42,19.9 42.1,19.8 C42.4,19.7 42.5,19.6 42.5,19.5 C42.7,19.3 42.6,19.1 42.5,18.9 L40.3,14.4 L40.2,14.4 L40.7,20.7 L40.7,20.8 L40.6,20.7 L36,16.5 L38.3,21 C38.4,21.2 38.5,21.4 38.8,21.4 C38.9,21.4 39.1,21.3 39.3,21.2 C39.4,21.1 39.4,21.2 39.5,21.2 L39.5,21.2 C39.5,21.2 39.5,21.3 39.4,21.4 C39.3,21.5 39.2,21.5 38.9,21.6 C38.6,21.7 38.4,21.8 38.2,21.9 C38.1,22 38,22 37.7,22.2 C37.5,22.3 37.4,22.4 37.3,22.4 C37.2,22.5 37.1,22.4 37.1,22.4 L37.1,22.4 C37.1,22.3 37.1,22.3 37.2,22.2 C37.4,22.1 37.5,22 37.6,21.9 C37.8,21.6 37.7,21.4 37.6,21.3 L35.6,17.3 C35.5,17.1 35.4,16.9 35.2,16.8 C35,16.7 34.8,16.8 34.6,16.9 C34.5,16.9 34.5,17 34.4,16.9 L34.4,16.8 C34.4,16.8 34.4,16.7 34.5,16.6 L34.6,16.6 C34.7,16.6 34.9,16.5 35,16.4 C35.2,16.3 35.3,16.3 35.6,16.2 C35.9,16.1 36.1,16 36.3,15.8 L40.3,19.4 L39.8,14.1 L39.8,14.1 Z" id="Shape" fill="#FFFFFF"></path>
                <path d="M51,16.6 C51,16.7 50.9,16.7 50.8,16.8 C50.7,16.8 50.6,16.9 50.4,16.9 C50.2,17 50.1,17 49.9,17 C49.7,17.1 49.6,17.1 49.3,17.3 C49.1,17.4 49,17.4 48.9,17.5 L48.7,17.5 L48.7,17.4 C48.7,17.3 48.8,17.2 48.9,17.2 C49.1,17.1 49.3,17 49.2,16.7 C49.2,16.6 49.1,16.6 49.1,16.5 L46.1,12.9 L46,12.9 L45.9,17.7 L45.9,18 C46,18.3 46.2,18.2 46.5,18.1 C46.6,18.1 46.7,18 46.7,18.2 L46.7,18.3 C46.7,18.4 46.6,18.4 46.6,18.4 C46.5,18.4 46.5,18.4 46.2,18.5 C45.9,18.6 45.8,18.6 45.6,18.7 C45.5,18.7 45.4,18.8 45.2,18.9 C45,19 45,19 44.8,19.1 L44.6,19.1 L44.6,19 C44.6,18.9 44.5,18.9 44.7,18.8 C44.8,18.7 45,18.6 45,18.5 C45.1,18.4 45.1,18.2 45.1,18.1 L45.5,12 L45.6,11.8 L45.7,11.8 L45.9,11.9 L49.9,16.6 C50.1,16.8 50.3,16.8 50.3,16.8 C50.5,16.8 50.5,16.7 50.6,16.7 C50.9,16.5 51,16.5 51,16.6 L51,16.6 L51,16.6 Z" id="Shape" fill="#FFFFFF"></path>
                <path d="M50.8,11 C50.7,10.7 50.6,10.6 50.4,10.5 C50.2,10.5 50,10.5 49.9,10.6 C49.8,10.6 49.8,10.6 49.8,10.5 L49.8,10.4 C49.8,10.4 49.8,10.3 49.9,10.3 L54.4,9.1 C54.4,9.1 54.5,9.1 54.5,9.2 L54.9,10.7 L54.9,10.8 L54.8,10.8 L54.7,10.8 C54.4,10.3 54.2,10 53.9,9.9 C53.6,9.8 53.2,9.9 53.1,9.9 L51.6,10.3 L52.2,12.7 L52.9,12.5 C53.1,12.5 53.3,12.4 53.4,12.1 C53.4,12 53.5,11.8 53.4,11.4 C53.4,11.4 53.4,11.4 53.4,11.3 L53.5,11.3 L53.6,11.3 L54.2,13.6 L54.2,13.7 L54.1,13.7 C54.1,13.7 54.1,13.7 54,13.7 C53.9,13.3 53.7,13.2 53.6,13.1 C53.3,12.9 53.1,12.9 52.9,13 L52.2,13.2 L52.7,15.3 C52.9,16 53.7,15.7 54,15.7 C54.6,15.5 55.3,15.4 55.6,14.9 C55.8,14.6 55.9,14.1 55.8,13.6 L55.8,13.5 L55.8,13.5 L55.9,13.5 C56,13.6 56.2,14 56.2,14.2 C56.3,14.5 56.2,14.9 56.1,15.1 C55.8,15.6 55.2,15.7 54.8,15.8 C54.3,15.9 53.6,16.1 53.3,16.1 C53,16.2 52.7,16.2 52.4,16.3 C52,16.4 51.5,16.6 51.3,16.7 C51.2,16.7 51.2,16.7 51.1,16.6 L51.1,16.5 C51.1,16.5 51.1,16.4 51.2,16.4 C51.4,16.4 51.5,16.3 51.7,16.2 C51.9,16 51.9,15.8 51.8,15.6 L50.8,11 L50.8,11 Z" id="Shape" fill="#FFFFFF"></path>
                <path d="M59.8,14.3 L60.2,14.3 C60.7,14.2 61.1,14 61.3,13.6 C61.5,13.2 61.5,12.9 61.5,12.6 C61.4,11.9 61,11.6 60.5,11.5 L59.8,11.5 L59.8,11 C60,10.9 60.3,10.8 60.5,10.6 C60.7,10.4 60.8,10 60.7,9.6 C60.6,9.1 60.3,8.8 60.2,8.8 C60.1,8.7 60,8.7 59.8,8.7 L59.8,8.2 C60.2,8.2 60.6,8.2 60.9,8.4 C61.2,8.6 61.4,8.9 61.5,9.4 C61.6,9.9 61.4,10.2 61.3,10.4 C61.1,10.7 60.9,11 60.5,11.1 L60.5,11.1 C61.4,11.1 62.1,11.6 62.3,12.5 C62.4,13.1 62.2,13.6 61.9,13.9 C61.5,14.4 60.7,14.5 60.3,14.6 C60,14.6 59.9,14.7 59.7,14.7 L59.7,14.3 L59.8,14.3 Z M59,13.9 C59,14.1 59.3,14.3 59.9,14.3 L59.9,14.7 C59.7,14.7 58.9,14.8 58.7,14.8 C58.5,14.8 58.3,14.9 58.1,14.9 C57.9,15 57.7,15 57.6,15 C57.5,15 57.5,15 57.5,14.9 L57.5,14.8 C57.5,14.7 57.5,14.7 57.6,14.7 C57.8,14.7 57.9,14.6 58.1,14.5 C58.3,14.3 58.3,14.2 58.3,13.9 L57.5,9.3 C57.5,9 57.4,8.8 57.1,8.8 L56.6,8.8 C56.5,8.8 56.5,8.8 56.5,8.7 L56.5,8.6 C56.5,8.6 56.5,8.5 56.6,8.5 L59.4,8 C59.6,8 59.7,7.9 59.9,7.9 L59.9,8.4 L59.1,8.4 C58.8,8.5 58.5,8.5 58.2,8.6 L59,13.9 L59,13.9 Z M59.8,11.4 L59.8,11 C59.7,11 59.6,11.1 59.4,11.1 L59.2,11.1 C59.1,11.1 59.1,11.2 59.1,11.3 L59.1,11.4 C59.1,11.5 59.2,11.5 59.2,11.5 L59.3,11.5 C59.5,11.4 59.7,11.4 59.8,11.4 L59.8,11.4 Z" id="Shape" fill="#FFFFFF"></path>
                <path d="M69.2,8.8 C69.2,8.8 69.1,8.9 69.2,8.8 L69.1,8.9 C69.1,8.9 69,8.9 69,8.8 C68.9,8.4 68.6,8.1 68.3,7.9 C67.9,7.7 67.4,7.5 66.8,7.6 C66,7.7 65.3,8 64.9,8.7 C64.5,9.4 64.4,10.1 64.4,10.8 C64.5,11.8 64.8,12.4 65.1,12.7 C65.6,13.3 66.4,13.6 67.2,13.5 C67.7,13.5 68.2,13.3 68.6,12.9 C68.9,12.6 69.2,12.2 69.2,11.7 C69.2,11.7 69.2,11.6 69.3,11.6 L69.4,11.6 C69.4,11.6 69.5,11.6 69.5,11.7 L69.6,13.1 C68.8,13.6 68.1,13.8 67.3,13.9 C66.4,14 65.4,13.9 64.5,13.1 C63.8,12.4 63.6,11.6 63.5,11 C63.4,10.2 63.6,9.2 64.3,8.4 C64.9,7.7 65.6,7.3 66.7,7.2 C67.2,7.2 67.6,7.2 67.9,7.3 C68.4,7.4 68.5,7.5 68.7,7.5 C68.9,7.5 68.9,7.4 68.8,7.2 L68.8,7.1 C68.8,7.1 68.8,7 68.9,7 L69,7 C69,7 69.1,7 69.1,7.1 L69.2,8.8 L69.2,8.8 Z" id="Shape" fill="#FFFFFF"></path>
                <path d="M72.5,9.9 C73.1,9.8 73.3,9.4 73.5,9 L74.1,7.9 C74.6,7.1 75.1,7 75.5,7 C76,7 76.3,7.2 76.3,7.7 C76.3,8 76.1,8.2 75.8,8.2 C75.5,8.2 75.3,8 75.3,7.7 C75.3,7.5 75.4,7.4 75.5,7.3 L75.4,7.3 C75.2,7.3 75,7.5 74.9,7.6 C74.6,8 74.6,8.2 74.1,9 C73.9,9.3 73.6,9.7 73,9.9 L73,10 C73.6,10.1 74.3,10.5 74.8,11.2 C75.1,11.7 75.3,12.1 75.7,12.8 C75.8,13 76,13.3 76.3,13.3 C76.5,13.3 76.6,13.2 76.7,13.2 L76.8,13.2 L76.9,13.3 L76.9,13.4 C76.7,13.6 76.5,13.7 76.1,13.7 C75.4,13.7 74.9,13 74.6,12.5 C74.2,11.8 74,11.3 73.7,10.9 C73.4,10.4 73,10.2 72.5,10.2 L72.5,12.6 C72.5,12.9 72.5,13.1 72.8,13.2 C73,13.3 73.2,13.3 73.3,13.3 C73.4,13.3 73.4,13.4 73.4,13.4 L73.4,13.5 C73.4,13.5 73.4,13.6 73.3,13.6 L72.8,13.6 C72.5,13.6 72.3,13.5 72.1,13.5 L71.4,13.5 L70.9,13.5 C70.8,13.5 70.8,13.4 70.8,13.4 L70.8,13.3 C70.8,13.3 70.8,13.2 70.9,13.2 C71.1,13.2 71.3,13.2 71.4,13.1 C71.6,13 71.7,12.8 71.7,12.5 L71.8,7.9 C71.8,7.6 71.8,7.4 71.5,7.3 C71.3,7.2 71.1,7.2 71,7.2 C70.9,7.2 70.9,7.1 70.9,7.1 L70.9,7 C70.9,7 70.9,6.9 71,6.9 L71.5,6.9 C71.8,6.9 72,7 72.2,7 L72.9,7 L73.4,7 C73.5,7 73.5,7.1 73.5,7.1 L73.5,7.2 C73.5,7.2 73.5,7.3 73.4,7.3 C73.2,7.3 73,7.3 72.9,7.4 C72.7,7.5 72.6,7.7 72.6,8 L72.5,9.9 L72.5,9.9 Z" id="Shape" fill="#FFFFFF"></path>
                <path d="M80.1,11.1 L81.2,11.2 L80.4,8.4 L80.1,8.9 L80.1,8 L80.5,7.3 C80.6,7.2 80.6,7.1 80.7,7.1 C80.8,7.1 80.9,7.3 80.9,7.3 L82.6,13.3 C82.6,13.4 82.7,13.6 82.9,13.7 C83.1,13.8 83.2,13.8 83.3,13.8 C83.4,13.8 83.4,13.9 83.4,13.9 L83.4,14 C83.4,14.1 83.3,14.1 83.2,14.1 C83.1,14.1 83,14.1 82.7,14 C82.5,14 82.4,13.9 82.2,13.9 L81.6,13.9 L81.2,13.9 C81.2,13.9 81,13.9 81,13.8 L81,13.7 C81,13.6 81,13.6 81.1,13.6 L81.5,13.6 C81.7,13.6 81.8,13.5 81.8,13.3 L81.8,13 L81.4,11.5 L80.2,11.4 L80.2,11.1 L80.1,11.1 Z M79.1,11 L80.2,11.1 L80.2,11.5 L78.9,11.4 L78.2,12.8 C78.1,12.9 78.1,13 78.1,13.1 C78.1,13.4 78.4,13.4 78.6,13.4 C78.7,13.4 78.8,13.4 78.8,13.5 L78.8,13.6 C78.8,13.7 78.7,13.7 78.6,13.7 C78.6,13.7 78.5,13.7 78.2,13.6 C78,13.6 77.8,13.5 77.6,13.5 L77.2,13.5 L76.8,13.5 C76.7,13.5 76.6,13.4 76.7,13.4 L76.7,13.3 C76.7,13.2 76.8,13.2 76.9,13.2 C77,13.2 77.2,13.1 77.3,13.1 C77.4,13 77.5,12.9 77.6,12.8 L80.2,8 L80.2,8.9 L79.1,11 L79.1,11 Z" id="Shape" fill="#FFFFFF"></path>
                <path d="M88.6,9.6 C88.7,9 88.1,8.8 87.8,8.8 C87.5,8.7 86.1,8.5 85.8,9.8 C85.7,10.3 85.8,11 87.1,11.3 C87.3,11.3 87.5,11.4 87.7,11.3 L87.8,11.3 L87.8,11.4 L87.7,11.5 C87.4,11.6 86.9,11.9 86.5,12.4 C86,13 86.2,12.8 85.6,13.5 C85.2,14 84.7,14.5 83.9,14.4 C83.6,14.4 83.3,14.2 83.1,13.9 L83.1,13.8 L83.2,13.8 L83.3,13.8 C83.4,13.9 83.6,14 83.7,14 C84,14.1 84.3,13.8 84.6,13.3 C85.2,12.6 85.7,12 87,11.5 L87,11.4 L86.5,11.4 C86.2,11.3 85.6,11.2 85.2,10.7 C84.9,10.3 84.8,9.9 84.9,9.5 C85,9 85.4,8.5 86,8.3 C86.4,8.2 87,8.2 87.5,8.2 C87.7,8.2 87.8,8.3 88.3,8.4 C88.7,8.5 88.9,8.5 89.1,8.6 C89.3,8.6 89.4,8.6 89.7,8.7 L90.2,8.7 C90.3,8.7 90.3,8.8 90.3,8.8 L90.3,8.9 C90.3,8.9 90.3,9 90.2,9 C90,9 89.9,8.9 89.7,9 C89.4,9.1 89.4,9.2 89.3,9.5 L88.5,14.1 C88.5,14.4 88.5,14.6 88.7,14.7 C88.9,14.8 89,14.8 89.2,14.9 C89.3,14.9 89.3,15 89.3,15 L89.3,15.1 C89.3,15.1 89.3,15.2 89.2,15.2 C88.8,15.1 88.6,15 87.6,14.9 C87.1,14.9 87,14.9 86.9,14.8 C86.8,14.8 86.8,14.7 86.8,14.7 L86.8,14.7 C86.8,14.7 86.8,14.6 86.9,14.6 C87.1,14.6 87.2,14.7 87.4,14.6 C87.7,14.5 87.7,14.4 87.8,14.1 L88.6,9.6 L88.6,9.6 Z" id="Shape" fill="#FFFFFF"></path>
                <path d="M101.8,13.2 C101.9,13 101.9,12.8 101.7,12.6 C101.6,12.5 101.4,12.4 101.2,12.4 C101.1,12.4 101.1,12.3 101.1,12.3 L101.1,12.2 C101.1,12.2 101.1,12.1 101.2,12.1 C101.3,12.1 101.4,12.2 101.7,12.3 C102,12.4 102.2,12.5 102.4,12.6 C102.6,12.7 102.8,12.7 103.1,12.8 C103.4,12.9 103.5,12.9 103.6,12.9 C103.7,12.9 103.7,13 103.7,13 L103.7,13.1 C103.7,13.2 103.6,13.2 103.6,13.2 C103.2,13.1 103.1,13.1 103.1,13.1 C102.8,13.1 102.7,13.4 102.7,13.6 L101.2,18 C101.1,18.3 101.1,18.4 101.3,18.6 C101.4,18.7 101.6,18.8 101.8,18.8 C101.9,18.8 101.9,18.9 101.9,18.9 L101.9,19 C101.9,19 101.9,19.1 101.8,19.1 L92.6,16 C92.5,16 92.5,15.9 92.5,15.9 L92.5,15.8 C92.5,15.8 92.5,15.7 92.7,15.7 C92.9,15.8 93.1,15.8 93.2,15.8 C93.4,15.8 93.6,15.6 93.6,15.3 L95.1,10.9 C95.2,10.7 95.2,10.5 95,10.3 C94.9,10.2 94.7,10.1 94.5,10.1 C94.4,10.1 94.4,10 94.4,10 L94.4,9.9 C94.4,9.9 94.4,9.8 94.5,9.8 C94.6,9.8 94.7,9.9 95,10 C95.2,10.1 95.4,10.2 95.7,10.3 C96,10.4 96.1,10.4 96.4,10.5 C96.6,10.6 96.7,10.6 96.9,10.6 C97,10.6 97,10.7 97,10.7 L97,10.8 C97,10.8 97,10.9 96.8,10.9 C96.6,10.8 96.4,10.8 96.3,10.8 C96,10.8 95.9,11 95.9,11.2 L94.3,16.1 L97,17 L98.6,12.1 C98.7,11.9 98.7,11.7 98.5,11.5 C98.4,11.4 98.2,11.3 98,11.3 C97.9,11.3 97.9,11.2 97.9,11.2 L97.9,11.1 C97.9,11.1 97.9,11 98,11 C98.1,11 98.2,11.1 98.5,11.2 C98.8,11.3 99,11.4 99.2,11.5 C99.4,11.6 99.6,11.6 99.9,11.7 C100.2,11.8 100.3,11.8 100.4,11.8 C100.5,11.8 100.5,11.9 100.5,11.9 L100.5,12 C100.5,12 100.5,12.1 100.4,12.1 C100.2,12 100,12 99.9,12 C99.6,12 99.5,12.3 99.5,12.5 L97.9,17.4 L100.6,18.3 L101.8,13.2 L101.8,13.2 Z" id="Shape" fill="#FFFFFF"></path>
                <path d="M105.5,16.9 C106.1,17.1 106.5,16.8 106.8,16.5 L107.8,15.8 C108.6,15.3 109.1,15.4 109.4,15.6 C109.8,15.8 110.1,16.2 109.8,16.6 C109.7,16.9 109.4,17 109.1,16.8 C108.8,16.7 108.7,16.4 108.8,16.1 C108.9,15.9 109,15.9 109.1,15.8 C109.1,15.8 109.1,15.7 109,15.7 C108.8,15.6 108.6,15.7 108.5,15.7 C108,15.9 108,16.2 107.2,16.6 C106.8,16.8 106.4,17 105.8,17 L105.8,17 C106.3,17.4 106.8,18 106.9,18.9 C107,19.5 106.9,19.9 107,20.7 C107,20.9 107.1,21.3 107.4,21.4 C107.5,21.5 107.7,21.5 107.8,21.5 L107.9,21.5 L107.9,21.6 L107.9,21.7 C107.7,21.8 107.4,21.8 107,21.6 C106.3,21.3 106.2,20.5 106.2,19.9 C106.1,19.1 106.1,18.6 106.1,18.1 C106,17.5 105.7,17.2 105.4,17 L104.4,19.1 C104.3,19.3 104.2,19.5 104.4,19.7 C104.5,19.8 104.7,19.9 104.8,20 C104.9,20 104.9,20.1 104.9,20.2 L104.9,20.2 C104.9,20.2 104.8,20.3 104.7,20.2 C104.6,20.1 104.5,20.1 104.3,20 C104,19.8 103.8,19.7 103.7,19.6 C103.5,19.5 103.3,19.4 103,19.3 C102.8,19.2 102.7,19.2 102.5,19.1 C102.4,19 102.4,19 102.4,18.9 L102.4,18.8 C102.4,18.8 102.5,18.7 102.6,18.8 C102.8,18.9 102.9,19 103.1,19 C103.4,19 103.5,18.9 103.6,18.6 L105.6,14.4 C105.7,14.2 105.8,14 105.6,13.8 C105.5,13.7 105.3,13.6 105.2,13.5 C105.1,13.5 105.1,13.4 105.1,13.3 L105.1,13.3 C105.1,13.3 105.2,13.2 105.3,13.3 C105.4,13.4 105.5,13.4 105.7,13.5 C106,13.7 106.2,13.8 106.3,13.9 C106.5,14 106.7,14.1 107,14.2 C107.2,14.3 107.3,14.3 107.5,14.4 C107.6,14.4 107.6,14.5 107.6,14.6 L107.6,14.6 C107.6,14.6 107.5,14.7 107.4,14.6 C107.2,14.5 107.1,14.4 106.9,14.4 C106.6,14.4 106.5,14.5 106.4,14.8 L105.5,16.9 L105.5,16.9 Z" id="Shape" fill="#FFFFFF"></path>
                <path d="M112.6,24.2 C113,24.1 113.4,24 113.8,23.6 C114.1,23.3 114.4,23 114.7,22.6 C114.9,22.2 115.1,21.8 115.2,21.4 C115.5,20 114.8,19.1 114.2,18.7 C113.9,18.5 113.3,18.2 112.5,18.4 L112.5,17.9 C113.1,17.9 113.8,18.1 114.3,18.5 C115.3,19.2 116,20.4 115.8,21.7 C115.8,22.2 115.5,22.8 115.2,23.3 C114.9,23.8 114.4,24.2 113.9,24.5 C113.5,24.7 113,24.9 112.3,24.9 L112.3,24.2 L112.6,24.2 Z M111.4,19 C111.1,19.3 110.7,19.6 110.5,20 C110.3,20.4 110.1,20.8 110,21.2 C109.6,22.8 110.5,23.6 111,23.9 C111.3,24.1 111.9,24.4 112.6,24.3 L112.6,24.9 C112.1,24.9 111.5,24.7 110.8,24.3 C109.4,23.4 109.1,22.3 109.1,21.3 C109.1,20.7 109.4,20.2 109.7,19.7 C110,19.2 110.4,18.8 110.9,18.5 C111.4,18.2 112,18 112.6,18 L112.6,18.5 C112.3,18.5 111.9,18.7 111.4,19 L111.4,19 Z" id="Shape" fill="#FFFFFF"></path>
                <path d="M119,30.2 C118.9,30.3 118.8,30.2 118.8,30.1 C118.7,30 118.6,29.9 118.5,29.8 C118.4,29.7 118.3,29.5 118.2,29.5 C118.1,29.4 117.9,29.3 117.7,29.1 C117.5,29 117.5,28.9 117.4,28.9 C117.4,28.9 117.3,28.8 117.3,28.7 L117.3,28.7 C117.4,28.6 117.5,28.7 117.6,28.8 C117.8,28.9 118,29 118.2,28.8 C118.2,28.8 118.3,28.7 118.3,28.6 L119.9,24.2 L115.7,26.5 C115.7,26.5 115.5,26.6 115.5,26.7 C115.3,26.9 115.5,27.1 115.7,27.3 C115.8,27.3 115.8,27.4 115.8,27.5 L115.8,27.5 C115.7,27.6 115.7,27.5 115.6,27.5 C115.5,27.5 115.5,27.4 115.3,27.2 C115.1,27 115,26.9 114.9,26.8 C114.8,26.7 114.7,26.7 114.5,26.5 C114.3,26.4 114.3,26.4 114.2,26.3 C114.1,26.2 114.1,26.2 114.2,26.1 L114.2,26.1 C114.3,26 114.2,26 114.4,26.1 C114.5,26.2 114.7,26.2 114.8,26.2 C114.9,26.2 115.1,26.1 115.2,26.1 L120.7,23.4 L120.9,23.3 L121,23.4 L121,23.6 L118.9,29.4 C118.8,29.7 118.9,29.8 118.9,29.9 C119,30.1 119,30 119.1,30.2 C119.1,30.1 119.1,30.1 119,30.2 L119,30.2 L119,30.2 Z" id="Shape" fill="#FFFFFF"></path>
                <path d="M123.8,31.6 L123.8,31.6 L125.2,29 L123.8,29.5 L123.8,29 L125.9,28.3 C126,28.3 126.1,28.2 126.2,28.3 C126.3,28.4 126.2,28.5 126.2,28.6 L123.8,33.2 L123.8,31.6 L123.8,31.6 Z M122.4,30 L123.8,31.6 L123.8,33.3 L123.3,34.2 C123.3,34.3 123.2,34.5 123.2,34.6 C123.2,34.8 123.3,34.8 123.4,34.9 L123.4,35 L123.4,35 C123.3,35.1 123.3,35 123.2,34.9 C123.1,34.8 123,34.7 122.9,34.5 C122.8,34.3 122.7,34.2 122.6,34.1 C122.5,34 122.3,33.9 122.2,33.7 C122.1,33.6 122,33.5 121.9,33.4 C121.9,33.4 121.8,33.3 121.9,33.2 L121.9,33.2 L122,33.2 C122.1,33.3 122.1,33.3 122.3,33.4 C122.4,33.5 122.6,33.5 122.7,33.4 C122.8,33.3 122.8,33.3 122.9,33.2 L123.6,31.8 L122,29.9 L120.5,30.4 C120.3,30.4 120.3,30.5 120.2,30.5 C120,30.7 120.2,30.9 120.3,31.1 C120.3,31.1 120.4,31.2 120.3,31.3 L120.3,31.3 C120.2,31.4 120.2,31.3 120.1,31.3 C120.1,31.3 120,31.2 119.9,31 C119.8,30.8 119.7,30.7 119.6,30.5 C119.5,30.4 119.5,30.4 119.3,30.2 C119.2,30.1 119.1,30 119,29.9 C118.9,29.8 118.9,29.7 119,29.7 L119,29.7 C119.1,29.6 119.1,29.7 119.2,29.7 C119.3,29.8 119.5,29.9 119.6,29.9 L120,29.9 L123.7,28.7 L123.7,29.2 L122.4,30 L122.4,30 Z" id="Shape" fill="#FFFFFF"></path>
                <path d="M73.5,3 L73.5,3 C92.7,3 110.1,8.6 122.7,17.6 C135.4,26.7 143.3,39.3 143.3,53.2 L143.3,53.2 C143.3,67.1 135.4,79.7 122.7,88.8 C110.1,97.8 92.7,103.4 73.5,103.4 L73.5,103.4 L73.5,101.3 C92.2,101.3 109.2,95.9 121.5,87.1 C133.7,78.4 141.2,66.5 141.2,53.3 L141.2,53.3 C141.2,40.1 133.7,28.2 121.5,19.5 C109.2,10.7 92.3,5.3 73.5,5.3 L73.5,5.3 L73.5,3 L73.5,3 Z M73.5,103.3 L73.5,103.3 C54.3,103.3 36.9,97.7 24.3,88.7 C11.6,79.6 3.7,67 3.7,53.1 L3.7,53.1 C3.7,39.2 11.6,26.6 24.3,17.5 C36.9,8.5 54.3,2.9 73.5,2.9 L73.5,2.9 L73.5,5 C54.8,5 37.8,10.4 25.5,19.2 C13.3,27.9 5.8,39.8 5.8,53 L5.8,53 C5.8,66.2 13.3,78.1 25.5,86.8 C37.8,95.6 54.7,101 73.5,101 L73.5,101 L73.5,103.3 L73.5,103.3 Z" id="Shape" fill="#FFFFFF"></path>
                <path d="M87,50.5 C87.1,50.8 87.1,51.2 87.1,51.5 L87,51.5 L87,54.7 C87.6,54.7 88.3,54.6 89,54.4 C89.7,54.1 90.5,53.7 91.4,53 C92,52.6 92.4,52.1 92.8,51.6 C93.2,51.1 93.5,50.5 93.7,50 C93.9,49.4 94.1,48.8 94.1,48.3 C94.2,47.7 94.2,47.1 94.1,46.6 L94.1,46.4 C94.1,46.3 94.1,46.2 94,46.2 C93.9,46 93.9,45.9 93.7,45.7 C93.6,45.5 93.5,45.4 93.3,45.3 C93.1,45.1 92.9,45 92.7,44.9 C92.5,44.8 92.3,44.7 92,44.7 L91.3,44.7 C91.1,44.7 90.9,44.8 90.7,44.9 C90.5,45 90.3,45.2 90.2,45.4 C90.1,45.6 90,45.8 90,46 L90,46.5 C90,46.6 90.1,46.8 90.1,46.9 C90.2,47 90.2,47.1 90.3,47.2 C90.4,47.3 90.5,47.4 90.6,47.5 L90.6,47.5 C90.6,47.5 90.7,47.5 90.7,47.6 L90.7,47.6 C90.7,47.6 90.7,47.6 90.7,47.7 C89.7,47.5 88.8,47.2 88,46.7 C87.4,46.4 86.9,46 86.5,45.7 L86.5,50.5 L87,50.5 L87,50.5 Z M87,42.3 L87,38.3 L87.1,38.3 C87.4,38.3 87.6,38.4 87.9,38.5 C88.1,38.6 88.4,38.8 88.5,39 C88.7,39.2 88.8,39.4 88.9,39.7 C89,39.9 89,40.2 89,40.5 C89,40.8 88.9,41 88.8,41.3 C88.7,41.5 88.5,41.7 88.3,41.9 C88.1,42 88,42.2 87.8,42.2 C87.6,42.3 87.4,42.3 87.2,42.4 C87.1,42.3 87.1,42.3 87,42.3 L87,42.3 Z M80.4,44.6 L61.5,63.6 C61.4,63.7 61.4,63.7 61.3,63.8 C60.8,64.3 60.3,64.8 60.2,65.5 C60.2,65.7 60.2,65.9 60.3,66.1 C60.4,66.3 60.5,66.5 60.7,66.6 L60.8,66.7 C61,66.8 61.1,66.9 61.3,67 C61.5,67.1 61.8,67.1 62,67 C62.1,67 62.2,66.9 62.4,66.9 C62.5,66.9 62.6,66.8 62.7,66.7 C63,66.5 63.2,66.3 63.4,66.1 L63.5,66 L82.7,46.9 C83.2,47.3 83.7,47.2 84.2,46.8 C84.6,47.1 84.9,47.4 85.2,47.7 C85.6,48.1 86,48.6 86.3,49.1 L86.3,49.1 C86.6,49.6 86.8,50 87,50.5 L87,50.6 L87,45.5 C86.7,45.2 86.5,45 86.3,44.8 L86.5,44.6 C86.9,44.2 86.8,43.5 86.4,43.1 L86.4,43.1 L84.1,40.9 C83.7,40.5 83.1,40.5 82.7,41 L82.7,41 L80.6,43.1 C80.6,43.1 80.6,43.1 80.5,43.2 C80.1,43.4 79.9,44 80.4,44.6 L80.4,44.6 L80.4,44.6 Z M87,51.5 L87,54.7 L86.8,54.7 C86.5,54.7 86.3,54.6 86,54.5 C85.7,54.4 85.5,54.3 85.3,54.2 L85.3,54.2 C85.1,54.1 84.9,53.9 84.7,53.8 C84.5,53.6 84.4,53.5 84.2,53.3 C84,53 83.9,52.8 83.8,52.5 C83.7,52.2 83.6,52 83.6,51.7 C83.6,51.4 83.7,51.2 83.8,50.9 L83.8,50.9 C83.9,50.6 84.1,50.4 84.3,50.2 C84.5,50 84.7,49.9 85,49.8 C85.2,49.7 85.5,49.7 85.8,49.8 C85.9,49.8 86.1,49.9 86.2,50 C86.3,50.1 86.4,50.2 86.5,50.3 C86.6,50.4 86.7,50.6 86.8,50.8 C86.9,51 86.9,51.2 86.9,51.4 L86.9,51.4 C86.9,51.4 86.9,51.4 87,51.5 C87,51.4 87,51.4 87,51.5 L87,51.5 C87,51.4 87,51.5 87,51.5 L87,51.5 L87,51.5 Z M87,38.2 L87,42.2 L86.9,42.2 L86.6,42.2 C86.4,42.2 86.2,42.1 86,42 C85.8,41.9 85.6,41.7 85.5,41.6 C85.3,41.4 85.2,41.2 85.1,40.9 C85,40.7 85,40.4 85,40.1 C85,39.8 85.1,39.6 85.2,39.3 C85.3,39.1 85.5,38.8 85.7,38.7 C85.9,38.5 86.1,38.4 86.4,38.3 C86.6,38.3 86.8,38.2 87,38.2 L87,38.2 Z" id="Shape" fill="#FFFFFF"></path>
                <path d="M86.4,45.2 C87.2,46 88.7,47.2 90.9,47.6 C91,48.4 90.9,49 90.8,49.5 C90.6,50.1 90.3,50.5 89.9,50.8 C89.5,51.1 89,51.3 88.6,51.3 C88.1,51.4 87.7,51.4 87.3,51.3 C87.4,50.6 87.1,49.7 86.5,48.8 C86.4,48.7 86.4,48.6 86.3,48.5 L86.3,49.5 C86.3,49.6 86.4,49.6 86.4,49.7 L86.3,49.7 L86.3,50.3 C86.6,50.6 86.8,51 86.7,51.4 C86.7,51.5 86.7,51.6 86.8,51.6 C86.9,51.7 87.1,51.7 87.2,51.8 C87.6,51.9 88.2,51.9 88.7,51.8 C89.2,51.7 89.8,51.5 90.3,51.2 C90.8,50.8 91.2,50.3 91.4,49.7 C91.6,49.1 91.7,48.3 91.5,47.4 C91.5,47.3 91.4,47.2 91.4,47.2 C91.1,47.1 90.9,47.1 90.7,46.7 C90.6,46.5 90.5,46.2 90.6,45.9 C90.6,45.5 90.9,45.2 91.2,44.9 C91.5,44.7 91.9,44.6 92.4,44.7 C92.8,44.7 93.2,44.9 93.5,45.2 C93.8,45.5 94,45.9 94.1,46.1 C94.2,46.3 94.2,46.4 94.2,46.6 C94.3,47.5 94.3,48.7 93.8,49.9 C93.4,50.9 92.7,52 91.5,52.8 C89.7,54.2 88.2,54.6 87,54.5 C86.8,54.5 86.6,54.4 86.4,54.4 L86.4,55 C86.6,55 86.7,55.1 86.9,55.1 C88.2,55.2 89.9,54.8 91.8,53.3 C93.1,52.3 93.8,51.2 94.3,50.1 C94.9,48.7 94.9,47.3 94.7,46.3 C94.7,46.2 94.7,46.1 94.6,46 C94.5,45.7 94.3,45.2 93.9,44.7 C93.7,44.5 93.5,44.3 93.2,44.2 C92.8,44 92.3,43.9 91.8,44 C91.5,44 91.2,44.2 90.9,44.3 C90.4,44.6 90.1,45.1 90,45.7 C90,46.1 90,46.5 90.2,46.8 C88.6,46.3 87.5,45.4 86.9,44.8 L86.9,44.8 C87.2,44.5 87.3,44.2 87.3,43.8 C87.3,43.5 87.2,43.2 87,43 C86.9,42.9 86.9,42.9 86.8,42.8 L86.5,42.5 C86.6,42.5 86.6,42.5 86.7,42.6 L87.2,42.6 C87.7,42.6 88.2,42.4 88.6,42 C89,41.6 89.3,41.1 89.4,40.4 C89.4,39.8 89.2,39.2 88.8,38.8 C88.4,38.4 87.9,38.1 87.2,38 C86.9,38 86.6,38 86.3,38.1 L86.3,38.5 C86.6,38.4 86.9,38.3 87.2,38.3 C87.7,38.3 88.2,38.6 88.5,38.9 C88.8,39.3 89,39.7 89,40.3 C89,40.8 88.7,41.3 88.4,41.6 C88.1,41.9 87.7,42 87.3,42.1 L86.8,42.1 C86.7,42.1 86.5,42 86.4,42 L86.4,43 C86.5,43.1 86.6,43.2 86.6,43.3 C86.7,43.4 86.7,43.6 86.7,43.8 C86.7,44 86.6,44.2 86.5,44.3 C86.5,44.4 86.4,44.4 86.3,44.5 L86.3,45.2 L86.4,45.2 L86.4,45.2 Z M86.3,41.1 L86.3,39.4 C86.5,39.2 86.8,39.1 87.1,39.1 C87.7,39.1 88.2,39.7 88.2,40.3 C88.2,40.9 87.6,41.4 87,41.4 C86.7,41.4 86.5,41.3 86.3,41.1 L86.3,41.1 Z M86.3,48.5 C86.1,48.3 85.9,48 85.7,47.8 L85.7,48.6 C85.8,48.8 85.9,48.9 86,49.1 C86.1,49.2 86.2,49.4 86.2,49.5 L86.2,48.5 L86.3,48.5 L86.3,48.5 Z M85.7,45.9 L86.3,45.3 L86.3,44.6 C86.2,44.8 85.9,45 85.7,45.2 L85.7,45.9 L85.7,45.9 Z M86.3,38.1 L86.3,38.5 C86.1,38.6 85.9,38.7 85.8,38.8 C85.8,38.8 85.8,38.8 85.7,38.9 L85.7,38.4 C85.9,38.3 86.1,38.2 86.3,38.1 L86.3,38.1 L86.3,38.1 Z M86.3,39.4 L86.3,41.1 C86,40.9 85.9,40.5 85.9,40.2 C85.9,39.9 86,39.6 86.3,39.4 L86.3,39.4 L86.3,39.4 Z M86.3,42 L86.3,43 L85.7,42.4 L85.7,41.5 C85.9,41.7 86.1,41.9 86.3,42 L86.3,42 L86.3,42 Z M86.3,49.6 L86.3,50.2 C86.2,50.1 86.1,50.1 86,50 C85.9,50 85.9,49.9 85.8,49.9 L85.8,49.9 L85.8,49.4 L85.9,49.4 C86,49.5 86.1,49.5 86.3,49.6 L86.3,49.6 L86.3,49.6 Z M86.3,54.4 L86.3,55 C86.1,55 85.9,54.9 85.7,54.8 L85.7,54.2 C85.9,54.3 86.1,54.4 86.3,54.4 L86.3,54.4 Z M85.7,47.8 C85.6,47.7 85.4,47.5 85.3,47.4 L85.3,48.1 C85.4,48.3 85.6,48.4 85.7,48.6 L85.7,47.8 L85.7,47.8 Z M85.3,46.3 L85.7,45.9 L85.7,45.2 C85.6,45.3 85.4,45.5 85.3,45.6 L85.3,46.3 L85.3,46.3 Z M85.7,38.4 L85.7,38.9 C85.5,39.1 85.4,39.3 85.3,39.5 L85.3,38.7 C85.4,38.6 85.4,38.5 85.5,38.5 C85.6,38.5 85.6,38.4 85.7,38.4 L85.7,38.4 L85.7,38.4 Z M85.7,41.6 L85.7,42.5 L85.3,42.1 L85.3,41 C85.4,41.2 85.5,41.3 85.7,41.6 C85.6,41.5 85.7,41.6 85.7,41.6 L85.7,41.6 L85.7,41.6 Z M85.7,49.4 L85.7,50 L85.3,50 L85.3,49.5 C85.4,49.4 85.6,49.4 85.7,49.4 L85.7,49.4 L85.7,49.4 Z M85.7,54.2 L85.7,54.8 C85.6,54.7 85.4,54.7 85.3,54.6 L85.3,54 L85.4,54.1 C85.5,54.1 85.6,54.2 85.7,54.2 L85.7,54.2 L85.7,54.2 Z M85.3,44.2 L85.3,43.4 C85.5,43.6 85.5,44 85.3,44.2 L85.3,44.2 Z M85.3,47.4 C85.2,47.3 85.2,47.3 85.1,47.2 L85.1,47.9 C85.2,48 85.2,48 85.3,48.1 L85.3,47.4 L85.3,47.4 Z M85.1,46.5 L85.3,46.3 L85.3,45.5 L85.1,45.7 L85.1,46.5 L85.1,46.5 Z M85.3,38.8 L85.3,39.6 C85.2,39.8 85.2,40 85.2,40.2 C85.2,40.5 85.2,40.8 85.3,41 L85.3,42.1 L85.1,41.9 L85.1,39.1 C85.1,39 85.2,38.9 85.3,38.8 L85.3,38.8 L85.3,38.8 Z M85.3,43.4 L85.3,44.2 L85.3,44.2 L85.1,44.4 L85.1,43.2 L85.3,43.4 L85.3,43.4 L85.3,43.4 L85.3,43.4 Z M85.3,49.4 L85.3,49.9 L85.1,49.9 L85.1,49.4 L85.3,49.4 L85.3,49.4 L85.3,49.4 Z M85.3,54 L85.3,54.6 C85.3,54.6 85.2,54.5 85.1,54.5 C85.1,54.5 85.1,54.5 85,54.5 L85,53.9 C85.1,53.9 85.2,54 85.3,54 L85.3,54 Z M85.1,47.2 C85,47.1 84.9,47 84.7,46.9 L85.1,46.5 L85.1,45.7 C84.6,46.2 84.2,46.6 84,46.7 C83.6,47.1 83,46.9 82.9,46.7 L82,45.8 L82,46.6 L82.4,47 L82,47.4 L82,48.2 L82.9,47.3 C83.1,47.4 83.3,47.5 83.6,47.5 C83.9,47.5 84.2,47.4 84.5,47.2 C84.8,47.4 85,47.6 85.2,47.8 L85.2,47.2 L85.1,47.2 L85.1,47.2 Z M85.1,39.1 L85.1,41.9 L84.1,40.9 C83.9,40.7 83.7,40.7 83.5,40.7 C83.3,40.7 83.2,40.8 83,40.9 C82.9,41 82.9,41 82.8,41.1 L82,41.9 L82,41 L82.4,40.6 C82.5,40.5 82.5,40.4 82.6,40.4 C82.9,40.2 83.2,40.1 83.5,40.1 C83.8,40.1 84.2,40.2 84.5,40.5 L84.9,40.9 C84.8,40.7 84.8,40.4 84.8,40.2 C84.8,39.7 84.9,39.4 85.1,39.1 L85.1,39.1 L85.1,39.1 Z M85.1,43.2 L85.1,44.4 L83.9,45.6 C83.7,45.8 83.3,45.8 83,45.6 L81.9,44.5 L81.9,43.1 L83,42 C83.2,41.8 83.6,41.8 83.9,42 L85.1,43.2 L85.1,43.2 Z M85.1,49.4 L85.1,50 C84.9,50.1 84.6,50.2 84.4,50.4 C84,50.7 83.8,51.3 83.8,51.7 C83.8,52.1 84,52.7 84.4,53.2 C84.6,53.4 84.8,53.7 85.1,53.9 L85.1,54.5 C84.7,54.2 84.3,53.9 84,53.5 C83.5,52.9 83.3,52.2 83.3,51.6 C83.3,51 83.6,50.3 84,49.9 C84.3,49.7 84.7,49.5 85.1,49.4 L85.1,49.4 Z M81.9,41 L81.9,41.8 L81.3,42.4 L81.3,41.6 L81.9,41 L81.9,41 Z M81.9,43.1 L81.9,44.5 L81.6,44.2 C81.4,44 81.4,43.6 81.6,43.3 L81.9,43.1 L81.9,43.1 Z M81.9,45.8 L81.9,46.6 L81.7,46.4 L81.2,46.9 L81.2,45.2 L81.9,45.8 L81.9,45.8 Z M81.9,47.5 L81.9,48.3 L81.3,48.9 L81.3,48.1 L81.9,47.5 L81.9,47.5 Z M81.3,41.6 L81.3,42.4 L80.7,43 C80.6,43.1 80.4,43.3 80.3,43.4 C80.2,43.5 80.2,43.7 80.2,43.8 C80.2,43.9 80.2,44.1 80.3,44.2 C80.4,44.3 80.5,44.5 80.6,44.6 L81.2,45.2 L81.2,46.9 L62.6,65.5 C62.3,65.8 61.9,65.8 61.7,65.5 C61.4,65.2 61.4,64.8 61.7,64.5 L80.8,45.4 L80.3,44.9 L80.2,44.8 L61.6,63.5 C61.1,64 60.5,64.5 60.4,65.3 C60.4,65.7 60.5,66 60.8,66.4 L60.8,66.4 C61.2,66.8 61.6,66.8 62,66.8 C62.2,66.8 62.4,66.7 62.7,66.5 C63,66.3 63.3,66 63.5,65.8 L81.3,48 L81.3,48.8 L63.8,66.3 C63.3,66.8 62.8,67.2 62.1,67.4 C61.8,67.5 61.5,67.4 61.1,67.3 C60.8,67.2 60.6,67 60.4,66.8 C60.1,66.5 59.9,66.1 59.9,65.8 L59.9,65.4 C60,64.8 60.3,64.2 60.7,63.8 L79.9,44.5 C79.8,44.3 79.7,44.1 79.7,43.8 C79.7,43.6 79.8,43.3 79.9,43.1 C80,42.9 80.2,42.7 80.3,42.6 L81.3,41.6 L81.3,41.6 Z" id="Shape" fill="#DA2128"></path>
                <path d="M86.5,45.8 C86.5,45.8 88.3,47.7 90.5,48 C90.7,49.1 90.4,49.8 89.9,50.2 C89.2,50.9 88.3,51 87.6,50.8 C87.8,49.8 86.7,47.8 85.3,46.9 L86.5,45.8 L86.5,45.8 Z" id="Shape" fill="#DA2128"></path>
                <path d="M84.9,52.8 C84.8,52.7 84.8,52.5 84.8,52.4 C84.9,52.3 85.1,52.3 85.2,52.3 C85.2,52.3 85.8,53.1 87,53.2 C88.1,53.3 89.7,52.8 91.2,51.4 C92.1,50.5 92.7,49.5 92.9,48.6 C93.2,47.4 93,46.5 92.6,46 C92.5,45.9 92.5,45.7 92.6,45.6 C92.7,45.5 92.9,45.5 93,45.6 C93.5,46.2 93.7,47.4 93.3,48.7 C93.1,49.7 92.5,50.8 91.5,51.8 C89.9,53.4 88.1,53.9 86.9,53.8 C85.5,53.7 84.9,52.8 84.9,52.8 L84.9,52.8 Z" id="Shape" fill="#DA2128"></path>
            </g>
        </g>
    </g>
</svg>