<svg width="147" height="108" viewBox="0 0 147 108" xmlns="http://www.w3.org/2000/svg" xmlns:sketch="http://www.bohemiancoding.com/sketch/ns"><title>logo</title><defs><linearGradient x1="49.97%" y1="100.005%" x2="49.97%" y2=".046%" id="a"><stop stop-color="#2C2D57" offset="0%"/><stop stop-color="#005AA9" offset="100%"/></linearGradient></defs><g sketch:type="MSShapeGroup" fill="none"><path d="M73.5 107.7c40.3 0 73.2-24.1 73.2-53.6s-32.9-53.6-73.2-53.6c-40.3 0-73.2 24.1-73.2 53.6-.1 29.6 32.8 53.6 73.2 53.6z" id="Shape" fill="#DA2128"/><path d="M73.5 106c39.4 0 71.5-23.3 71.5-51.9 0-28.6-32.1-51.9-71.5-51.9s-71.5 23.3-71.5 51.9c-.1 28.6 32.1 51.9 71.5 51.9z" id="Shape" fill="url(#a)"/><path d="M94.4 54.4c5.1 0 5.7-8 5.7-8h-10.9v2.5h-10v-10h2.5v-10.9s-7.9.6-7.9 5.7c0-5.1-8-5.7-8-5.7v10.9h2.5v10h-10v-2.5h-10.9s.6 8 5.7 8c-5.1 0-5.7 7.9-5.7 7.9h10.9v-2.5h10v10.1h-2.5v10.9s8-.6 8-5.7c0 5.1 7.9 5.7 7.9 5.7v-10.9h-2.5v-10.1h10v2.5h10.9s-.6-7.9-5.7-7.9z" id="Shape" fill="#DA2128"/><path d="M94.4 53.8c3.8 0 4.9-5.1 5.1-6.9h-9.7v2.5h-11v-11h2.4v-9.7c-1.7.2-6.8 1.3-6.8 5.1h-.6v-2.3.1c1.8-3.5 7.8-4 7.9-4l.6-.1v11.9h-2.4v9h8.9v-2.5h12v.6s-.5 6.1-4 7.9c3.6 1.8 4 7.9 4 7.9v.6h-12v-2.5h-8.9v9.1h2.4v12h-.6s-6-.5-7.9-4v.1-2.6h.6c0 3.8 5.1 4.9 6.8 5.1v-9.7h-2.4v-11.1h11v2.5h9.7c-.2-1.7-1.3-6.8-5.1-6.8v-1.2zm-20.6-20.1h-.5c0-3.8-5.2-4.9-6.9-5.1v9.7h2.5v11h-11v-2.5h-9.7c.2 1.8 1.3 6.9 5.1 6.9v1.1c-3.8 0-4.9 5.1-5.1 6.8h9.7v-2.4h11v11.1h-2.5v9.7c1.8-.2 6.9-1.3 6.9-5.1h.5v2.3c-1.9 3.5-7.9 4-7.9 4h-.6v-11.799999999999999h2.5v-9.1h-8.9v2.5h-12v-.6s.5-6 4-7.9c-3.5-1.8-4-7.9-4-7.9v-.6h12v2.5h8.9v-9h-2.5v-11.9l.6.1s6 .5 7.9 4v2.2zM40.8 53.9c0 .2-.3.1-.4.2.1.2 0 .5-.1.7h-.5v2c.3-.2.3-.7.7-.8 0-.9.7-1 1.1-1.4.3-1.4-.1-2.3-.4-3.7-.2-.5-.9-.7-1.4-.6v1.6c.5.1.8.5 1 1 .1.2.1.6 0 1zm-1.1.9c-.2 0-.5 0-.6-.1.3-.8.4-2.1-.5-2.3.2-.3.3-.6.7-.7.1 0 .3 0 .4.1v-1.6h-.1c-.3.1-.5.3-.7.5-.4.3-1.3.8-1.7.9-.5.1-1.2-.1-1.4-.5-.1-.4-.4-1.3-1-1.8-.6-.4-1.7-.8-2.1-.9-1-.3-2.1-1.3-2.8-2-.2-.2-.6-1.4-.2-1.5.2.2.5.3.8.4.3.1 1 0 1.3 0h.9c.4 0 .6 0 .9.1.1.1.4.4.6.3.1-.1.7 0 .6-.3v-.1c.1.1.2.1.5.1.5-.1.3-.7.3-.9 0-.4-.9-1.1-1.1-1.3-.3-.3-3.3-1.6-3.5-1.8-.1 0-.2-.5-.6-.7-.6-.4-1.6 0-1.6-.5 0-.1-.1-.6-.3-.7-.2-.1-.3-.3-.3-.3s-.3.2-.3.6c0 .3 0 .4.2.6-.2 0-.3-.1-.3-.1-.4-.1-.8-.4-1-.3-.1.7.4.8.6 1.2-.8 0-1.7.8-1.9 1.3.1 0 .7-.2.7-.1-.5.3-.4.5-1.4.6 0 .2.3.4.4.5-.3.2-.5.5-.8.8.2.1.5-.2.6-.1-.7.4-.9.8-1.2 1.2 0 .2 1-.7 1.1-.4-.5.1-1.4.8-1.3 1.4.2-.3.8-.4.7-.3-.4.4-1.1 1-1.4 1.4.1 0 .3 0 .3.1-.1.5-.5.4-.5 1.4.2-.4.2-.6.5-.5l-.5.9.8-.6c-.2.3-.5.8-.6 1.2l1-.9c-.3.4-.5 1.2-.5 1.9.6-.8.9-1.1 1.5-1.5-1 1-.8 1-1.3 1.8.3.1.9-.9.9-.4-.4.2-.7.7-.8.9.1 0 .5-.5.6-.3l-.3 1.7c.4-.1.3-1.5.6-1.4-.1 1 .5 1.4.3 2.1.3 0 .5-1.3.5-1.1.3.7.1 1.3-.2 1.9-.4.6-.8 1.2-1.4 1.9-.8 1-3.7 2.2-4.5 3l-.1.1v6.9c.2.3.3.6.4 1v.7c-.2 0-.3-.3-.3-.5v.4l.2.3c-.1.1-.1.2-.1.3 0 0-.1 0-.1-.1v5.8c.1.3.1.7 0 1.1.4.1.6.3.7.6-.2.2 0 .5.1.8.4.1 1.3.2 1.8 0-.1-.7-.4-1.1-1.1-1.3l-.6-1.4c-.2-.7-.2-1.6-.1-2.1.1-.7.6-1.3.7-1.9.5-.2.8-.5 1.1-.9.5 1.4-1.4 1.3-.9 2.4.4.7 1.2 1.2 1.6 2.1.4.8.6 1.5.9 2.4l.1.4c.5 0 .7.3 1.1.5-.1.4.3.3.2.6h1.9c-.1-.6-.6-.9-1-1.2-.2 0-.4 0-.5-.1-.4-.8-1.6-3.1-1.7-3.3-.6-1.1-.2-1.5.1-2 .2-.7 1-.9 1.8-2 .1-.2.2-.5.4-.7.1-.1 1.2-1.1 1.4-2.1.3-.9.1-2.2-.8-3.3.7-1 4.3-2.2 5.8-3.7 1.8-1.8 2.2-4.3 3.1-4.3.6.3.8 0 1.2-.3.6-.5 1.1-1.5 1.7-1.4.4.3.6.8.3 1.6-.3.5-.6 1-1.2 1l.1.5c-.4.3-.7-.3-1.3-.1v2.1l1.4-.8.6-.8c.3-.3.9-.2 1.1-.6.3 0 .4.2.6.4h.1v-1.9h-.3zm-20.5 5.1v6.9c-.3-.6-.8-1.1-1.2-1.7-.1-.3-.4-1-.8-.7-.5.8 1.1 2.2 1.4 2.5l.6 1v.4c-.1-.1-.1-.1-.2-.1 0 .2.1.5.2.7v5.8c-.1-.3-.2-.6-.4-.8-.1 1-.9 2.6-3.5 2.7 1.3-.8 1.4-3 1.3-4.7-.1-.1-.3.9-.4.9l.1-1.7-.3 1.1c-.2-.5.2-1.7 0-2.1-.2-.1-.2.8-.3.8l.1-1.4c-.1-.1-.1.6-.3.8 0-.2-.3-1.1-.3-1.4 0-.4.4-1.2 0-1.5 0 .4-.1 1-.3 1.1l-.2-3c.1-.3.5-2.2 1.7-2.2.3 0 .7.3.9.3.3-.1.3-.3.5-.5-.1-.1-.1-1.5 1.4-3.2zM128.4 66.9l-.6 1v.4c.1-.1.1-.1.2-.1 0 .2-.1.5-.2.7v5.8c.1-.3.2-.6.4-.8.1 1 .9 2.6 3.5 2.7-1.3-.8-1.4-3-1.3-4.7.1-.1.3.9.4.9l-.1-1.7.3 1.1c.2-.5-.2-1.7 0-2.1.2-.1.2.8.3.8l-.1-1.4c.1-.1.1.6.3.8 0-.2.3-1.1.3-1.4 0-.4-.4-1.2 0-1.5 0 .4.1 1 .3 1.1l.2-3c-.1-.3-.5-2.2-1.7-2.2-.3 0-.7.3-.9.3-.3-.1-.3-.3-.5-.5 0-.1 0-1.5-1.5-3.2v6.9c.3-.6.8-1.1 1.2-1.7.1-.3.4-1 .8-.7.6.9-1.1 2.2-1.3 2.5zm-.6 1c-.1.2-.1.5-.4.5-.1-.2 0-.5 0-.7.1-.4.2-.7.4-1v-6.9l-.1-.1c-.7-.8-3.6-2-4.5-3-.6-.7-1-1.3-1.4-1.9-.3-.6-.5-1.2-.2-1.9.1-.1.2 1.1.5 1.1-.2-.7.5-1.1.3-2.1.3-.1.2 1.2.6 1.4 0-.5-.3-1.8-.3-1.7.1-.2.5.3.6.3-.1-.2-.4-.7-.8-.9 0-.5.6.4.9.4-.5-.7-.2-.8-1.3-1.8.6.4.9.8 1.5 1.5 0-.7-.2-1.5-.5-1.9.4-.1.4.8 1 .9l-.6-1.2c.2-.1.5.6.8.6-.1-.2-.4-.6-.5-.9.3-.1.4.1.5.5 0-1-.3-.9-.5-1.4 0-.1.2-.1.3-.1-.3-.4-1-1.1-1.4-1.4 0-.1.5 0 .7.3.1-.5-.8-1.3-1.3-1.4.1-.3 1.1.5 1.1.4-.3-.5-.4-.8-1.2-1.2l.6.1c-.2-.2-.5-.6-.8-.8 0-.1.4-.3.4-.5-1-.1-.9-.3-1.4-.6 0-.1.6.1.7.1-.2-.5-1.1-1.3-1.9-1.3.2-.4.7-.6.6-1.2-.2-.1-.7.3-1 .3 0 0-.1 0-.3.1.2-.2.2-.3.2-.6s-.3-.6-.3-.6-.2.1-.3.3c-.2.1-.3.6-.3.7 0 .4-1 .1-1.6.5-.4.3-.6.7-.6.7-.3.2-3.2 1.5-3.5 1.8-.2.2-1.1.9-1.1 1.3 0 .2-.1.8.3.9.2 0 .4 0 .5-.1v.1c0 .3.5.2.6.3.1.1.4-.2.6-.3.2-.1.5-.1.9-.1h.9c.3 0 1 .1 1.3 0 .3-.1.6-.2.8-.4.4.1 0 1.3-.2 1.5-.7.8-1.8 1.7-2.8 2-.4.1-1.5.5-2.1.9-.6.5-.9 1.4-1 1.8-.1.4-.8.6-1.4.5-.4-.1-1.3-.5-1.7-.9-.2-.2-.4-.4-.7-.5h-.1v1.6c.1 0 .2-.1.4-.1.4.1.5.4.7.7-.9.1-.8 1.5-.5 2.3-.1.1-.4.1-.6.1v2h.1c.2-.1.3-.3.6-.4.2.4.8.3 1.1.6l.6.8c.7.1.8.7 1.4.8v-2.1c-.6-.1-.8.4-1.3.1 0-.2 0-.3.1-.5-.6-.1-.9-.5-1.2-1-.2-.8-.1-1.3.3-1.6.5 0 1.1 1 1.7 1.4.3.3.6.6 1.2.3 1 0 1.4 2.5 3.1 4.3 1.5 1.5 5.2 2.7 5.8 3.7-.9 1-1.1 2.3-.8 3.3.3 1 1.3 2 1.4 2.1.2.2.3.5.4.7.7 1.1 1.6 1.3 1.8 2 .2.5.7.9.1 2-.1.2-1.3 2.5-1.7 3.3-.1.1-.3.1-.5.1-.4.3-.9.6-1 1.2.7 0 1.3.1 1.9 0 0-.3.3-.2.2-.6.3-.2.5-.5 1.1-.5 0-.1.1-.2.1-.4.3-.9.5-1.6.9-2.4.4-.9 1.3-1.4 1.6-2.1.6-1.2-1.3-1-.9-2.4.3.4.7.7 1.1.9l.7 1.9c.1.5 0 1.4-.1 2.1l-.6 1.4c-.6.2-.9.6-1.1 1.3.4.2 1.3.1 1.8 0 .1-.2.3-.5.1-.8.1-.3.3-.5.7-.6-.1-.4-.1-.8 0-1.1v-5.8l-.1.1c-.1-.1-.1-.2-.1-.3l.2-.3v-.5h-.2zm-20.6-17.7v1.6c-.5.1-.8.5-1 1-.1.4-.1.8 0 1.1 0 .2.3.1.4.2-.1.2 0 .5.1.7h.5v2c-.3-.2-.3-.7-.7-.8 0-.9-.7-1-1.1-1.4-.3-1.4.1-2.3.4-3.7.2-.5.8-.7 1.4-.7zM67.3 45.6l18.9 19 .2.2c.5.5 1 1 1.1 1.7 0 .2 0 .4-.1.6-.1.2-.2.4-.4.5l-.1.1-.5.3c-.2.1-.5.1-.7 0-.1 0-.2-.1-.4-.1-.1 0-.2-.1-.3-.2-.3-.2-.5-.4-.7-.6l-.1-.1-19.2-19.1c-.5.4-1 .3-1.5-.1-.4.3-.7.6-1 .9-.4.4-.8.9-1.1 1.4-.3.5-.5.9-.7 1.4v.1-5.1l.7-.7-.2-.2c-.4-.4-.3-1.1.1-1.5l2.3-2.2c.4-.4 1-.4 1.4.1l2.1 2.1.1.1c.4.2.6.8.1 1.4zm-6.6 6.9v3.2h.2c.3 0 .5-.1.8-.2.3-.1.5-.2.7-.3l.6-.4.5-.5c.2-.3.3-.5.4-.8.1-.3.2-.5.2-.8 0-.3-.1-.5-.2-.8-.1-.3-.3-.5-.5-.7-.2-.2-.4-.3-.7-.4-.2-.1-.5-.1-.8 0-.1 0-.3.1-.4.2l-.3.3c-.1.1-.2.3-.3.5-.1.2-.1.4-.1.6-.1 0-.1 0-.1.1zm0-9.2h.4c.2 0 .4-.1.6-.2.2-.1.4-.3.5-.4.2-.2.3-.4.4-.7.1-.2.1-.5.1-.8 0-.3-.1-.5-.2-.8-.1-.2-.3-.5-.5-.6-.2-.2-.4-.3-.7-.4-.2-.1-.4-.1-.7-.1v4h.1zm0 8.2c-.1.3-.2.7-.1 1h.1v3.2c-.6 0-1.3-.1-2-.3-.7-.3-1.5-.7-2.4-1.4-.6-.4-1-.9-1.4-1.4-.4-.5-.7-1.1-.9-1.6-.2-.6-.4-1.2-.4-1.7-.1-.6 0-1.2 0-1.7 0-.1 0-.2.1-.2 0-.1 0-.2.1-.2.1-.2.1-.3.3-.5.1-.2.2-.3.4-.4.2-.2.4-.3.6-.4.2-.1.4-.2.7-.2h.7c.2 0 .4.1.6.2.2.1.4.3.5.5.1.2.2.4.2.6v.5l-.1.4-.2.3-.3.3s-.1 0-.1.1v.1c1-.2 1.9-.5 2.7-1 .6-.3 1.1-.7 1.5-1v4.8h-.6zm0-12.3v4h-.2c-.2 0-.4-.1-.6-.2-.2-.1-.4-.2-.5-.3-.2-.2-.4-.4-.5-.6-.1-.2-.2-.5-.2-.8 0-.3 0-.5.1-.8.1-.3.2-.5.4-.7.2-.2.4-.4.6-.5.2-.1.5-.2.8-.2 0 .1 0 .1.1.1z" id="Shape" fill="#fff"/><path d="M66.3 49.9v-.8l17.8 17.8c.3.3.5.5.8.7.2.1.4.2.7.3.4.1.8 0 1.2-.4.3-.3.4-.7.4-1.1-.1-.8-.7-1.3-1.2-1.8l-18.6-18.7-.1.1-.5.5 19.1 19.1c.3.3.3.7 0 1-.3.3-.7.3-.9 0l-18.6-18.6v-1.7l.6-.6c.1-.1.3-.2.3-.4.1-.1.1-.3.1-.4 0-.1 0-.3-.1-.4-.1-.2-.3-.3-.4-.4l-.6-.6v-.8l1 1c.2.2.3.3.4.5.1.2.2.4.2.7 0 .2-.1.5-.2.7l19.3 19.2c.4.4.7 1 .8 1.6v.4c-.1.3-.3.7-.5 1-.2.2-.4.4-.7.5-.3.1-.7.1-1 .1-.7-.1-1.2-.6-1.7-1.1l-17.6-17.4zm0-7.3v.8l-.6-.6v-.8l.6.6zm0 3.6v1.7l-.5-.5-.2.2v-.8l.7-.6zm0 2.9v.8l-.6-.6v-.8l.6.6zm-.6-3.6v-1.4l.3.3c.2.2.2.6 0 .9l-.3.2zm-3.1 2.7c.1-.1.2-.2.4-.3l-.4-.4v-.8c.5.5.9.9 1.1 1 .4.4 1 .2 1.1 0l.9-.9v.8l-.4.4.4.4v.8l-.9-.9c-.2.1-.4.2-.7.2-.3 0-.6-.1-.9-.3-.3.2-.5.4-.7.6v-.6h.1zm3.1-6.2v.8l-.8-.8-.2-.2c-.1-.1-.3-.2-.5-.2s-.4.1-.6.2l-1 1v-2.8c.2.3.3.7.3 1 0 .3 0 .5-.1.7l.4-.4c.3-.3.6-.4 1-.4.3 0 .6.1.9.3.1.1.2.1.2.2l.4.6zm0 2.1l-1.1-1.1c-.2-.2-.6-.2-.9 0l-1.2 1.2v1.2l1.2 1.2c.2.2.6.2.9 0l1.1-1.1v-1.4zm-3.1 11.4v-.6c.3-.2.5-.4.7-.7.4-.5.6-1 .6-1.5s-.2-1-.6-1.3c-.2-.2-.4-.3-.7-.4v-.5c.4.1.7.2 1 .5.4.4.7 1.1.7 1.7 0 .6-.2 1.3-.7 1.9-.2.3-.6.6-1 .9zm-.2-7.1l.2-.2v.7l-.2.2v-.7zm.2-.9l-.2-.2v-.8l.2.2v.8zm0-7.4v2.8l-.2.2v-1.1c.1-.3.2-.5.1-.8l-.1-.6v-.8l.2.3zm0 4.1v1.2l-.2-.2v-.8l.2-.2zm0 6.2v.6h-.2v-.5c.1-.1.1-.1.2-.1zm0 4.5v.6h-.1l-.2.1v-.6c.2 0 .2-.1.3-.1zm-.6-6.1l.4-.4v.7l-.4.5v-.8zm.4-1.5l-.4-.4v-.7l.4.4v.7zm0-7.5v.8c-.1-.2-.2-.4-.4-.6v-.5c.1 0 .1.1.2.2 0-.1.1 0 .2.1zm0 2.2v1.1l-.4.4v-.9l.1-.1.3-.5zm0 2.4v.8c-.2-.2-.2-.6 0-.8zm0 6v.5h-.4v-.5h.4zm0 4.6v.6l-.4.2v-.6c.1 0 .2-.1.3-.2h.1zm-1-5.5l.6-.7v.8l-.3.5c-.1.1-.2.3-.2.4v-1h-.1zm.6-2.6l-.6-.6v-.7l.6.6v.7zm0-7.5v.5s-.1 0-.1-.1c-.1-.1-.3-.2-.5-.3v-.4l.6.3zm0 3.2v.9l-.6.6v-1.1l.6-.4zm0 7.8c-.3.1-.4.1-.6.2v.6l.3-.2.2-.1v-.5h.1zm0 4.8v.6l-.6.2v-.5l.6-.3zm-.6-13.1v-1.7c.2.2.4.5.4.8 0 .4-.1.7-.4.9zm-.1 4.1c-.8.8-2.3 2-4.5 2.4-.1.8 0 1.4.1 1.9.2.6.5 1 .9 1.3.4.3.9.5 1.3.5.5.1.9.1 1.3 0-.1-.7.2-1.6.8-2.5l.2-.3v1l-.1.2h.1v.6c-.3.3-.5.7-.4 1.1v.2l-.4.2c-.4.1-1 .1-1.5 0s-1.1-.3-1.6-.6c-.5-.4-.9-.9-1.1-1.5-.2-.6-.3-1.4-.1-2.3 0-.1.1-.2.1-.2.3-.1.5-.1.7-.5.1-.2.2-.5.1-.8 0-.4-.3-.7-.6-1-.3-.2-.7-.3-1.2-.2-.4 0-.8.2-1.1.5-.3.3-.5.7-.6.9-.1.2-.1.3-.1.5-.1.9-.1 2.1.4 3.3.4 1 1.1 2.1 2.3 2.9 1.8 1.4 3.3 1.8 4.5 1.7l.6-.1v.6l-.5.1c-1.3.1-3-.3-4.9-1.8-1.2-1-2-2.1-2.5-3.2-.6-1.4-.6-2.8-.4-3.8 0-.1 0-.2.1-.3.1-.3.3-.8.7-1.3.2-.2.4-.4.7-.5.4-.2.9-.3 1.4-.2.3 0 .6.2.9.3.5.3.8.8.9 1.4 0 .4 0 .8-.2 1.1 1.6-.5 2.7-1.4 3.3-2-.3-.3-.4-.6-.4-1 0-.3.1-.6.3-.8l.2-.2.3-.3c-.1 0-.1 0-.2.1h-.5c-.5 0-1-.2-1.4-.6-.4-.4-.7-.9-.8-1.6 0-.6.2-1.2.6-1.6.4-.4.9-.7 1.6-.8.3 0 .6 0 .9.1v.4c-.3-.1-.5-.2-.8-.2-.5 0-1 .3-1.3.6-.3.4-.5.8-.5 1.4 0 .5.3 1 .6 1.3.3.3.7.4 1.1.5h.5l.4-.1v1c-.1.1-.2.2-.2.3-.1.1-.1.3-.1.5s.1.4.2.5c0 .1.1.1.2.2v.7h-.3zm.1-5.8c-.2-.2-.5-.3-.8-.3-.6 0-1.1.6-1.1 1.2s.6 1.1 1.2 1.1c.3 0 .5-.1.7-.3v-1.7zM61.2 46.8s-1.8 1.9-4 2.2c-.2 1.1.1 1.8.6 2.2.7.7 1.6.8 2.3.6-.2-1 .9-3 2.3-3.9l-1.2-1.1zM62.8 53.8c.1-.1.1-.3 0-.4-.1-.1-.3-.1-.4-.1 0 0-.6.8-1.8.9-1.1.1-2.7-.4-4.2-1.8-.9-.9-1.5-1.9-1.7-2.8-.3-1.2-.1-2.1.3-2.6.1-.1.1-.3 0-.4-.1-.1-.3-.1-.4 0-.5.6-.7 1.8-.3 3.1.2 1 .8 2.1 1.8 3.1 1.6 1.6 3.4 2.1 4.6 2 1.4-.1 2.1-1 2.1-1z" id="Shape" fill="#DA2128"/><path d="M36.9 90.8c.4-.2.6-.4.8-.7.3-.6.3-1.1-.1-1.5-.2-.2-.5-.4-.7-.5v-.4h.1c.3.2.7.3 1.1.3.3 0 .6-.3.8-.6.3-.5.1-.8.1-1-.2-.4-.5-.6-.9-.8-.3-.2-.6-.3-.8-.4l-.4.7v-1.3l1.7.9c.4.2 1 .6 1.2 1.1.1.3.1.7-.1 1.1-.2.4-.5.6-.7.7-.3.1-.7.2-1.1.1.8.5 1 1.4.6 2.2-.3.5-.7.8-1.2.9h-.3v-.8h-.1zm-2-1.2c-.1.2 0 .6.7 1 .5.2.9.3 1.3.1v.7c-.5 0-1.1-.3-1.4-.4-.3-.1-.4-.2-.5-.3l-1-.6-.6-.3-.5-.2c-.1-.1-.1-.1-.1-.2.1-.1.1-.1.2 0s.3.2.5.2c.3 0 .4-.1.5-.4l2.2-4.1c.1-.2.2-.4 0-.6-.1-.2-.3-.2-.4-.3-.1-.1-.1-.1-.1-.2 0 0 .1-.1.2 0l.8.5v1.3l-1.8 3.8zm2-1.5v-.4h-.1c-.1 0-.2 0-.2.1v.1c-.1.1 0 .2 0 .2l.1.1c.1-.2.2-.1.2-.1zM41.5 87.9c.1-.3.2-.4 0-.6-.1-.1-.3-.2-.5-.3-.1 0-.1-.1-.1-.2 0 0 .1-.1.2-.1l4.2 1.8s.1.1 0 .1l-.6 1.4h-.2l-.1-.1c.1-.5.1-.9-.1-1.2-.2-.3-.5-.4-.6-.5l-1.4-.6-1 2.2.7.3c.2.1.4.1.7 0 .1-.1.3-.2.5-.6h.2v.1l-.9 2.2h-.2v-.1c.1-.4.1-.6.1-.7-.1-.3-.3-.5-.4-.5l-.7-.3-.9 2c-.3.6.5.9.8 1.1.6.2 1.2.5 1.8.3.4-.1.8-.4 1-.9h.1v.1c0 .2-.1.5-.2.7-.1.3-.4.6-.6.7-.5.2-1.1-.1-1.5-.2-.4-.2-1.1-.5-1.4-.6-.3-.2-.5-.3-.8-.4-.4-.2-.9-.3-1.1-.4-.1 0-.1-.1-.1-.2 0 0 .1-.1.2-.1.2.1.3.1.5.1.3 0 .4-.2.5-.4l1.9-4.1zM46.4 89.1s0-.1.1-.1l.5.2c.2.1.4.2.7.3.9.3 1.3.4 1.7.5.5.2 1.1.4 1.5 1.1.3.4.4.9.2 1.7-.2.5-.5.9-.9 1.1-.7.4-1.4.2-1.8.1-.6-.2-1-.5-1.1-.6v-.2c0-.1.1-.1.2 0 .3.3.5.4.8.5.6.2 1 .1 1.3-.1.3-.2.6-.6.7-1 .1-.4.2-.9 0-1.3-.3-.5-.8-.7-1.2-.9-.8-.3-1.1-.1-1.2.1l-1.5 4.4c-.1.3-.1.4.1.6.1.1.3.2.5.2.1 0 .1.1.1.1v.1s0 .1-.2.1l-.5-.2c-.3-.1-.5-.2-.7-.3-.2-.1-.4-.1-.7-.2-.3-.1-.4-.1-.5-.1-.1 0-.1-.1-.1-.1v-.1s0-.1.1-.1c.2.1.3.1.5.1.3 0 .4-.2.4-.5l1.5-4.4c.1-.3.1-.4-.1-.6-.1-.1-.3-.2-.5-.2 0 0 .1-.1.1-.2zM55.3 92.7c.1-.1.2-.2.3-.4 0-.1 0-.3-.3-.4-.1 0-.2-.1-.2-.2v-.1c0-.1.1-.1.2-.1.4.1.5.2 1 .3h.3c.2 0 .3 0 .5.1.1 0 .2 0 .1.1 0 .1-.1.1-.2.1-.2 0-.4 0-.5.1-.1 0-.3.2-.4.3l-2 1.7 1 3.1.2.4c.1.1.3.2.4.2.1 0 .2 0 .1.2v.1c0 .1-.1.1-.2.1-.3-.1-1-.3-1.2-.4-.1 0-.3 0-.4-.1-.2 0-.3 0-.5-.1-.1 0-.2 0-.1-.1v-.1c0-.1.1-.1.2-.1.2 0 .5.1.5-.2v-.4l-.7-2.1h-.1l-1.4 1.4c-.1.1-.3.3-.3.5-.1.2.1.3.2.4.1.1.2.1.2.1.1 0 .1.1.1.1v.1c0 .1-.1.1-.2.1l-.5-.1-.6-.2c-.2-.1-.7-.1-1-.2-.1 0-.1-.1-.1-.2v-.1c0-.1.1-.1.2-.1h.5c.3-.1.4-.2.6-.3l2.2-1.9-.9-2.8c0-.1-.1-.3-.3-.4-.2-.2-.3-.2-.5-.3-.1 0-.1-.1-.1-.1v-.1c0-.1.1-.1.2-.1s.2.1.5.1c.2.1.4.2.6.2.3.1.9.1 1.1.2.1 0 .1.1.1.1v.1c0 .1-.1.1-.2.1-.3 0-.4.1-.4.2v.3l.6 2h.1l1.3-1.1zM60.3 98.9c.6 0 1.4-.3 2-1.4.2-.4.3-.8.4-1.3.1-.4.1-.9 0-1.3-.3-1.5-1.3-1.9-2-2h-.5v-.4h.5c1.2.2 2.3 1.1 2.7 2.3.2.5.2 1.1.1 1.6-.1.6-.3 1.2-.7 1.6-.4.5-1.2 1.2-2.7 1.2v-.3h.2zm-2.1-4.7c-.2.4-.4.8-.4 1.3-.1.5-.1.9 0 1.3.3 1.6 1.4 2 2 2h.5v.4c-.2 0-.3 0-.5-.1-1.6-.2-2.4-1.1-2.7-2-.2-.6-.2-1.2-.1-1.7.1-.6.3-1.1.6-1.6.6-.9 1.7-1.4 2.8-1.4v.4c-.7.1-1.6.3-2.2 1.4zM67.2 99.5c.4 0 .7-.1 1-.4.3-.3.4-.6.4-1 .1-.7-.2-1.1-.7-1.3l-.7-.2v-.4c.3 0 .6 0 .8-.2.2-.2.4-.5.5-.9 0-.6-.2-.8-.3-.9-.3-.2-.6-.3-1-.3v-.4h.3c.5 0 1.1.1 1.6.5.2.2.4.6.4 1.1 0 .5-.2.8-.4.9-.2.2-.6.4-.9.5.9.2 1.5.9 1.4 1.8 0 .6-.3 1.1-.7 1.3-.5.3-1.1.4-1.6.3v-.4h-.1zm-1.4-.7c0 .3.2.6 1.1.6h.3v.4h-.1c-.3 0-.4 0-.6-.1l-1.2-.1h-1.1c-.1 0-.1-.1-.1-.1v-.1c0-.1.1-.1.1-.1h.5c.3-.1.3-.3.3-.6l.3-4.6c0-.3 0-.5-.2-.6-.2-.1-.4-.1-.5-.1-.1 0-.1-.1-.1-.1v-.1s0-.1.1-.1l2.6.2v.4h-1l-.4 5.1zm1.4-2.2v-.4h-.4c-.1 0-.1.1-.1.1v.1c0 .1.1.1.1.1h.1c.1.1.2.1.3.1zM73.8 99.9c.5 0 1.8-.2 2.3-1.7.1-.4.2-.9.2-1.3 0-.5-.1-.9-.2-1.3-.5-1.4-1.5-1.7-2.2-1.7v-.4c1.2 0 2.4.7 3 1.8.2.5.4 1 .4 1.6 0 .6-.1 1.2-.4 1.7-.4.7-1.2 1.6-3 1.6v-.3h-.1zm-2.2-4.3c-.1.4-.2.9-.2 1.3 0 .5.1.9.2 1.3.6 1.5 1.7 1.7 2.3 1.7v.4c-1.6 0-2.5-.7-3-1.6-.3-.5-.4-1.1-.4-1.7 0-.6.1-1.2.3-1.6.6-1.2 1.8-1.9 3-1.9v.4c-.5-.1-1.7.1-2.2 1.7zM82.5 91.3c.1.6 0 1.2-.4 1.7-.2.2-.3.4-.5.5v-1c.1-.1.2-.2.2-.3.2-.2.3-.4.4-.6v-.3l.1-.1h.1l.1.1zm-.8 5.1l1.3-2 .4 4.2c0 .3 0 .5-.2.6-.2.1-.4.1-.5.1-.1 0-.1.1-.1.1v.1s0 .1.1.1.2 0 .5-.1.5-.1.7-.1h1.2c.1 0 .1-.1.1-.1v-.1s0-.1-.1-.1h-.5c-.3-.1-.3-.3-.3-.5l-.5-4.8c0-.3.1-.5.3-.7v-.2h-.1c-.2.1-.5.2-.9.8l-1.3 2v.7h-.1zm0-3l-.4.3c-.1.2-.2.3-.3.6l-.1.1h-.1l-.1-.1c-.1-.3 0-.7.3-1.3l.6-.8v1.2h.1zm0 2.2l-1.9 3-.4-4.2c0-.3 0-.5.2-.6.2-.1.3-.1.5-.1.1 0 .1-.1.1-.1v-.1s0-.1-.1-.1-.2 0-.5.1-.5.1-.7.1h-1.2c-.1 0-.1.1-.1.1v.1s0 .1.1.1h.5c.3.1.3.3.3.5l.6 5.6.1.1h.1l.1-.1 2.4-3.7v-.7h-.1zM88 93.2c-.1-.3-.1-.4-.4-.5h-.5c-.1 0-.1 0-.1-.1v-.1s0-.1.1-.1l4.5-1s.1 0 .1.1l.3 1.5v.1h-.2c-.2-.5-.5-.8-.7-.9-.3-.1-.7-.1-.8 0l-1.5.3.5 2.4.7-.2c.2 0 .4-.1.5-.4.1-.1.1-.3.1-.7h.2l.5 2.3v.1h-.2c-.1-.4-.2-.5-.4-.6-.2-.2-.5-.2-.6-.2l-.7.2.5 2.1c.1.7.9.5 1.3.4.6-.1 1.3-.3 1.6-.8.2-.3.4-.8.3-1.3v-.1s.1 0 .1.1c.1.1.2.5.3.7.1.3 0 .7-.1.9-.3.4-.9.6-1.4.7-.5.1-1.2.2-1.5.3-.3.1-.6.1-.9.1-.4.1-.9.3-1.2.3-.1 0-.1 0-.2-.1v-.1s0-.1.1-.1c.2 0 .3-.1.5-.2.2-.2.2-.3.2-.6l-1-4.5zM94.2 95.6l.1-.1h.1c.6 1.3 1.6 1.2 2.2 1 .3-.1 1.5-.5 1.1-2-.4-1.5-1.7-1.1-1.8-1.1l-.3.1-.2-.1v-.1l.1-.1h.1c.3-.1.7-.2.9-.5.2-.3.2-.6.1-.9-.2-.7-.8-1.2-1.7-.9-1 .3-1.2 1.3-1.2 1.8v.1h-.2l-.5-1.6v-.1h.1l.1.1v.1c0 .1.1.2.2.2l.6-.5c.3-.2.6-.4 1-.5 1.5-.4 2.1.4 2.3.9.2.6-.1 1.3-.5 1.7v.1c.8 0 1.5.3 1.7 1.2.3.9 0 2.1-1.7 2.6-1.1.3-1.8.3-2.1.2l-.5-1.6zM103.9 93.8l-1.8-2v-1.3l2.6 2.9c.4-.1.3-.1.5-.3.1 0 .2.1.2.2l.6 1.5-.1.1h-.1c-.8-1.4-1.4-1.1-1.8-.9l-2 .8v-.4l1.9-.6zm-1.8-1.9l-1.5-1.7h-.1l-.2 5 1.8-.7v.4l-1.2.5c-.5.2-1.1.4-.8 1.9l-.1.1h-.2l-.6-1.5c-.1-.1-.1-.2.1-.3l.5-.1.4-6.7v-.1l.1.1 1.8 2v1.1zM112.1 89.2c.1.2.2.4.5.4.2 0 .3-.1.5-.2h.2v.1s0 .1-.1.2-.2.1-.5.2-.5.2-.7.3c-.2.1-.3.2-.6.4-.2.1-.3.2-.4.3-.1.1-.1 0-.2 0v-.1s0-.1.1-.2l.4-.3c.2-.2.1-.4 0-.6l-2.1-4.1-.2-.3v-.6s.1 0 .1-.1c.2-.1.3-.2.6-.4.2-.1.3-.2.4-.3h.2s0 .1-.1.2l-.4.3c-.2.2-.1.4 0 .6l2.3 4.2zm-3 2.6c.4-.3.8-.6.9-1.1.2-.6 0-1.2-.2-1.6-.2-.3-.4-.6-.8-.8v1.3c.2.4.3.8.2 1.2 0 .2-.1.3-.2.4v.6h.1zm0-6.5c-.1-.1-.2-.1-.3-.1-.2 0-.3.1-.5.2-.1.1-.1 0-.2 0v-.1s0-.1.1-.2.2-.1.5-.2c.2-.1.4-.2.5-.2v.6h-.1zm0 3v1.3c-.2-.4-.5-.7-.8-.8-.5-.2-.9-.1-1.2.1-.3.1-.5.3-.7.6h-.1v-.1c.2-.4.7-.7 1-.9.5-.3 1.1-.4 1.7-.2h.1zm0 2.9c-.2.3-.5.4-.8.6-.3.2-.6.3-.7.3-.3 0-.5-.3-.5-.4l-2-3.9c-.1-.2-.2-.4 0-.6l.4-.3c.1-.1.1-.1.1-.2 0 0-.1-.1-.2 0s-.2.1-.4.3c-.3.2-.5.3-.6.4-.2.1-.3.2-.7.3-.2.1-.3.1-.4.2-.1.1-.1.1-.1.2 0 0 .1.1.2 0s.3-.2.5-.2c.3 0 .4.1.5.4l2.1 4.1c.1.2.2.4 0 .6l-.4.3c-.1 0-.1.1-.1.2s.1.1.2.1c.3-.2.7-.5 1-.6l.6-.3.9-.4.5-.3v-.8h-.1zM21.5 32.2c.3-.5.2-1 0-1.4l-.4-1.1c-.3-.9 0-1.4.2-1.6.3-.3.7-.5 1.1-.1.2.2.2.5.1.7-.2.2-.5.3-.7.1-.2-.1-.2-.3-.2-.4 0 0-.1 0-.1.1-.1.2-.1.4-.1.5l.6 1.5c.1.4.2.9 0 1.5.5-.4 1.2-.7 2.1-.6.6.1 1 .2 1.7.4.2 0 .6.1.8-.2l.2-.4.1-.1h.1l.1.1c.1.3 0 .5-.3.9-.5.5-1.3.5-1.8.4-.8-.1-1.3-.3-1.8-.3-.6 0-1 .1-1.3.4l1.8 1.6c.2.2.4.3.6.2.2-.1.3-.2.4-.4.1-.1.1 0 .2 0 0 0 .1.1 0 .2l-.3.3-.5.5c-.1.1-.2.3-.4.6-.2.2-.2.3-.3.4-.1.1-.1 0-.2 0 0 0-.1-.1 0-.2l.3-.4c.1-.3 0-.4-.2-.6l-3.5-3.1c-.2-.2-.4-.3-.6-.2-.2.1-.3.2-.4.4-.1.1-.1 0-.2 0 0 0-.1-.1 0-.2s.2-.2.4-.3l.5-.5c.1-.1.2-.3.4-.6.2-.2.2-.3.3-.4.1-.1.1 0 .2 0 0 0 .1.1 0 .2l-.3.4c-.1.3 0 .4.2.6l1.2 1.1zM23.2 26.3s-.1-.1 0-.2.2-.2.4-.3c.2-.1.3-.3.6-.4.7-.6 1-.9 1.3-1.2.4-.3 1-.7 1.7-.8.5 0 1 .1 1.5.7.4.4.5.9.5 1.4 0 .8-.5 1.3-.8 1.6-.4.4-.9.6-1.1.6h-.1l-.1-.1c0-.1 0-.1.1-.2.4-.1.6-.3.8-.4.5-.4.6-.8.6-1.1 0-.4-.2-.8-.5-1.1-.3-.3-.7-.6-1.1-.6-.6 0-1 .3-1.4.6-.6.6-.6.9-.5 1.1l3 3.5c.2.2.3.3.6.2.2-.1.3-.2.4-.3.1-.1.1 0 .2 0 0 0 .1.1 0 .2s-.2.1-.4.3c-.3.2-.4.3-.6.4l-.5.5-.3.3c-.1.1-.1 0-.2 0 0 0-.1-.1 0-.2s.3-.2.4-.4c.1-.2 0-.4-.2-.6l-3-3.5c-.2-.2-.3-.3-.6-.2-.2.1-.3.2-.4.3-.1 0-.2 0-.3-.1zM29.6 22.1c-.2-.2-.3-.4-.6-.3-.2 0-.3.1-.5.2-.1.1-.1 0-.2 0 0 0-.1-.1 0-.2l3.8-2.6h.1l.9 1.3v.1h-.2c-.4-.4-.7-.5-1-.5-.3 0-.6.2-.8.3l-1.3.9 1.4 2 .6-.4c.1-.1.3-.3.3-.6 0-.1 0-.4-.2-.7v-.1h.2l1.3 2v.1h-.2c-.3-.3-.4-.4-.6-.5-.3-.1-.5 0-.7.1l-.6.4 1.2 1.8c.4.6 1.1.1 1.3-.1.5-.3 1.1-.7 1.2-1.3.1-.4.1-.9-.2-1.3v-.1h.1c.2.1.4.3.5.5.2.2.3.6.2.9-.1.5-.6.9-1 1.1-.4.3-1.1.7-1.3.8l-.8.5c-.3.2-.7.6-.9.7-.1.1-.1 0-.2 0 0 0-.1-.1 0-.2l.4-.3c.1-.2.1-.4-.1-.6l-2.1-3.9zM39.8 15.1l.7-.3c.1-.1.3-.1.5-.3.2-.1.3-.2.4-.2h.2c0 .1 0 .1-.1.2-.2.1-.3.2-.4.3-.2.2-.1.4 0 .6l2.1 4.1c.1.2.2.4.5.4.2 0 .3-.1.5-.2.1-.1.1 0 .2 0 .1.1 0 .1-.1.2s-.2.1-.4.2c-.3.1-.5.2-.7.3-.2.1-.5.3-.6.4-.1.1-.3.2-.4.2-.1.1-.1 0-.2 0 0 0 0-.1.1-.2.3-.1.4-.2.4-.3.2-.2.1-.4 0-.6l-2.2-4.5h-.1l.5 6.3v.1l-.1-.1-4.6-4.2 2.3 4.5c.1.2.2.4.5.4.1 0 .3-.1.5-.2.1-.1.1 0 .2 0 0 0 0 .1-.1.2s-.2.1-.5.2-.5.2-.7.3l-.5.3c-.2.1-.3.2-.4.2-.1.1-.2 0-.2 0 0-.1 0-.1.1-.2.2-.1.3-.2.4-.3.2-.3.1-.5 0-.6l-2-4c-.1-.2-.2-.4-.4-.5-.2-.1-.4 0-.6.1-.1 0-.1.1-.2 0v-.1s0-.1.1-.2h.1c.1 0 .3-.1.4-.2.2-.1.3-.1.6-.2s.5-.2.7-.4l4 3.6-.5-5.3zM51 17.6c0 .1-.1.1-.2.2-.1 0-.2.1-.4.1-.2.1-.3.1-.5.1-.2.1-.3.1-.6.3-.2.1-.3.1-.4.2h-.2v-.1c0-.1.1-.2.2-.2.2-.1.4-.2.3-.5l-.1-.2-3-3.6h-.1l-.1 4.8v.3c.1.3.3.2.6.1.1 0 .2-.1.2.1v.1c0 .1-.1.1-.1.1-.1 0-.1 0-.4.1-.3.1-.4.1-.6.2-.1 0-.2.1-.4.2l-.4.2h-.2v-.1c0-.1-.1-.1.1-.2.1-.1.3-.2.3-.3.1-.1.1-.3.1-.4l.4-6.1.1-.2h.1l.2.1 4 4.7c.2.2.4.2.4.2.2 0 .2-.1.3-.1.3-.2.4-.2.4-.1zM50.8 12c-.1-.3-.2-.4-.4-.5-.2 0-.4 0-.5.1-.1 0-.1 0-.1-.1v-.1s0-.1.1-.1l4.5-1.2s.1 0 .1.1l.4 1.5v.1h-.2c-.3-.5-.5-.8-.8-.9-.3-.1-.7 0-.8 0l-1.5.4.6 2.4.7-.2c.2 0 .4-.1.5-.4 0-.1.1-.3 0-.7v-.1h.2l.6 2.3v.1h-.2c-.1-.4-.3-.5-.4-.6-.3-.2-.5-.2-.7-.1l-.7.2.5 2.1c.2.7 1 .4 1.3.4.6-.2 1.3-.3 1.6-.8.2-.3.3-.8.2-1.3v-.1h.1c.1.1.3.5.3.7.1.3 0 .7-.1.9-.3.5-.9.6-1.3.7-.5.1-1.2.3-1.5.3l-.9.2c-.4.1-.9.3-1.1.4-.1 0-.1 0-.2-.1v-.1s0-.1.1-.1c.2 0 .3-.1.5-.2.2-.2.2-.4.1-.6l-1-4.6zM59.8 15.3h.4c.5-.1.9-.3 1.1-.7.2-.4.2-.7.2-1-.1-.7-.5-1-1-1.1h-.7v-.5c.2-.1.5-.2.7-.4.2-.2.3-.6.2-1-.1-.5-.4-.8-.5-.8-.1-.1-.2-.1-.4-.1v-.5c.4 0 .8 0 1.1.2.3.2.5.5.6 1 .1.5-.1.8-.2 1-.2.3-.4.6-.8.7.9 0 1.6.5 1.8 1.4.1.6-.1 1.1-.4 1.4-.4.5-1.2.6-1.6.7-.3 0-.4.1-.6.1v-.4h.1zm-.8-.4c0 .2.3.4.9.4v.4l-1.2.1-.6.1c-.2.1-.4.1-.5.1-.1 0-.1 0-.1-.1v-.1c0-.1 0-.1.1-.1.2 0 .3-.1.5-.2.2-.2.2-.3.2-.6l-.8-4.6c0-.3-.1-.5-.4-.5h-.5c-.1 0-.1 0-.1-.1v-.1s0-.1.1-.1l2.8-.5.5-.1v.5h-.8l-.9.2.8 5.3zm.8-2.5v-.4c-.1 0-.2.1-.4.1h-.2c-.1 0-.1.1-.1.2v.1c0 .1.1.1.1.1h.1c.2-.1.4-.1.5-.1zM69.2 9.8l-.1.1s-.1 0-.1-.1c-.1-.4-.4-.7-.7-.9-.4-.2-.9-.4-1.5-.3-.8.1-1.5.4-1.9 1.1-.4.7-.5 1.4-.5 2.1.1 1 .4 1.6.7 1.9.5.6 1.3.9 2.1.8.5 0 1-.2 1.4-.6.3-.3.6-.7.6-1.2 0 0 0-.1.1-.1h.1s.1 0 .1.1l.1 1.4c-.8.5-1.5.7-2.3.8-.9.1-1.9 0-2.8-.8-.7-.7-.9-1.5-1-2.1-.1-.8.1-1.8.8-2.6.6-.7 1.3-1.1 2.4-1.2.5 0 .9 0 1.2.1l.8.2c.2 0 .2-.1.1-.3v-.1s0-.1.1-.1h.1s.1 0 .1.1l.1 1.7zM72.5 10.9c.6-.1.8-.5 1-.9l.6-1.1c.5-.8 1-.9 1.4-.9.5 0 .8.2.8.7 0 .3-.2.5-.5.5s-.5-.2-.5-.5c0-.2.1-.3.2-.4h-.1c-.2 0-.4.2-.5.3l-.8 1.4c-.2.3-.5.7-1.1.9v.1c.6.1 1.3.5 1.8 1.2.3.5.5.9.9 1.6.1.2.3.5.6.5.2 0 .3-.1.4-.1h.1l.1.1v.1c-.2.2-.4.3-.8.3-.7 0-1.2-.7-1.5-1.2-.4-.7-.6-1.2-.9-1.6-.3-.5-.7-.7-1.2-.7v2.4c0 .3 0 .5.3.6.2.1.4.1.5.1.1 0 .1.1.1.1v.1s0 .1-.1.1h-.5c-.3 0-.5-.1-.7-.1h-1.2c-.1 0-.1-.1-.1-.1v-.1s0-.1.1-.1c.2 0 .4 0 .5-.1.2-.1.3-.3.3-.6l.1-4.6c0-.3 0-.5-.3-.6-.2-.1-.4-.1-.5-.1-.1 0-.1-.1-.1-.1v-.1s0-.1.1-.1h.5c.3 0 .5.1.7.1h1.2c.1 0 .1.1.1.1v.1s0 .1-.1.1c-.2 0-.4 0-.5.1-.2.1-.3.3-.3.6l-.1 1.9zM80.1 12.1l1.1.1-.8-2.8-.3.5v-.9l.4-.7c.1-.1.1-.2.2-.2s.2.2.2.2l1.7 6c0 .1.1.3.3.4.2.1.3.1.4.1.1 0 .1.1.1.1v.1c0 .1-.1.1-.2.1s-.2 0-.5-.1l-.5-.1h-1s-.2 0-.2-.1v-.1c0-.1 0-.1.1-.1h.4c.2 0 .3-.1.3-.3v-.3l-.4-1.5-1.2-.1v-.3h-.1zm-1-.1l1.1.1v.4l-1.3-.1-.7 1.4c-.1.1-.1.2-.1.3 0 .3.3.3.5.3.1 0 .2 0 .2.1v.1c0 .1-.1.1-.2.1 0 0-.1 0-.4-.1l-.6-.1h-.8c-.1 0-.2-.1-.1-.1v-.1c0-.1.1-.1.2-.1l.4-.1.3-.3 2.6-4.8v.9l-1.1 2.1zM88.6 10.6c.1-.6-.5-.8-.8-.8-.3-.1-1.7-.3-2 1-.1.5 0 1.2 1.3 1.5.2 0 .4.1.6 0h.1v.1l-.1.1c-.3.1-.8.4-1.2.9-.5.6-.3.4-.9 1.1-.4.5-.9 1-1.7.9-.3 0-.6-.2-.8-.5v-.1h.2c.1.1.3.2.4.2.3.1.6-.2.9-.7.6-.7 1.1-1.3 2.4-1.8v-.1h-.5c-.3-.1-.9-.2-1.3-.7-.3-.4-.4-.8-.3-1.2.1-.5.5-1 1.1-1.2.4-.1 1-.1 1.5-.1l.8.2c.4.1.6.1.8.2.2 0 .3 0 .6.1h.5c.1 0 .1.1.1.1v.1s0 .1-.1.1c-.2 0-.3-.1-.5 0-.3.1-.3.2-.4.5l-.8 4.6c0 .3 0 .5.2.6l.5.2c.1 0 .1.1.1.1v.1s0 .1-.1.1c-.4-.1-.6-.2-1.6-.3-.5 0-.6 0-.7-.1-.1 0-.1-.1-.1-.1s0-.1.1-.1c.2 0 .3.1.5 0 .3-.1.3-.2.4-.5l.8-4.5zM101.8 14.2c.1-.2.1-.4-.1-.6-.1-.1-.3-.2-.5-.2-.1 0-.1-.1-.1-.1v-.1s0-.1.1-.1l.5.2c.3.1.5.2.7.3.2.1.4.1.7.2.3.1.4.1.5.1.1 0 .1.1.1.1v.1c0 .1-.1.1-.1.1-.4-.1-.5-.1-.5-.1-.3 0-.4.3-.4.5l-1.5 4.4c-.1.3-.1.4.1.6.1.1.3.2.5.2.1 0 .1.1.1.1v.1s0 .1-.1.1l-9.2-3.1c-.1 0-.1-.1-.1-.1v-.1s0-.1.2-.1c.2.1.4.1.5.1.2 0 .4-.2.4-.5l1.5-4.4c.1-.2.1-.4-.1-.6-.1-.1-.3-.2-.5-.2-.1 0-.1-.1-.1-.1v-.1s0-.1.1-.1l.5.2c.2.1.4.2.7.3l.7.2c.2.1.3.1.5.1.1 0 .1.1.1.1v.1s0 .1-.2.1c-.2-.1-.4-.1-.5-.1-.3 0-.4.2-.4.4l-1.6 4.9 2.7.9 1.6-4.9c.1-.2.1-.4-.1-.6-.1-.1-.3-.2-.5-.2-.1 0-.1-.1-.1-.1v-.1s0-.1.1-.1l.5.2c.3.1.5.2.7.3.2.1.4.1.7.2.3.1.4.1.5.1.1 0 .1.1.1.1v.1s0 .1-.1.1c-.2-.1-.4-.1-.5-.1-.3 0-.4.3-.4.5l-1.6 4.9 2.7.9 1.2-5.1zM105.5 17.9c.6.2 1-.1 1.3-.4l1-.7c.8-.5 1.3-.4 1.6-.2.4.2.7.6.4 1-.1.3-.4.4-.7.2-.3-.1-.4-.4-.3-.7.1-.2.2-.2.3-.3 0 0 0-.1-.1-.1-.2-.1-.4 0-.5 0-.5.2-.5.5-1.3.9-.4.2-.8.4-1.4.4.5.4 1 1 1.1 1.9l.1 1.8c0 .2.1.6.4.7.1.1.3.1.4.1h.1v.2c-.2.1-.5.1-.9-.1-.7-.3-.8-1.1-.8-1.7-.1-.8-.1-1.3-.1-1.8-.1-.6-.4-.9-.7-1.1l-1 2.1c-.1.2-.2.4 0 .6l.4.3c.1 0 .1.1.1.2 0 0-.1.1-.2 0s-.2-.1-.4-.2c-.3-.2-.5-.3-.6-.4-.2-.1-.4-.2-.7-.3l-.5-.2c-.1-.1-.1-.1-.1-.2v-.1s.1-.1.2 0c.2.1.3.2.5.2.3 0 .4-.1.5-.4l2-4.2c.1-.2.2-.4 0-.6l-.4-.3c-.1 0-.1-.1-.1-.2 0 0 .1-.1.2 0s.2.1.4.2c.3.2.5.3.6.4.2.1.4.2.7.3l.5.2c.1 0 .1.1.1.2 0 0-.1.1-.2 0-.2-.1-.3-.2-.5-.2-.3 0-.4.1-.5.4l-.9 2.1zM112.6 25.2c.4-.1.8-.2 1.2-.6.3-.3.6-.6.9-1 .2-.4.4-.8.5-1.2.3-1.4-.4-2.3-1-2.7-.3-.2-.9-.5-1.7-.3v-.5c.6 0 1.3.2 1.8.6 1 .7 1.7 1.9 1.5 3.2 0 .5-.3 1.1-.6 1.6s-.8.9-1.3 1.2c-.4.2-.9.4-1.6.4v-.7h.3zm-1.2-5.2c-.3.3-.7.6-.9 1-.2.4-.4.8-.5 1.2-.4 1.6.5 2.4 1 2.7.3.2.9.5 1.6.4v.6c-.5 0-1.1-.2-1.8-.6-1.4-.9-1.7-2-1.7-3 0-.6.3-1.1.6-1.6s.7-.9 1.2-1.2c.5-.3 1.1-.5 1.7-.5v.5c-.3 0-.7.2-1.2.5zM119 31.2c-.1.1-.2 0-.2-.1l-.3-.3c-.1-.1-.2-.3-.3-.3-.1-.1-.3-.2-.5-.4l-.3-.2s-.1-.1-.1-.2c.1-.1.2 0 .3.1.2.1.4.2.6 0 0 0 .1-.1.1-.2l1.6-4.4-4.2 2.3s-.2.1-.2.2c-.2.2 0 .4.2.6.1 0 .1.1.1.2-.1.1-.1 0-.2 0s-.1-.1-.3-.3l-.4-.4c-.1-.1-.2-.1-.4-.3-.2-.1-.2-.1-.3-.2-.1-.1-.1-.1 0-.2s0-.1.2 0c.1.1.3.1.4.1l.4-.1 5.5-2.7.2-.1.1.1v.2l-2.1 5.8c-.1.3 0 .4 0 .5l.2.3c0-.1 0-.1-.1 0zM123.8 32.6l1.4-2.6-1.4.5v-.5l2.1-.7c.1 0 .2-.1.3 0 .1.1 0 .2 0 .3l-2.4 4.6v-1.6zm-1.4-1.6l1.4 1.6v1.7l-.5.9-.1.4c0 .2.1.2.2.3v.1c-.1.1-.1 0-.2-.1s-.2-.2-.3-.4c-.1-.2-.2-.3-.3-.4-.1-.1-.3-.2-.4-.4l-.3-.3s-.1-.1 0-.2h.1c.1.1.1.1.3.2.1.1.3.1.4 0l.2-.2.7-1.4-1.6-1.9-1.5.5c-.2 0-.2.1-.3.1-.2.2 0 .4.1.6 0 0 .1.1 0 .2s-.1 0-.2 0c0 0-.1-.1-.2-.3l-.3-.5-.3-.3-.3-.3c-.1-.1-.1-.2 0-.2.1-.1.1 0 .2 0 .1.1.3.2.4.2h.4l3.7-1.2v.5l-1.3.8zM73.5 4c19.2 0 36.6 5.6 49.2 14.6 12.7 9.1 20.6 21.7 20.6 35.6 0 13.9-7.9 26.5-20.6 35.6-12.6 9-30 14.6-49.2 14.6v-2.1c18.7 0 35.7-5.4 48-14.2 12.2-8.7 19.7-20.6 19.7-33.8 0-13.2-7.5-25.1-19.7-33.8-12.3-8.8-29.2-14.2-48-14.2v-2.3zm0 100.3c-19.2 0-36.6-5.6-49.2-14.6-12.7-9.1-20.6-21.7-20.6-35.6 0-13.9 7.9-26.5 20.6-35.6 12.6-9 30-14.6 49.2-14.6v2.1c-18.7 0-35.7 5.4-48 14.2-12.2 8.7-19.7 20.6-19.7 33.8 0 13.2 7.5 25.1 19.7 33.8 12.3 8.8 29.2 14.2 48 14.2v2.3zM87 51.5c.1.3.1.7.1 1h-.1v3.2c.6 0 1.3-.1 2-.3.7-.3 1.5-.7 2.4-1.4.6-.4 1-.9 1.4-1.4.4-.5.7-1.1.9-1.6.2-.6.4-1.2.4-1.7.1-.6.1-1.2 0-1.7v-.2c0-.1 0-.2-.1-.2-.1-.2-.1-.3-.3-.5-.1-.2-.2-.3-.4-.4-.2-.2-.4-.3-.6-.4-.2-.1-.4-.2-.7-.2h-.7c-.2 0-.4.1-.6.2-.2.1-.4.3-.5.5-.1.2-.2.4-.2.6v.5l.1.4.2.3.3.3s.1 0 .1.1v.1c-1-.2-1.9-.5-2.7-1-.6-.3-1.1-.7-1.5-1v4.8h.5zm0-8.2v-4h.1c.3 0 .5.1.8.2.2.1.5.3.6.5.2.2.3.4.4.7.1.2.1.5.1.8 0 .3-.1.5-.2.8-.1.2-.3.4-.5.6-.2.1-.3.3-.5.3l-.6.2c-.1-.1-.1-.1-.2-.1zm-6.6 2.3l-18.9 19-.2.2c-.5.5-1 1-1.1 1.7 0 .2 0 .4.1.6.1.2.2.4.4.5l.1.1.5.3c.2.1.5.1.7 0 .1 0 .2-.1.4-.1.1 0 .2-.1.3-.2.3-.2.5-.4.7-.6l.1-.1 19.2-19.1c.5.4 1 .3 1.5-.1.4.3.7.6 1 .9.4.4.8.9 1.1 1.4.3.5.5.9.7 1.4v.1-5.1l-.7-.7.2-.2c.4-.4.3-1.1-.1-1.5l-2.3-2.2c-.4-.4-1-.4-1.4.1l-2.1 2.1-.1.1c-.4.2-.6.8-.1 1.4zm6.6 6.9v3.2h-.2c-.3 0-.5-.1-.8-.2-.3-.1-.5-.2-.7-.3l-.6-.4-.5-.5c-.2-.3-.3-.5-.4-.8-.1-.3-.2-.5-.2-.8 0-.3.1-.5.2-.8.1-.3.3-.5.5-.7.2-.2.4-.3.7-.4.2-.1.5-.1.8 0 .1 0 .3.1.4.2l.3.3c.1.1.2.3.3.5.1.2.1.4.1.6l.1.1zm0-13.3v4h-.4c-.2 0-.4-.1-.6-.2-.2-.1-.4-.3-.5-.4-.2-.2-.3-.4-.4-.7-.1-.2-.1-.5-.1-.8 0-.3.1-.5.2-.8.1-.2.3-.5.5-.6.2-.2.4-.3.7-.4l.6-.1z" id="Shape" fill="#fff"/><path d="M86.4 46.2c.8.8 2.3 2 4.5 2.4.1.8 0 1.4-.1 1.9-.2.6-.5 1-.9 1.3-.4.3-.9.5-1.3.5-.5.1-.9.1-1.3 0 .1-.7-.2-1.6-.8-2.5l-.2-.3v1l.1.2h-.1v.6c.3.3.5.7.4 1.1 0 .1 0 .2.1.2l.4.2c.4.1 1 .1 1.5 0s1.1-.3 1.6-.6c.5-.4.9-.9 1.1-1.5.2-.6.3-1.4.1-2.3 0-.1-.1-.2-.1-.2-.3-.1-.5-.1-.7-.5-.1-.2-.2-.5-.1-.8 0-.4.3-.7.6-1 .3-.2.7-.3 1.2-.2.4 0 .8.2 1.1.5.3.3.5.7.6.9.1.2.1.3.1.5.1.9.1 2.1-.4 3.3-.4 1-1.1 2.1-2.3 2.9-1.8 1.4-3.3 1.8-4.5 1.7l-.6-.1v.6l.5.1c1.3.1 3-.3 4.9-1.8 1.3-1 2-2.1 2.5-3.2.6-1.4.6-2.8.4-3.8 0-.1 0-.2-.1-.3-.1-.3-.3-.8-.7-1.3-.2-.2-.4-.4-.7-.5-.4-.2-.9-.3-1.4-.2-.3 0-.6.2-.9.3-.5.3-.8.8-.9 1.4 0 .4 0 .8.2 1.1-1.6-.5-2.7-1.4-3.3-2 .3-.3.4-.6.4-1 0-.3-.1-.6-.3-.8l-.2-.2-.3-.3c.1 0 .1 0 .2.1h.5c.5 0 1-.2 1.4-.6.4-.4.7-.9.8-1.6 0-.6-.2-1.2-.6-1.6-.4-.4-.9-.7-1.6-.8-.3 0-.6 0-.9.1v.4c.3-.1.6-.2.9-.2.5 0 1 .3 1.3.6.3.4.5.8.5 1.4 0 .5-.3 1-.6 1.3-.3.3-.7.4-1.1.5h-.5l-.4-.1v1c.1.1.2.2.2.3.1.1.1.3.1.5s-.1.4-.2.5c0 .1-.1.1-.2.2v.7h.1zm-.1-4.1v-1.7c.2-.2.5-.3.8-.3.6 0 1.1.6 1.1 1.2s-.6 1.1-1.2 1.1c-.3 0-.5-.1-.7-.3zm0 7.4l-.6-.7v.8l.3.5c.1.1.2.3.2.4v-1h.1zm-.6-2.6l.6-.6v-.7c-.1.2-.4.4-.6.6v.7zm.6-7.8v.4c-.2.1-.4.2-.5.3l-.1.1v-.5l.6-.3zm0 1.3v1.7c-.3-.2-.4-.6-.4-.9 0-.3.1-.6.4-.8zm0 2.6v1l-.6-.6v-.9c.2.2.4.4.6.5zm0 7.6v.6l-.3-.2-.2-.1v-.5h.1c.1.1.2.1.4.2zm0 4.8v.6c-.2 0-.4-.1-.6-.2v-.6c.2.1.4.2.6.2zm-.6-6.6l-.4-.4v.7l.4.5v-.8zm-.4-1.5l.4-.4v-.7l-.4.4v.7zm.4-7.9v.5c-.2.2-.3.4-.4.6v-.8c.1-.1.1-.2.2-.2l.2-.1zm0 3.2v.9l-.4-.4v-1.1c.1.2.2.3.4.6zm0 7.8v.6h-.4v-.5c.1-.1.3-.1.4-.1zm0 4.8v.6l-.4-.2v-.6l.1.1.3.1zm-.4-10v-.8c.2.2.2.6 0 .8zm0 3.2l-.2-.2v.7l.2.2v-.7zm-.2-.9l.2-.2v-.8l-.2.2v.8zm.2-7.7v.8c-.1.2-.1.4-.1.6 0 .3 0 .6.1.8v1.1l-.2-.2v-2.8c0-.1.1-.2.2-.3zm0 4.6v.8l-.2.2v-1.2l.2.2zm0 6v.5h-.2v-.5h.2zm0 4.6v.6s-.1-.1-.2-.1h-.1v-.6l.3.1zm-.2-6.8c-.1-.1-.2-.2-.4-.3l.4-.4v-.8c-.5.5-.9.9-1.1 1-.4.4-1 .2-1.1 0l-.9-.9v.8l.4.4-.4.4v.8l.9-.9c.2.1.4.2.7.2.3 0 .6-.1.9-.3.3.2.5.4.7.6v-.6h-.1zm0-8.1v2.8l-1-1c-.2-.2-.4-.2-.6-.2-.2 0-.3.1-.5.2l-.2.2-.8.8v-.9l.4-.4c.1-.1.1-.2.2-.2.3-.2.6-.3.9-.3.3 0 .7.1 1 .4l.4.4c-.1-.2-.1-.5-.1-.7 0-.5.1-.8.3-1.1zm0 4.1v1.2l-1.2 1.2c-.2.2-.6.2-.9 0l-1.1-1.1v-1.4l1.1-1.1c.2-.2.6-.2.9 0l1.2 1.2zm0 6.2v.6c-.2.1-.5.2-.7.4-.4.3-.6.9-.6 1.3s.2 1 .6 1.5c.2.2.4.5.7.7v.6c-.4-.3-.8-.6-1.1-1-.5-.6-.7-1.3-.7-1.9 0-.6.3-1.3.7-1.7.3-.2.7-.4 1.1-.5zm-3.2-8.4v.8l-.6.6v-.8l.6-.6zm0 2.1v1.4l-.3-.3c-.2-.2-.2-.6 0-.9l.3-.2zm0 2.7v.8l-.2-.2-.5.5v-1.7l.7.6zm0 1.7v.8l-.6.6v-.8l.6-.6zm-.6-5.9v.8l-.6.6-.4.4c-.1.1-.1.3-.1.4 0 .1 0 .3.1.4l.3.4.6.6v1.7l-18.6 18.6c-.3.3-.7.3-.9 0-.3-.3-.3-.7 0-1l19.1-19.1-.5-.5-.1-.1-18.6 18.7c-.5.5-1.1 1-1.2 1.8 0 .4.1.7.4 1.1.4.4.8.4 1.2.4.2 0 .4-.1.7-.3.3-.2.6-.5.8-.7l17.8-17.8v.8l-17.5 17.5c-.5.5-1 .9-1.7 1.1-.3.1-.6 0-1-.1-.3-.1-.5-.3-.7-.5-.3-.3-.5-.7-.5-1v-.4c.1-.6.4-1.2.8-1.6l19.2-19.3c-.1-.2-.2-.4-.2-.7 0-.2.1-.5.2-.7.1-.2.3-.4.4-.5l1-1zM86.5 46.8s1.8 1.9 4 2.2c.2 1.1-.1 1.8-.6 2.2-.7.7-1.6.8-2.3.6.2-1-.9-3-2.3-3.9l1.2-1.1zM84.9 53.8c-.1-.1-.1-.3-.1-.4.1-.1.3-.1.4-.1 0 0 .6.8 1.8.9 1.1.1 2.7-.4 4.2-1.8.9-.9 1.5-1.9 1.7-2.8.3-1.2.1-2.1-.3-2.6-.1-.1-.1-.3 0-.4.1-.1.3-.1.4 0 .5.6.7 1.8.3 3.1-.2 1-.8 2.1-1.8 3.1-1.6 1.6-3.4 2.1-4.6 2-1.4-.1-2-1-2-1z" fill="#DA2128"/></g></svg>