<svg width="26" height="43" viewBox="0 0 26 43" xmlns="http://www.w3.org/2000/svg" xmlns:sketch="http://www.bohemiancoding.com/sketch/ns"><title>ok</title><path d="M24.6 22.5c-.6-1.2-2.2-2.2-4.4-.5-2.9 2.3-7.7 2.3-7.7 2.3s-4.7 0-7.7-2.3c-2.2-1.7-3.8-.7-4.4.5-1 2.1.1 3.1 2.8 4.8 2.2 1.4 5.3 2 7.3 2.2l-1.7 1.7-6.2 6.2c-.9.9-.9 2.5 0 3.4l.3.3c.5.5 1.1.7 1.7.7.6 0 1.2-.2 1.7-.7l6.2-6.2 6.2 6.2c.9.9 2.5.9 3.4 0l.3-.3c.9-.9.9-2.5 0-3.4l-6.2-6.2-1.7-1.7c2-.2 5-.7 7.3-2.2 2.6-1.7 3.8-2.7 2.8-4.8zm-12.1-16.9c2.8 0 5.1 2.3 5.1 5.1s-2.3 5.1-5.1 5.1-5.1-2.3-5.1-5.1 2.3-5.1 5.1-5.1zm0 15.6c5.8 0 10.5-4.7 10.5-10.5s-4.7-10.5-10.5-10.5-10.5 4.7-10.5 10.5 4.7 10.5 10.5 10.5z" sketch:type="MSShapeGroup" fill="#231F20"/></svg>