<svg width="79" height="80" viewBox="0 0 79 80" xmlns="http://www.w3.org/2000/svg" xmlns:sketch="http://www.bohemiancoding.com/sketch/ns"><title>radia</title><path d="M70.6 67.9c-3.3-4.7-18.4-26.9-18.4-26.9 4.5-1.7 8-4.3 10.5-7.7 2.5-3.4 3.8-7.2 3.8-11.3 0-3.1-.6-6-1.8-8.6-1.2-2.6-3-4.8-5.3-6.7-2.3-1.9-5.1-3.3-8.4-4.3-11-3.4-26.5-1.4-37.9-1.5-3.7 0-6.4-.1-9.9-.6-.6-.1-1.6-.4-2.2.2-.7.7-.6 1.4-.1 2.2 1.5 2.2 2.5 3.7 3.9 5.9 1.5 2.2 4.1 2.6 6.5 2.8 3.3.2 6.6.2 9.9.2 1.9 0 3.9-.1 5.8-.2 4.4-.2 8.9-.5 13.3.2 5.8.9 10.7 4.7 10.2 11-.3 3.9-1.8 7.6-5.1 9.8-4.2 2.9-9.3 3-14.2 3-2.8 0-3-.1-5.9-.4-.7-.1-1.4.1-1.6.8-.3.8-.1 1.1.5 1.9.5.7 3 4.5 3.8 5.6.7 1 1.9 1.4 3 1.8 6.8 2 10.8 6.5 14.6 12.3 1.9 2.9 3.8 5.9 5.8 8.8 1.1 1.6 2.3 3.2 3.5 4.7 2.9 3.5 6.7 5 10.9 6.2 3.4.9 7.1 1.2 10.1 1.3 3.1.1 2.7-1.9 1.5-2.8-2.7-2.3-4.6-4.5-6.8-7.7z" sketch:type="MSShapeGroup" fill="#fff"/></svg>