<svg width="408" height="50" viewBox="0 0 408 50" xmlns="http://www.w3.org/2000/svg" xmlns:sketch="http://www.bohemiancoding.com/sketch/ns"><title>ribbon1</title><desc>Created with Sketch.</desc><g sketch:type="MSShapeGroup" fill="none"><g fill="#1372C9"><path d="M362 12.7c15.1 1.3 30.1 2.8 45.2 4.4-5.4 3.9-8.1 11.3-13.5 15.3 4.4 5.4 5.8 12.2 10.9 17.6-14.9-1.6-29.7-3.1-44.6-4.4.7-7.8 1.3-25.2 2-32.9zM46.1 12.7c-15.1 1.3-30.1 2.8-45.2 4.4 5.4 3.9 8.1 11.3 13.5 15.3-4.4 5.4-5.3 12.2-10.9 17.6 14.9-1.6 29.7-3.1 44.6-4.4-.7-7.8-1.3-25.2-2-32.9z" id="Shape"/></g><path d="M360.9 32l9.3 1.9 2.5 7.1-12.7 4.6.9-13.6zM47.2 32l-9.3 1.9-2.4 7.1 12.6 4.6-.9-13.6z" id="Shape" fill="#78CFFE"/><path d="M33.3 8c113.7-10.1 227.8-10.1 341.5 0-.7 7.8-1.4 25.2-2.2 32.9-112.3-10-224.9-10-337.2 0-.7-7.7-1.4-25.1-2.1-32.9z" id="Shape" fill="#1372C9"/><path d="M123.878 12.4c.134 1.733.267 3.467.267 5.333l-3.34.133c-.134-1.733-.267-3.467-.267-5.333l-2.538.133c.267 4.4.534 8.8.802 13.333.802 0 1.603-.133 2.538-.133l-.401-5.867c1.069 0 2.137-.133 3.34-.133l.401 5.867c.802 0 1.603-.133 2.538-.133-.267-4.4-.534-8.933-.802-13.333l-2.538.133zm12.691-.8c-.935 4.533-1.737 9.067-2.672 13.467.802 0 1.603-.133 2.538-.133l.668-3.333 3.473-.133.935 3.333c.802 0 1.603-.133 2.538-.133l-4.008-13.2c-1.069.133-2.271.133-3.473.133zm.935 7.867c.401-2.267.668-3.733.802-4.4.134-.667.134-1.2.267-1.733 0 .267.134.8.401 1.467.134.8.267 1.2.401 1.467l.802 3.067c-1.069 0-1.87.133-2.672.133zm23.646-8.8c.134 3.733.267 7.467.401 11.067-.935 0-1.87 0-2.939.133-.134-3.733-.267-7.467-.401-11.067-.802 0-1.603 0-2.538.133.134 3.733.267 7.467.401 11.067-.935 0-1.87.133-2.939.133-.134-3.733-.267-7.467-.401-11.067-.802 0-1.737 0-2.538.133.134 4.4.401 8.933.534 13.333l13.226-.4-.401-13.333c-.668-.133-1.603-.133-2.405-.133zm12.691-.4l-3.073 13.467h2.538l.668-3.333c1.202 0 2.271 0 3.473-.133l.802 3.333h2.538l-3.607-13.333h-3.34zm.668 7.867c.401-2.267.802-3.733.802-4.267.134-.667.134-1.2.267-1.733 0 .267.134.8.267 1.467.134.8.267 1.2.267 1.467l.802 3.067h-2.405zm29.658 2.4l-2.405-10.4h-3.874c0 4.4 0 8.933.134 13.333h2.271v-8.933c0-.667 0-1.467-.134-2.4h.134c.935 3.733 1.737 7.6 2.538 11.333h2.672c.802-3.733 1.737-7.6 2.538-11.333h.134c-.134.8-.134 1.6-.134 2.267v9.067h2.405v-13.333h-3.874c-.802 3.333-1.603 6.8-2.405 10.4zm16.432-.933l.134-2.267c0-2.4 0-4.933.134-7.333h-2.271l-.134 13.333h3.073l4.275-9.6h.134c-.134.667-.267 1.467-.267 2.4 0 2.4 0 4.933-.134 7.333h2.271l.134-13.333h-3.073c-1.47 3.2-2.805 6.4-4.275 9.467zm19.905-7.2c.401 0 .668.133 1.069.267l.935.533c.267-.667.534-1.333.935-2-.534-.4-.935-.533-1.47-.8-.401-.133-.935-.267-1.47-.267-1.47 0-2.672.533-3.607 1.733-.802 1.2-1.336 2.933-1.336 5.067 0 2.133.267 3.867 1.069 5.067.802 1.2 1.87 1.867 3.473 1.867 1.069 0 1.87-.133 2.538-.533v-2.267c-.802.4-1.603.667-2.271.667-1.603 0-2.405-1.6-2.271-4.667 0-1.467.267-2.667.668-3.467.401-.8.935-1.2 1.737-1.2zm14.295.4c.401 0 .668.133 1.069.267.267.133.534.4.935.533l.935-2c-.534-.4-.935-.667-1.47-.8-.401-.133-.935-.267-1.47-.267-1.47 0-2.672.533-3.607 1.733-.935 1.2-1.336 2.8-1.47 5.067 0 2.133.267 3.867 1.069 5.067.802 1.2 1.87 1.867 3.473 1.867 1.069 0 1.87-.133 2.538-.533 0-.8 0-1.467.134-2.267-.802.4-1.603.667-2.271.533-1.603 0-2.405-1.6-2.271-4.667 0-1.467.267-2.667.802-3.467.267-.667.802-1.067 1.603-1.067zm11.89 8l.134-2.267c.134-2.4.267-4.933.267-7.333-.802 0-1.603 0-2.271-.133-.134 4.4-.401 8.933-.534 13.333l3.073.133c1.47-3.2 3.073-6.267 4.542-9.467h.134c-.134.667-.267 1.467-.267 2.4-.134 2.4-.267 4.8-.401 7.333l2.271.133.668-13.333-3.073-.133c-1.603 3.067-3.073 6.267-4.542 9.333zm19.505-8.533c-2.805-.133-4.141 1.2-4.275 3.867 0 .8 0 1.467.267 2 .267.533.668 1.067 1.202 1.467-.935 1.867-1.87 3.733-2.805 5.733l2.672.133 2.405-5.067h.935l-.267 5.2c.802 0 1.603.133 2.538.133.267-4.4.534-8.933.802-13.333-1.336 0-2.405-.133-3.473-.133zm.401 6h-.668c-.534 0-1.069-.267-1.202-.533-.267-.4-.267-.8-.267-1.467s.267-1.2.534-1.467c.267-.267.668-.4 1.336-.4h.668c-.267 1.333-.401 2.533-.401 3.867z" fill="#fff"/></g></svg>