<svg width="408" height="50" viewBox="0 0 408 50" xmlns="http://www.w3.org/2000/svg" xmlns:sketch="http://www.bohemiancoding.com/sketch/ns"><title>ribbon</title><g sketch:type="MSShapeGroup" fill="none"><g fill="#1372C9"><path d="M362 12.7c15.1 1.3 30.1 2.8 45.2 4.4-5.4 3.9-8.1 11.3-13.5 15.3 4.4 5.4 5.8 12.2 10.9 17.6-14.9-1.6-29.7-3.1-44.6-4.4.7-7.8 1.3-25.2 2-32.9zM46.1 12.7c-15.1 1.3-30.1 2.8-45.2 4.4 5.4 3.9 8.1 11.3 13.5 15.3-4.4 5.4-5.3 12.2-10.9 17.6 14.9-1.6 29.7-3.1 44.6-4.4-.7-7.8-1.3-25.2-2-32.9z" id="Shape"/></g><path d="M360.9 32l9.3 1.9 2.5 7.1-12.7 4.6.9-13.6zM47.2 32l-9.3 1.9-2.4 7.1 12.6 4.6-.9-13.6z" id="Shape" fill="#78CFFE"/><path d="M33.3 8c113.7-10.1 227.8-10.1 341.5 0-.7 7.8-1.4 25.2-2.2 32.9-112.3-10-224.9-10-337.2 0-.7-7.7-1.4-25.1-2.1-32.9z" fill="#1372C9"/></g></svg>