<svg width="341" height="65" viewBox="0 0 341 65" xmlns="http://www.w3.org/2000/svg" xmlns:sketch="http://www.bohemiancoding.com/sketch/ns"><title>ribbon2</title><desc>Created with Sketch.</desc><g sketch:type="MSShapeGroup" fill="none"><g fill="#1372C9"><path d="M302.315 10.721c12.645 1.097 25.207 2.364 37.852 3.714-4.522 3.292-6.783 9.539-11.305 12.916 3.685 4.558 4.857 10.299 9.128 14.857-12.478-1.351-24.872-2.617-37.35-3.714.586-6.584 1.089-21.273 1.675-27.773zM37.768 10.721c-12.645 1.097-25.207 2.364-37.852 3.714 4.522 3.292 6.783 9.539 11.305 12.916-3.685 4.558-4.438 10.299-9.128 14.857 12.478-1.351 24.872-2.617 37.35-3.714-.586-6.584-1.089-21.273-1.675-27.773z" id="Shape"/></g><path d="M301.394 27.013l7.788 1.604 2.094 5.994-10.635 3.883.754-11.481zM38.69 27.013l-7.788 1.604-2.01 5.994 10.552 3.883-.754-11.481z" id="Shape" fill="#78CFFE"/><path d="M27.049 6.753c95.217-8.526 190.768-8.526 285.985 0-.586 6.584-1.172 21.273-1.842 27.773-94.044-8.442-188.34-8.442-282.384 0-.586-6.5-1.172-21.188-1.759-27.773z" id="Shape" fill="#1372C9"/><path d="M112.885 11.952h-.293l-.098-1.279-1.859.098.098 1.279h-.196c-.685 0-1.272.197-1.859.59-.489.394-.88.886-1.076 1.476-.196.59-.293 1.279-.293 2.066.098 1.279.489 2.165 1.076 2.854.685.689 1.565.984 2.739.886h.098l.098 1.574 1.859-.098-.098-1.574h.098c.783 0 1.37-.197 1.957-.59.489-.394.88-.886 1.174-1.476.293-.59.391-1.378.293-2.165-.098-1.181-.391-2.165-1.076-2.854-.685-.59-1.565-.886-2.641-.787zm-1.859 6.495c-.489 0-.88-.197-1.272-.59-.293-.394-.489-1.082-.587-1.87 0-.787 0-1.378.293-1.771.196-.394.587-.689 1.076-.689h.196c.196 1.673.293 3.247.293 4.92zm3.131-.787c-.293.492-.685.689-1.174.689h-.098l-.293-4.92h.196c.489 0 .88.197 1.174.59.293.394.489.984.489 1.771.098.787 0 1.378-.293 1.87zm11.544-7.675c-1.272.098-2.152.59-2.739 1.476-.587.984-.88 2.263-.783 4.034.098 1.771.489 3.05 1.174 4.034.685.886 1.663 1.279 2.837 1.279 1.174-.098 2.152-.59 2.739-1.574.587-.984.88-2.362.783-4.034-.098-1.771-.489-3.05-1.174-3.936-.685-.984-1.663-1.378-2.837-1.279zm.391 9.053c-.587 0-1.076-.295-1.37-.886-.293-.59-.489-1.476-.587-2.755-.098-1.181.098-2.165.293-2.755.293-.689.685-.984 1.272-.984 1.174-.098 1.859 1.181 1.957 3.641.098 2.46-.391 3.739-1.565 3.739zm14.479-9.447l-6.065.197c0 .59 0 1.181.098 1.673.685 0 1.37 0 2.054-.098.098 2.952.196 5.904.293 8.856.685 0 1.272 0 1.957-.098-.098-2.952-.196-5.904-.293-8.856.685 0 1.37 0 2.054-.098-.098-.492-.098-1.082-.098-1.574zm8.805-.394c-1.272 0-2.152.492-2.837 1.476-.587.984-.978 2.263-.88 4.034 0 1.771.391 3.05 1.076 4.034.685.886 1.663 1.378 2.837 1.378 1.174 0 2.152-.492 2.739-1.476.587-.984.978-2.263.88-4.034 0-1.771-.391-3.05-1.076-4.034-.587-.984-1.565-1.476-2.739-1.378zm.196 9.053c-.587 0-1.076-.295-1.37-.886-.293-.59-.489-1.574-.489-2.755 0-1.181.098-2.165.391-2.755.293-.59.783-.984 1.37-.984 1.174 0 1.761 1.181 1.859 3.641 0 2.46-.587 3.739-1.761 3.739zm14.381-9.151c-1.565 0-3.131 0-4.794.098l.098 10.529h1.957l-.098-8.856h2.739c.098-.689.098-1.181.098-1.771zm6.652-.098c-.88 3.542-1.761 7.085-2.544 10.627h1.957l.587-2.657h2.739l.587 2.657h1.957l-2.641-10.627h-2.641zm.293 6.199c.391-1.771.685-2.952.783-3.444.098-.492.196-.984.196-1.378 0 .197.098.59.196 1.181l.196 1.082.587 2.46c-.587.098-1.272.098-1.957.098zm11.348-.59c-.196 1.476-.391 2.46-.489 2.854-.098.394-.391.59-.587.59-.196 0-.391 0-.489-.098v1.574c.293.098.587.197.978.197.587 0 1.174-.197 1.467-.689.391-.492.685-1.181.783-2.263.196-1.574.489-3.542.685-6.002h1.565l-.098 8.856h1.957l.196-10.529c-1.761 0-3.522 0-5.283-.098-.293 2.263-.489 4.133-.685 5.609zm12.033 5.215l4.696.098v-1.673c-.978 0-1.859 0-2.837-.098 0-.984 0-1.968.098-2.952.88 0 1.761 0 2.641.098v-1.673c-.88 0-1.761 0-2.641-.098 0-.787 0-1.673.098-2.46.978 0 1.859 0 2.837.098v-1.673l-4.794-.098c0 3.444 0 6.888-.098 10.431zm13.696-10.135c-.88 0-1.761-.098-2.739-.098-.098 3.542-.196 6.987-.293 10.529.685 0 1.272 0 1.957.098l.098-3.838h.489c1.076 0 1.859-.197 2.446-.787.587-.59.88-1.378.978-2.558.098-2.165-.88-3.346-2.935-3.346zm.587 4.625c-.293.295-.587.394-1.076.394h-.391c0-1.082.098-2.165.098-3.346h.489c.489 0 .783.197.978.394.196.295.293.689.293 1.279s-.098.984-.391 1.279zm7.924 6.199l4.696.197c0-.59.098-1.181.098-1.673-.978 0-1.859-.098-2.739-.098l.098-2.952 2.641.098c0-.59.098-1.181.098-1.673l-2.641-.098.098-2.46 2.837.098.098-1.673-4.794-.197c-.196 3.444-.391 6.888-.489 10.431zm14.185-9.84c-2.152-.098-3.326.886-3.424 3.05 0 .59 0 1.181.196 1.673s.489.787.978 1.181c-.783 1.476-1.467 2.952-2.25 4.526.685 0 1.37.098 2.152.098l1.859-4.034h.685c-.098 1.378-.196 2.755-.196 4.133l1.957.098.587-10.529c-.783-.098-1.663-.197-2.544-.197zm.293 4.822h-.489c-.489 0-.783-.197-.978-.492-.196-.295-.293-.689-.196-1.181 0-.492.196-.886.391-1.082.196-.197.587-.295.978-.295h.489c0 .984-.098 1.968-.196 3.05z" fill="#fff"/><path d="M39.016 54.347c-1.64 0-3.006 1.377-3.006 3.03 0 1.653 1.366 3.03 3.006 3.03 1.435 0 2.528-1.033 2.869-2.341h102.338v-1.171h-102.338c-.205-1.446-1.366-2.548-2.869-2.548zm143.191-3.856c-2.869.895-5.602 4.201-7.925 5.991l-.478.344c1.571-1.859-1.913-4.132-3.552-4.063.615-.551 1.298-.689 2.049-.826-1.776-1.653-3.484-2.135-5.875-1.515-3.279.826-3.894 3.168-5.875 5.303.82-1.24.342-3.443-.41-4.545-.888 1.928-.751 4.476-2.938 6.06-1.571 1.171-4.782 1.24-5.67-.826.751.551 2.254.551 2.938.207-1.298-.62-.615-2.961.751-3.168l.205-.207c-.888-1.515-3.689-.275-4.577.551-1.571 1.377-2.118 4.201-1.708 6.267.683 3.719 5.192 5.371 8.471 4.338 2.869-.895 5.602-4.201 7.925-5.991l.478-.344c-1.571 1.859 1.913 4.132 3.552 4.063-.615.551-1.298.689-2.049.826 1.776 1.653 3.484 2.135 5.875 1.515 3.279-.826 3.894-3.168 5.875-5.303-.82 1.24-.342 3.443.41 4.614.888-1.928.751-4.476 2.938-6.06 1.571-1.171 4.782-1.24 5.67.826-.683-.551-2.186-.551-2.938-.207 1.298.62.615 3.03-.751 3.168l-.205.207c.888 1.584 3.689.275 4.577-.551 1.571-1.377 2.118-4.201 1.776-6.267-.683-3.856-5.192-5.44-8.54-4.407zm-29.513 3.512c.137-.138.342 0 .342.138l-.137.826c0 .275-.137.482-.068.758h-.068c-.205-.207-.342-.482-.342-.758.068-.344.068-.689.273-.964zm34.431 6.749c-.137.138-.342 0-.342-.138l.137-.826c0-.275.137-.482.068-.758h.068c.205.207.342.482.342.758-.068.344-.068.758-.273.964zm-22.681-7.851c.547-.689 1.571-1.033 2.459-.895v.069c-.888.138-1.64.551-2.323 1.102-.137 0-.273-.207-.137-.275zm3.826.413c.068 0 .068.069 0 .069-1.64.344-2.938 1.24-4.236 2.341l-3.074 3.03c-.273.275-.683-.069-.547-.413 1.571-2.548 4.85-4.752 7.856-5.027zm-11.955 6.06c1.776-1.24 3.279-2.548 3.826-4.82-.342 2.204-1.571 4.338-3.689 5.165-.205.069-.273-.207-.137-.344zm-2.254 1.446c.751 0 1.435 0 2.186-.069-.683.207-1.435.344-2.186.344-.205-.069-.205-.275 0-.275zm-1.503 1.033c1.23.344 2.528.689 3.826.275 1.161-.344 2.118-.964 3.006-1.859h.068c-1.708 2.273-4.372 3.099-6.968 1.997-.342 0-.273-.482.068-.413zm-.683-2.066c-.751-.482-1.64-1.515-1.503-2.479 0-.138.205-.138.273-.069.205.344.205.826.41 1.24.137.482.478.895.82 1.308zm.137 3.03c-.137-.069 0-.207.068-.138 1.64.689 3.347 1.171 5.124.413 1.435-.62 2.664-1.653 3.757-2.755 2.118-2.066 4.236-4.545 7.31-4.958v.069c-5.739 1.102-9.496 12.051-16.259 7.368zm14.073-4.958c2.118-1.377 5.739-2.823 7.651-.895-2.118 1.377-5.807 2.823-7.651.895zm9.359 4.063c-.547.689-1.571 1.033-2.459.895v-.069c.888-.138 1.64-.551 2.323-1.102.068 0 .205.138.137.275zm-3.826-.482c1.64-.413 2.938-1.308 4.167-2.41l3.074-3.03c.273-.275.683.069.478.413-1.503 2.617-4.782 4.752-7.72 5.027zm11.887-5.991c-1.776 1.24-3.279 2.548-3.826 4.82.342-2.204 1.571-4.338 3.689-5.165.205-.138.342.207.137.344zm2.323-1.446c-.751 0-1.435-.069-2.186.069.683-.207 1.435-.344 2.186-.344.137 0 .137.275 0 .275zm1.503-1.102c-1.23-.344-2.528-.689-3.826-.275-1.161.344-2.118.964-3.006 1.859h-.068c1.708-2.273 4.372-3.099 6.968-1.997.342.069.205.482-.068.413zm.41-.758c-1.64-.689-3.347-1.171-5.124-.413-1.435.62-2.664 1.653-3.757 2.755-2.118 2.066-4.236 4.545-7.31 4.958v-.069c5.739-1.171 9.496-12.12 16.259-7.437.137.138 0 .275-.068.207zm1.503 5.371c-.205-.344-.205-.826-.41-1.24-.205-.482-.478-.895-.888-1.24v-.069c.751.482 1.64 1.515 1.503 2.479 0 .207-.137.207-.205.069zm111.97-3.168c-1.503 0-2.664 1.102-2.869 2.548h-102.338v1.171h102.406c.342 1.308 1.435 2.341 2.869 2.341 1.64 0 3.006-1.377 3.006-3.03-.068-1.653-1.366-3.03-3.074-3.03z" fill="#85BCE6"/></g></svg>