<svg width="20" height="20" viewBox="0 0 20 20" xmlns="http://www.w3.org/2000/svg" xmlns:sketch="http://www.bohemiancoding.com/sketch/ns"><title>search</title><path d="M19.792 16.764l-4.405-4.462c.717-1.252 1.091-2.644 1.091-4.047 0-4.551-3.699-8.255-8.239-8.255-4.54 0-8.239 3.704-8.239 8.255s3.699 8.255 8.239 8.255c1.449 0 2.883-.4 4.161-1.164l4.384 4.447c.099.099.239.161.379.161s.281-.057.379-.161l2.249-2.275c.208-.213.208-.545 0-.753zm-11.553-13.548c2.774 0 5.029 2.26 5.029 5.039s-2.255 5.039-5.029 5.039-5.029-2.26-5.029-5.039 2.255-5.039 5.029-5.039z" sketch:type="MSShapeGroup" fill="#fff"/></svg>