<svg width="42" height="34" viewBox="0 0 42 34" xmlns="http://www.w3.org/2000/svg" xmlns:sketch="http://www.bohemiancoding.com/sketch/ns"><title>twitter</title><path d="M41 4.7c-1.5.7-3.1 1.1-4.7 1.3 1.7-1 3-2.6 3.6-4.6-1.6.9-3.4 1.6-5.2 2-1.5-1.6-3.7-2.6-6-2.6-4.6 0-8.3 3.7-8.3 8.3 0 .6.1 1.3.2 1.9-6.9-.3-12.9-3.6-17-8.6-.7 1.2-1.1 2.6-1.1 4.2 0 2.9 1.5 5.4 3.7 6.9-1.4 0-2.6-.4-3.7-1v.1c0 4 2.8 7.3 6.6 8.1-.7.2-1.4.3-2.2.3-.5 0-1-.1-1.6-.1 1.1 3.3 4.1 5.7 7.7 5.7-2.8 2.2-6.4 3.5-10.3 3.5-.7 0-1.3 0-2-.1 3.7 2.3 8 3.7 12.7 3.7 15.2 0 23.5-12.6 23.5-23.5v-1.1c1.6-1.3 3-2.8 4.1-4.4z" sketch:type="MSShapeGroup" fill="#231F20"/></svg>