<svg width="394" height="23" viewBox="0 0 394 23" xmlns="http://www.w3.org/2000/svg" xmlns:sketch="http://www.bohemiancoding.com/sketch/ns"><title>vensel-2</title><path d="M5 6.5c-2.4 0-4.4 2-4.4 4.4 0 2.4 2 4.4 4.4 4.4 2.1 0 3.7-1.5 4.2-3.4h149.8v-1.7h-149.8c-.3-2.1-2-3.7-4.2-3.7zm209.6-5.6c-4.2 1.3-8.2 6.1-11.6 8.7l-.7.5c2.3-2.7-2.8-6-5.2-5.9.9-.8 1.9-1 3-1.2-2.6-2.4-5.1-3.1-8.6-2.2-4.8 1.2-5.7 4.6-8.6 7.7 1.2-1.8.5-5-.6-6.6-1.3 2.8-1.1 6.5-4.3 8.8-2.3 1.7-7 1.8-8.3-1.2 1.1.8 3.3.8 4.3.3-1.9-.9-.9-4.3 1.1-4.6l.3-.3c-1.3-2.2-5.4-.4-6.7.8-2.3 2-3.1 6.1-2.5 9.1 1 5.4 7.6 7.8 12.4 6.3 4.2-1.3 8.2-6.1 11.6-8.7l.7-.5c-2.3 2.7 2.8 6 5.2 5.9-.9.8-1.9 1-3 1.2 2.6 2.4 5.1 3.1 8.6 2.2 4.8-1.2 5.7-4.6 8.6-7.7-1.2 1.8-.5 5 .6 6.7 1.3-2.8 1.1-6.5 4.3-8.8 2.3-1.7 7-1.8 8.3 1.2-1-.8-3.2-.8-4.3-.3 1.9.9.9 4.4-1.1 4.6l-.3.3c1.3 2.3 5.4.4 6.7-.8 2.3-2 3.1-6.1 2.6-9.1-1-5.6-7.6-7.9-12.5-6.4zm-43.2 5.1c.2-.2.5 0 .5.2l-.2 1.2c0 .4-.2.7-.1 1.1h-.1c-.3-.3-.5-.7-.5-1.1.1-.5.1-1 .4-1.4zm50.4 9.8c-.2.2-.5 0-.5-.2l.2-1.2c0-.4.2-.7.1-1.1 0 0 0-.1.1 0 .3.3.5.7.5 1.1-.1.5-.1 1.1-.4 1.4zm-33.2-11.4c.8-1 2.3-1.5 3.6-1.3v.1c-1.3.2-2.4.8-3.4 1.6-.2 0-.4-.3-.2-.4zm5.6.6c.1 0 .1.1 0 .1-2.4.5-4.3 1.8-6.2 3.4l-4.5 4.4c-.4.4-1-.1-.8-.6 2.3-3.7 7.1-6.9 11.5-7.3zm-17.5 8.8c2.6-1.8 4.8-3.7 5.6-7-.5 3.2-2.3 6.3-5.4 7.5-.3.1-.4-.3-.2-.5zm-3.3 2.1c1.1 0 2.1 0 3.2-.1-1 .3-2.1.5-3.2.5-.3-.1-.3-.4 0-.4zm-2.2 1.5c1.8.5 3.7 1 5.6.4 1.7-.5 3.1-1.4 4.4-2.7h.1c-2.5 3.3-6.4 4.5-10.2 2.9-.5 0-.4-.7.1-.6zm-1-3c-1.1-.7-2.4-2.2-2.2-3.6 0-.2.3-.2.4-.1.3.5.3 1.2.6 1.8.2.7.7 1.3 1.2 1.9zm.2 4.4c-.2-.1 0-.3.1-.2 2.4 1 4.9 1.7 7.5.6 2.1-.9 3.9-2.4 5.5-4 3.1-3 6.2-6.6 10.7-7.2 0 0 .1 0 0 .1-8.4 1.6-13.9 17.5-23.8 10.7zm20.6-7.2c3.1-2 8.4-4.1 11.2-1.3-3.1 2-8.5 4.1-11.2 1.3zm13.7 5.9c-.8 1-2.3 1.5-3.6 1.3v-.1c1.3-.2 2.4-.8 3.4-1.6.1 0 .3.2.2.4zm-5.6-.7c-.1 0-.1-.1 0 0 2.4-.6 4.3-1.9 6.1-3.5l4.5-4.4c.4-.4 1 .1.7.6-2.2 3.8-7 6.9-11.3 7.3zm17.4-8.7c-2.6 1.8-4.8 3.7-5.6 7 .5-3.2 2.3-6.3 5.4-7.5.3-.2.5.3.2.5zm3.4-2.1c-1.1 0-2.1-.1-3.2.1 1-.3 2.1-.5 3.2-.5.2 0 .2.4 0 .4zm2.2-1.6c-1.8-.5-3.7-1-5.6-.4-1.7.5-3.1 1.4-4.4 2.7h-.1c2.5-3.3 6.4-4.5 10.2-2.9.5.1.3.7-.1.6zm.6-1.1c-2.4-1-4.9-1.7-7.5-.6-2.1.9-3.9 2.4-5.5 4-3.1 3-6.2 6.6-10.7 7.2 0 0-.1-.1 0-.1 8.4-1.7 13.9-17.6 23.8-10.8.2.2 0 .4-.1.3zm2.2 7.8c-.3-.5-.3-1.2-.6-1.8-.3-.7-.7-1.3-1.3-1.8v-.1c1.1.7 2.4 2.2 2.2 3.6 0 .3-.2.3-.3.1zm163.9-4.6c-2.2 0-3.9 1.6-4.2 3.7h-149.8v1.7h149.9c.5 1.9 2.1 3.4 4.2 3.4 2.4 0 4.4-2 4.4-4.4-.1-2.4-2-4.4-4.5-4.4z" sketch:type="MSShapeGroup" fill="#85BCE6"/></svg>