<svg width="68" height="39" viewBox="0 0 68 39" xmlns="http://www.w3.org/2000/svg" xmlns:sketch="http://www.bohemiancoding.com/sketch/ns"><title>vensel-7</title><desc>Created with Sketch.</desc><path d="M60.9 17.251c2.4.4 4.8 1 7.1 1.9-2.3.8-4.7 1.5-7.1 1.9-6.3 1-12.5.3-18.1-1.9 5.6-2.2 11.8-2.9 18.1-1.9zm-.3 1.9c-3.7-.6-7.3-.6-10.8 0 3.5.5 7.1.6 10.8 0zm-23.077-1.151l1.577-10.249h.1c.4-2.1 1.2-4.2 3.3-5.8 1.2-.8 3-1.2 4.9-1 2 .2 3.6 1.1 4.5 2.3 1.3 1.8 1.6 4 .8 5.9-.6 1.5-1.9 2.4-3.4 2.6-2 .3-3.8-1.1-4.2-3-.3-1.5.8-2.8 2-3 1.1-.2 2 .4 2.2 1.5.1.5-.2 1-.7 1.1-.5.1-1-.2-1.1-.7 0 0-.2 0-.3.2-.1.1-.2.3-.2.6.2.8.9 1.7 2.1 1.5 1.2-.1 1.7-1 1.9-1.5.5-1.2.3-2.8-.6-4-.6-.8-1.8-1.4-3.2-1.6-1.4-.2-2.7 0-3.5.6-2.2 1.6-2.5 3.8-2.9 6.4l-.1.4-.1.3-1.4 8.6 1.4 8.6c.1.1.1.2.1.3l.1.4c.4 2.6.8 4.8 2.9 6.4.8.6 2.1.8 3.5.6 1.4-.2 2.6-.8 3.2-1.6.9-1.2 1.1-2.8.6-4-.2-.5-.8-1.3-1.9-1.5-1.2-.2-2 .7-2.1 1.5-.1.3.1.5.2.6.2.2.4.2.3.2.1-.5.6-.8 1.1-.8.5.1.8.6.7 1.1-.2 1.1-1.1 1.7-2.2 1.5-1.2-.2-2.3-1.5-2-3 .4-2 2.2-3.3 4.2-3 1.5.2 2.8 1.1 3.4 2.6.8 1.8.5 4.1-.8 5.9-.9 1.2-2.5 2.1-4.5 2.3-1.9.2-3.7-.1-4.9-1-2.2-1.6-2.9-3.7-3.3-5.8h-.1l-1.6-10.4v-.051h-37.5v-2h37.523z" sketch:type="MSShapeGroup" fill="#6898C6"/></svg>