<svg width="70" height="73" viewBox="0 0 70 73" xmlns="http://www.w3.org/2000/svg" xmlns:sketch="http://www.bohemiancoding.com/sketch/ns"><title>vensel-1-bl</title><path d="M35 67.5c0 2-3 2-3 0s3-2 3 0zm5.3-10.4c0-1.8 2.9-1.8 2.9 0 0 1.9-2.9 1.9-2.9 0zm-22.3-26.8c-1.8 0-1.8-2.8 0-2.8s1.8 2.8 0 2.8zm-11 22.7h12v12h-12v-12zm-2.5-18c2 0 2 3 0 3s-2-3 0-3zm21.5 11v26h-26v-26h26zm-24 24h22v-22h-22v22zm.003-69.997v2.884c1.3-2.4 4.997-2.887 7.297-1.887 2.7 1.3 3.5 5.6 2.4 8.1-1 2.2-2.6 3.8-4.1 5.4 1.2-.4 2.6-.4 4.1-.1 3.1.7 5.1 4.7 3.9 7.6-1.4 3.3-5.3 3.6-7.6 1-1.2-1.4.8-3.4 2-2 1.9 1.9 3.8.9 2.7-2.4-.4-1.3-1.8-1.7-3.2-1.6-1.7-.1-2.9.8-3.6 2.2-1.2 2.3-.5 5.7.4 7.9 1.4 3.3 3.8 6.2 6.8 8 1.8 1.1 3.8 1.3 5.8 1.3.9 0 1.7-.3 2.5-.8 2.2-1.2.2-3.3.2-3.3-1.1 1.5-3.5 0-2.5-1.4 1.7-2.4 4.7-1.3 6.2.7 1.7 2.2-.75 6.045-2.85 7.345l8.53.077v10.239c1.3-2.1 4.52-4.36 6.82-2.66 2 1.5 3.1 4.5.7 6.2-1.5 1.1-2.9-1.4-1.4-2.5 0 0-2-2-3.2.2-.5.7-.8 1.6-.8 2.5-.1 2 .2 4 1.3 5.8 1.8 3 4.7 5.4 8 6.8 2.2 1 5.7 1.7 8 .4 1.4-.8 2.3-1.9 2.2-3.6.1-1.3-.3-2.7-1.6-3.1-3.3-1.1-4.3.8-2.4 2.7 1.4 1.2-.6 3.2-2 2-2.6-2.3-2.3-6.2 1-7.6 2.9-1.2 6.9.7 7.6 3.9.3 1.6.3 3-.1 4.2 1.6-1.5 3.2-3.2 5.4-4.2 2.5-1.1 6.9-.3 8.1 2.4 1 2.1.729 5.893-.971 7.293h2.343v2.013h-40.942v-31.016h-29.024v-40.959l1.997-.028zm60.097 70.043c-.5-.6-.9-1.3-.7-2.5.4-1.8 3.1-1 2.7.8.8.1 1.7 0 1.9-.7.3-.9.2-2-.3-2.8-.7-1.4-3.2-1.6-4.7-.7-1.7 1.1-3 2.6-4.4 4-.8.8-1.7 1.4-2.6 1.9h8.1zm-31.1-.046h12.3c-.2 0-.3 0-.5-.1-4.6-1.4-9.5-5.1-11.8-9.6v9.7zm-28.9-31h10c-4.5-2.3-8.2-7.2-9.6-11.7-.3-1-.4-2-.5-3v14.7h.1zm.3-21.6c.6-1.2 1.4-2.3 2.3-3.4 1.4-1.5 2.9-2.7 4-4.4.9-1.5.8-4-.7-4.7-.8-.4-1.9-.5-2.8-.3-.7.2-.8 1.1-.7 1.9 1.8-.4 2.6 2.4.8 2.8-1.4.3-2.714-.2-3.314-1v9.1h.414z" sketch:type="MSShapeGroup" fill="#231F20"/></svg>