<?xml version="1.0" encoding="UTF-8" standalone="no"?>
<svg width="31px" height="5px" viewBox="0 0 31 5" version="1.1" xmlns="http://www.w3.org/2000/svg" xmlns:xlink="http://www.w3.org/1999/xlink" xmlns:sketch="http://www.bohemiancoding.com/sketch/ns">
    <!-- Generator: Sketch 3.0.3 (7891) - http://www.bohemiancoding.com/sketch -->
    <title>end-vensel-right</title>
    <desc>Created with Sketch.</desc>
    <defs></defs>
    <g id="Page-1" stroke="none" stroke-width="1" fill="none" fill-rule="evenodd" sketch:type="MSPage">
        <path d="M30.0095219,0 L24,0 L24,1 L30.0095219,1 L30.0095219,0 L30.0095219,0 Z M23.7999996,0.996337891 L21.0000004,0.996337891 L21,2 L20.8,2 L20.8000004,0.996337891 L18.0000004,0.996337891 L18,2 L5.9,2 L5.9,4.01049795 L30.0095219,4.01049795 L30.0095219,2 L23.8,2 L23.7999996,0.996337891 Z M2.9,0.9 C1.85238095,0.9 0.9,1.75714286 0.9,2.9 C0.9,3.94761905 1.75714286,4.9 2.9,4.9 C3.94761905,4.9 4.9,4.04285714 4.9,2.9 C4.8047619,1.75714286 3.94761905,0.9 2.9,0.9 L2.9,0.9 Z" id="end-vensel-right" fill="#C7CDD3" sketch:type="MSShapeGroup" transform="translate(15.500000, 2.500000) scale(-1, 1) translate(-15.500000, -2.500000) "></path>
    </g>
</svg>