<?xml version="1.0" encoding="UTF-8" standalone="no"?>
<svg width="18px" height="37px" viewBox="0 0 18 37" version="1.1" xmlns="http://www.w3.org/2000/svg" xmlns:xlink="http://www.w3.org/1999/xlink" xmlns:sketch="http://www.bohemiancoding.com/sketch/ns">
    <!-- Generator: Sketch 3.0.2 (7799) - http://www.bohemiancoding.com/sketch -->
    <title>facebook</title>
    <description>Created with Sketch.</description>
    <defs></defs>
    <g id="Page-1" stroke="none" stroke-width="1" fill="none" fill-rule="evenodd" sketch:type="MSPage">
        <g id="vector-elements" sketch:type="MSLayerGroup" transform="translate(-729.000000, -302.000000)" fill="#231F20">
            <path d="M729,314.2 L732.8,314.2 L732.8,312.5 L732.8,310.8 L732.8,310.5 C732.8,308.9 732.8,306.3 734,304.8 C735.3,303.1 737,302 740,302 C744.8,302 746.9,302.7 746.9,302.7 L745.9,308.4 C745.9,308.4 744.3,307.9 742.8,307.9 C741.3,307.9 740,308.4 740,309.9 L740,310.5 L740,312.5 L740,314.2 L746.1,314.2 L745.7,319.7 L740,319.7 L740,339 L732.8,339 L732.8,319.7 L729,319.7 L729,314.2 L729,314.2 Z" id="facebook" sketch:type="MSShapeGroup"></path>
        </g>
    </g>
</svg>