<?xml version="1.0" encoding="UTF-8" standalone="no"?>
<svg width="38px" height="33px" viewBox="0 0 38 33" version="1.1" xmlns="http://www.w3.org/2000/svg" xmlns:xlink="http://www.w3.org/1999/xlink" xmlns:sketch="http://www.bohemiancoding.com/sketch/ns">
    <!-- Generator: Sketch 3.0.2 (7799) - http://www.bohemiancoding.com/sketch -->
    <title>gp</title>
    <description>Created with Sketch.</description>
    <defs></defs>
    <g id="Page-1" stroke="none" stroke-width="1" fill="none" fill-rule="evenodd" sketch:type="MSPage">
        <g id="vector-elements" sketch:type="MSLayerGroup" transform="translate(-730.000000, -483.000000)" fill="#231F20">
            <g id="gp" transform="translate(730.000000, 484.000000)" sketch:type="MSShapeGroup">
                <path d="M37.6,5.9 L31.3,5.9 L31.3,-0.4 L29.7,-0.4 L29.7,5.9 L23.4,5.9 L23.4,7.5 L29.7,7.5 L29.7,13.8 L31.3,13.8 L31.3,7.5 L37.6,7.5 L37.6,5.9 L37.6,5.9 Z" id="Shape"></path>
                <path d="M16.5,17.8 C15.6,17.2 13.9,15.7 13.9,14.8 C13.9,13.8 14.2,13.2 15.8,12 C17.4,10.7 18.6,9 18.6,6.9 C18.6,4.4 17.5,2 15.4,1.2 L18.5,1.2 L20.7,-0.4 L10.9,-0.4 C6.5,-0.4 2.4,2.9 2.4,6.8 C2.4,10.7 5.4,13.9 9.9,13.9 L10.8,13.9 C10.5,14.5 10.3,15.1 10.3,15.7 C10.3,16.8 10.9,17.7 11.6,18.4 L9.9,18.4 C4.5,18.4 0.3,21.9 0.3,25.5 C0.3,29 4.9,31.2 10.3,31.2 C16.5,31.2 19.9,27.7 19.9,24.2 C19.9,21.3 19,19.6 16.5,17.8 L16.5,17.8 L16.5,17.8 Z M11.2,12.9 L11.2,12.9 C8.7,12.8 6.3,10.1 5.8,6.8 C5.4,3.5 7.1,1 9.6,1 C12.1,1.1 14.5,3.7 15,7 C15.4,10.3 13.7,12.9 11.2,12.9 L11.2,12.9 L11.2,12.9 Z M10.2,29.6 L10.2,29.6 C6.4,29.6 3.7,27.2 3.7,24.4 C3.7,21.6 7.1,19.3 10.8,19.3 C11.7,19.3 12.5,19.5 13.2,19.7 C15.2,21.1 16.7,21.9 17.1,23.5 C17.2,23.8 17.2,24.2 17.2,24.5 C17.4,27.4 15.5,29.6 10.2,29.6 L10.2,29.6 L10.2,29.6 Z" id="Shape"></path>
            </g>
        </g>
    </g>
</svg>