<?xml version="1.0" encoding="UTF-8" standalone="no"?>
<svg width="31px" height="31px" viewBox="0 0 31 31" version="1.1" xmlns="http://www.w3.org/2000/svg" xmlns:xlink="http://www.w3.org/1999/xlink" xmlns:sketch="http://www.bohemiancoding.com/sketch/ns">
    <!-- Generator: Sketch 3.0.2 (7799) - http://www.bohemiancoding.com/sketch -->
    <title>mailru</title>
    <description>Created with Sketch.</description>
    <defs></defs>
    <g id="Page-1" stroke="none" stroke-width="1" fill="none" fill-rule="evenodd" sketch:type="MSPage">
        <g id="vector-elements" sketch:type="MSLayerGroup" transform="translate(-724.000000, -126.000000)" fill="#231F20">
            <path d="M743,147.2 C742.8,147.5 742.5,147.7 742.2,148 C741.9,148.3 741.5,148.5 741.1,148.7 C740.7,148.9 740.2,149.1 739.7,149.2 C739.2,149.3 738.7,149.4 738.1,149.4 C737.3,149.4 736.6,149.3 736,149 C735.4,148.8 734.8,148.4 734.3,148 C733.8,147.6 733.5,147 733.2,146.4 C732.9,145.8 732.8,145.1 732.8,144.3 C732.8,143.4 733,142.7 733.3,142 C733.6,141.3 734,140.8 734.6,140.3 C735.1,139.8 735.8,139.5 736.6,139.2 C737.4,139 738.2,138.8 739.2,138.8 C740,138.8 740.6,138.8 741.2,138.9 C741.7,139 742.2,139.1 742.6,139.2 L742.6,138.6 C742.6,138.2 742.5,137.9 742.4,137.5 C742.3,137.2 742.1,136.9 741.8,136.6 C741.5,136.3 741.2,136.1 740.7,136 C740.3,135.8 739.7,135.8 739.1,135.8 C738.3,135.8 737.5,135.9 736.8,136.1 C736,136.3 735.2,136.5 734.3,136.9 L734.3,133.9 C734.6,133.7 735,133.6 735.4,133.5 C735.8,133.4 736.2,133.3 736.7,133.2 C737.2,133.1 737.6,133 738.1,133 C738.6,132.9 739.1,132.9 739.6,132.9 C740.8,132.9 741.8,133 742.6,133.3 C743.5,133.6 744.2,134 744.7,134.5 C745.3,135 745.7,135.6 746,136.3 C746.3,137 746.4,137.7 746.4,138.5 L746.4,145.2 L746.4,145.9 C746.4,146.1 746.5,146.3 746.6,146.4 C746.7,146.6 746.8,146.7 746.9,146.7 C747,146.8 747.2,146.8 747.5,146.8 C748,146.8 748.5,146.6 749,146.3 C749.5,146 749.9,145.5 750.2,144.9 C750.5,144.3 750.8,143.6 751,142.7 C751.2,141.9 751.3,140.9 751.3,139.9 C751.3,138.1 751,136.4 750.4,135.1 C749.8,133.7 748.9,132.6 747.9,131.6 C746.9,130.7 745.6,130 744.2,129.5 C742.8,129 741.3,128.8 739.7,128.8 C737.6,128.8 735.7,129.1 734.2,129.8 C732.7,130.5 731.4,131.4 730.5,132.6 C729.5,133.8 728.8,135.1 728.3,136.6 C727.8,138.1 727.6,139.7 727.6,141.3 C727.6,143.1 727.9,144.7 728.4,146.2 C728.9,147.7 729.7,149 730.8,150.1 C731.8,151.2 733.2,152.1 734.8,152.7 C736.4,153.3 738.2,153.6 740.3,153.6 C741.2,153.6 742.2,153.6 743.1,153.5 C744,153.4 744.8,153.3 745.6,153.1 C746.4,152.9 747.1,152.8 747.8,152.6 C748.5,152.4 749.1,152.2 749.6,152 L749.6,154.7 C749.1,154.9 748.5,155.1 747.8,155.3 C747.1,155.5 746.3,155.7 745.5,155.8 C744.7,156 743.8,156.1 742.9,156.2 C742,156.3 741.1,156.3 740.2,156.3 C738.7,156.3 737.3,156.2 736,155.9 C734.7,155.6 733.4,155.2 732.3,154.6 C731.1,154 730.1,153.3 729.2,152.5 C728.3,151.7 727.5,150.7 726.8,149.6 C726.1,148.5 725.6,147.3 725.3,145.9 C724.9,144.6 724.8,143.1 724.8,141.5 C724.8,139.2 725.2,137.1 725.9,135.2 C726.6,133.3 727.6,131.7 728.9,130.3 C730.2,128.9 731.8,127.9 733.7,127.1 C735.6,126.3 737.6,126 740,126 C742.1,126 744.1,126.3 745.9,127 C747.7,127.7 749.2,128.6 750.5,129.8 C751.8,131 752.8,132.4 753.5,134.1 C754.2,135.8 754.6,137.6 754.6,139.6 C754.6,141.2 754.4,142.6 754,143.8 C753.6,145 753.1,146 752.4,146.8 C751.7,147.6 750.9,148.3 750,148.7 C749.1,149.1 748.1,149.3 747,149.3 C746.4,149.3 746,149.2 745.6,149.1 C745.2,149 744.9,148.8 744.6,148.7 C744.3,148.5 744.1,148.3 743.9,148 C743.3,147.8 743.2,147.5 743,147.2 L743,147.2 L743,147.2 Z M742.4,142.2 C742,142.1 741.6,142 741.2,142 C740.7,141.9 740.3,141.9 739.7,141.9 C738.8,141.9 738,142.1 737.5,142.4 C736.9,142.8 736.7,143.3 736.7,144.1 C736.7,144.5 736.8,144.8 736.9,145 C737,145.3 737.2,145.5 737.4,145.7 C737.6,145.9 737.9,146 738.1,146.1 C738.4,146.2 738.7,146.2 739,146.2 C739.4,146.2 739.8,146.1 740.1,146 C740.4,145.9 740.8,145.8 741.1,145.6 C741.4,145.4 741.6,145.3 741.9,145.1 C742.1,144.9 742.3,144.7 742.5,144.5 L742.5,142.2 L742.4,142.2 L742.4,142.2 Z" id="mailru" sketch:type="MSShapeGroup"></path>
        </g>
    </g>
</svg>