<?xml version="1.0" encoding="UTF-8" standalone="no"?>
<svg width="26px" height="43px" viewBox="0 0 26 43" version="1.1" xmlns="http://www.w3.org/2000/svg" xmlns:xlink="http://www.w3.org/1999/xlink" xmlns:sketch="http://www.bohemiancoding.com/sketch/ns">
    <!-- Generator: Sketch 3.0.2 (7799) - http://www.bohemiancoding.com/sketch -->
    <title>ok</title>
    <description>Created with Sketch.</description>
    <defs></defs>
    <g id="Page-1" stroke="none" stroke-width="1" fill="none" fill-rule="evenodd" sketch:type="MSPage">
        <g id="vector-elements" sketch:type="MSLayerGroup" transform="translate(-727.000000, -359.000000)" fill="#231F20">
            <path d="M751.6,381.5 C751,380.3 749.4,379.3 747.2,381 C744.3,383.3 739.5,383.3 739.5,383.3 C739.5,383.3 734.8,383.3 731.8,381 C729.6,379.3 728,380.3 727.4,381.5 C726.4,383.6 727.5,384.6 730.2,386.3 C732.4,387.7 735.5,388.3 737.5,388.5 L735.8,390.2 C733.5,392.5 731.2,394.8 729.6,396.4 C728.7,397.3 728.7,398.9 729.6,399.8 L729.9,400.1 C730.4,400.6 731,400.8 731.6,400.8 L731.6,400.8 C732.2,400.8 732.8,400.6 733.3,400.1 L739.5,393.9 C741.8,396.2 744.1,398.5 745.7,400.1 C746.6,401 748.2,401 749.1,400.1 L749.4,399.8 C750.3,398.9 750.3,397.3 749.4,396.4 L743.2,390.2 L741.5,388.5 C743.5,388.3 746.5,387.8 748.8,386.3 C751.4,384.6 752.6,383.6 751.6,381.5 L751.6,381.5 L751.6,381.5 Z M739.5,364.6 C742.3,364.6 744.6,366.9 744.6,369.7 C744.6,372.5 742.3,374.8 739.5,374.8 C736.7,374.8 734.4,372.5 734.4,369.7 C734.4,366.9 736.7,364.6 739.5,364.6 L739.5,364.6 L739.5,364.6 Z M739.5,380.2 C745.3,380.2 750,375.5 750,369.7 C750,363.9 745.3,359.2 739.5,359.2 C733.7,359.2 729,363.9 729,369.7 C729,375.5 733.7,380.2 739.5,380.2 L739.5,380.2 L739.5,380.2 Z" id="ok" sketch:type="MSShapeGroup"></path>
        </g>
    </g>
</svg>