<?xml version="1.0" encoding="UTF-8" standalone="no"?>
<svg width="79px" height="80px" viewBox="0 0 79 80" version="1.1" xmlns="http://www.w3.org/2000/svg" xmlns:xlink="http://www.w3.org/1999/xlink" xmlns:sketch="http://www.bohemiancoding.com/sketch/ns">
    <!-- Generator: Sketch 3.0.2 (7799) - http://www.bohemiancoding.com/sketch -->
    <title>radia</title>
    <description>Created with Sketch.</description>
    <defs></defs>
    <g id="Page-1" stroke="none" stroke-width="1" fill="none" fill-rule="evenodd" sketch:type="MSPage">
        <g id="vector-elements" sketch:type="MSLayerGroup" transform="translate(0.000000, -467.000000)" fill="#FFFFFF">
            <path d="M70.6,534.9 C67.3,530.2 52.2,508 52.2,508 C56.7,506.3 60.2,503.7 62.7,500.3 C65.2,496.9 66.5,493.1 66.5,489 C66.5,485.9 65.9,483 64.7,480.4 C63.5,477.8 61.7,475.6 59.4,473.7 C57.1,471.8 54.3,470.4 51,469.4 C40,466 24.5,468 13.1,467.9 C9.4,467.9 6.7,467.8 3.2,467.3 C2.6,467.2 1.6,466.9 1,467.5 C0.3,468.2 0.4,468.9 0.9,469.7 C2.4,471.9 3.4,473.4 4.8,475.6 C6.3,477.8 8.9,478.2 11.3,478.4 C14.6,478.6 17.9,478.6 21.2,478.6 C23.1,478.6 25.1,478.5 27,478.4 C31.4,478.2 35.9,477.9 40.3,478.6 C46.1,479.5 51,483.3 50.5,489.6 C50.2,493.5 48.7,497.2 45.4,499.4 C41.2,502.3 36.1,502.4 31.2,502.4 C28.4,502.4 28.2,502.3 25.3,502 C24.6,501.9 23.9,502.1 23.7,502.8 C23.4,503.6 23.6,503.9 24.2,504.7 C24.7,505.4 27.2,509.2 28,510.3 C28.7,511.3 29.9,511.7 31,512.1 C37.8,514.1 41.8,518.6 45.6,524.4 C47.5,527.3 49.4,530.3 51.4,533.2 C52.5,534.8 53.7,536.4 54.9,537.9 C57.8,541.4 61.6,542.9 65.8,544.1 C69.2,545 72.9,545.3 75.9,545.4 C79,545.5 78.6,543.5 77.4,542.6 C74.7,540.3 72.8,538.1 70.6,534.9 L70.6,534.9 Z" id="radia" sketch:type="MSShapeGroup"></path>
        </g>
    </g>
</svg>