<?xml version="1.0" encoding="UTF-8" standalone="no"?>
<svg width="341px" height="65px" viewBox="0 0 341 65" version="1.1" xmlns="http://www.w3.org/2000/svg" xmlns:xlink="http://www.w3.org/1999/xlink" xmlns:sketch="http://www.bohemiancoding.com/sketch/ns">
    <!-- Generator: Sketch 3.0.3 (7891) - http://www.bohemiancoding.com/sketch -->
    <title>ribbon2</title>
    <desc>Created with Sketch.</desc>
    <defs></defs>
    <g id="Page-1" stroke="none" stroke-width="1" fill="none" fill-rule="evenodd" sketch:type="MSPage">
        <g id="vector-elements" sketch:type="MSLayerGroup" transform="translate(-135.000000, -56.000000)">
            <g id="ribbon2" transform="translate(135.000000, 56.000000)" sketch:type="MSShapeGroup">
                <g id="Group" transform="translate(0.000000, 10.974026)" fill="#1372C9">
                    <path d="M302.315271,-0.253246753 C314.960591,0.844155844 327.522167,2.11038961 340.167488,3.46103896 C335.64532,6.75324675 333.384236,13 328.862069,16.3766234 C332.546798,20.9350649 333.719212,26.6753247 337.990148,31.2337662 C325.512315,29.8831169 313.118227,28.6168831 300.640394,27.5194805 C301.226601,20.9350649 301.729064,6.24675325 302.315271,-0.253246753 L302.315271,-0.253246753 Z" id="Shape"></path>
                    <path d="M37.7684729,-0.253246753 C25.1231527,0.844155844 12.5615764,2.11038961 -0.0837438424,3.46103896 C4.43842365,6.75324675 6.69950739,13 11.2216749,16.3766234 C7.53694581,20.9350649 6.78325123,26.6753247 2.09359606,31.2337662 C14.5714286,29.8831169 26.9655172,28.6168831 39.4433498,27.5194805 C38.8571429,20.9350649 38.3546798,6.24675325 37.7684729,-0.253246753 L37.7684729,-0.253246753 Z" id="Shape"></path>
                </g>
                <path d="M301.394089,27.012987 L309.182266,28.6168831 L311.275862,34.6103896 L300.640394,38.4935065 L301.394089,27.012987 Z" id="Shape" fill="#78CFFE"></path>
                <path d="M38.6896552,27.012987 L30.9014778,28.6168831 L28.8916256,34.6103896 L39.4433498,38.4935065 L38.6896552,27.012987 Z" id="Shape" fill="#78CFFE"></path>
                <path d="M27.0492611,6.75324675 C122.26601,-1.77272727 217.817734,-1.77272727 313.034483,6.75324675 C312.448276,13.3376623 311.862069,28.025974 311.192118,34.525974 C217.147783,26.0844156 122.852217,26.0844156 28.8078818,34.525974 C28.2216749,28.025974 27.635468,13.3376623 27.0492611,6.75324675 L27.0492611,6.75324675 Z" id="Shape" fill="#1372C9"></path>
                <path d="M112.884521,11.952048 L112.591035,11.952048 C112.591035,11.5584416 112.493206,11.0664336 112.493206,10.6728272 C111.906234,10.6728272 111.221432,10.7712288 110.63446,10.7712288 C110.63446,11.1648352 110.732289,11.6568432 110.732289,12.0504496 L110.536631,12.0504496 C109.85183,12.0504496 109.264857,12.2472527 108.677884,12.6408591 C108.188741,13.0344655 107.797426,13.5264735 107.601768,14.1168831 C107.406111,14.7072927 107.308282,15.3961039 107.308282,16.1833167 C107.406111,17.4625375 107.797426,18.3481518 108.384398,19.036963 C109.0692,19.7257742 109.949658,20.020979 111.123604,19.9225774 L111.221432,19.9225774 C111.221432,20.4145854 111.319261,21.004995 111.319261,21.497003 C111.906234,21.497003 112.591035,21.3986014 113.178008,21.3986014 C113.178008,20.9065934 113.080179,20.3161838 113.080179,19.8241758 L113.178008,19.8241758 C113.960638,19.8241758 114.54761,19.6273726 115.134583,19.2337662 C115.623727,18.8401598 116.015042,18.3481518 116.308528,17.7577423 C116.602014,17.1673327 116.699843,16.3801199 116.602014,15.5929071 C116.504186,14.4120879 116.210699,13.4280719 115.525898,12.7392607 C114.841097,12.1488511 113.960638,11.8536464 112.884521,11.952048 L112.884521,11.952048 Z M111.025775,18.4465534 C110.536631,18.4465534 110.145316,18.2497502 109.754001,17.8561439 C109.460515,17.4625375 109.264857,16.7737263 109.167028,15.9865135 C109.167028,15.1993007 109.167028,14.6088911 109.460515,14.2152847 C109.656172,13.8216783 110.047487,13.5264735 110.536631,13.5264735 L110.732289,13.5264735 C110.927946,15.1993007 111.025775,16.7737263 111.025775,18.4465534 L111.025775,18.4465534 L111.025775,18.4465534 Z M114.156295,17.6593407 C113.862809,18.1513487 113.471494,18.3481518 112.98235,18.3481518 C112.98235,18.3481518 112.98235,18.3481518 112.884521,18.3481518 C112.786693,16.6753247 112.688864,15.1008991 112.591035,13.4280719 L112.786693,13.4280719 C113.275836,13.4280719 113.667152,13.6248751 113.960638,14.0184815 C114.254124,14.4120879 114.449782,15.0024975 114.449782,15.7897103 C114.54761,16.5769231 114.449782,17.1673327 114.156295,17.6593407 L114.156295,17.6593407 Z M125.70009,9.98401598 C124.428316,10.0824176 123.547857,10.5744256 122.960884,11.46004 C122.373912,12.4440559 122.080425,13.7232767 122.178254,15.4945055 C122.276083,17.2657343 122.667398,18.544955 123.352199,19.528971 C124.037001,20.4145854 125.015288,20.8081918 126.189233,20.8081918 C127.363179,20.7097902 128.341466,20.2177822 128.928439,19.2337662 C129.515412,18.2497502 129.808898,16.8721279 129.711069,15.1993007 C129.61324,13.4280719 129.221925,12.1488511 128.537124,11.2632368 C127.852322,10.2792208 126.874035,9.88561439 125.70009,9.98401598 L125.70009,9.98401598 Z M126.091405,19.036963 C125.504432,19.036963 125.015288,18.7417582 124.721802,18.1513487 C124.428316,17.5609391 124.232658,16.6753247 124.134829,15.3961039 C124.037001,14.2152847 124.232658,13.2312687 124.428316,12.6408591 C124.721802,11.952048 125.113117,11.6568432 125.70009,11.6568432 C126.874035,11.5584416 127.558836,12.8376623 127.656665,15.2977023 C127.754494,17.7577423 127.26535,19.036963 126.091405,19.036963 L126.091405,19.036963 Z M140.570062,9.59040959 C138.515658,9.68881119 136.559083,9.68881119 134.504679,9.78721279 C134.504679,10.3776224 134.504679,10.968032 134.602507,11.46004 C135.287309,11.46004 135.97211,11.46004 136.656911,11.3616384 C136.75474,14.3136863 136.852569,17.2657343 136.950398,20.2177822 C137.635199,20.2177822 138.222172,20.2177822 138.906973,20.1193806 C138.809144,17.1673327 138.711315,14.2152847 138.613487,11.2632368 C139.298288,11.2632368 139.983089,11.2632368 140.667891,11.1648352 C140.570062,10.6728272 140.570062,10.0824176 140.570062,9.59040959 L140.570062,9.59040959 Z M149.374651,9.1968032 C148.102877,9.1968032 147.222418,9.68881119 146.537617,10.6728272 C145.950644,11.6568432 145.559329,12.9360639 145.657158,14.7072927 C145.657158,16.4785215 146.048473,17.7577423 146.733274,18.7417582 C147.418076,19.6273726 148.396363,20.1193806 149.570308,20.1193806 C150.744254,20.1193806 151.722541,19.6273726 152.309514,18.6433566 C152.896486,17.6593407 153.287802,16.3801199 153.189973,14.6088911 C153.189973,12.8376623 152.798658,11.5584416 152.113856,10.5744256 C151.526884,9.59040959 150.548596,9.0984016 149.374651,9.1968032 L149.374651,9.1968032 Z M149.570308,18.2497502 C148.983336,18.2497502 148.494192,17.9545455 148.200706,17.3641359 C147.907219,16.7737263 147.711562,15.7897103 147.711562,14.6088911 C147.711562,13.4280719 147.809391,12.4440559 148.102877,11.8536464 C148.396363,11.2632368 148.885507,10.8696304 149.47248,10.8696304 C150.646425,10.8696304 151.233397,12.0504496 151.331226,14.5104895 C151.331226,16.9705295 150.744254,18.2497502 149.570308,18.2497502 L149.570308,18.2497502 Z M163.951137,9.0984016 C162.385877,9.0984016 160.820616,9.0984016 159.157527,9.1968032 C159.157527,12.7392607 159.255356,16.1833167 159.255356,19.7257742 L161.211932,19.7257742 C161.211932,16.7737263 161.114103,13.8216783 161.114103,10.8696304 L163.853308,10.8696304 C163.951137,10.1808192 163.951137,9.68881119 163.951137,9.0984016 L163.951137,9.0984016 Z M170.603493,9 C169.723034,12.5424575 168.842575,16.0849151 168.059945,19.6273726 L170.01652,19.6273726 C170.212178,18.7417582 170.407835,17.8561439 170.603493,16.9705295 L173.342698,16.9705295 C173.538356,17.8561439 173.734013,18.7417582 173.929671,19.6273726 L175.886246,19.6273726 C175.005787,16.0849151 174.125329,12.5424575 173.24487,9 L170.603493,9 L170.603493,9 Z M170.896979,15.1993007 C171.288294,13.4280719 171.581781,12.2472527 171.679609,11.7552448 C171.777438,11.2632368 171.875267,10.7712288 171.875267,10.3776224 C171.875267,10.5744256 171.973096,10.968032 172.070924,11.5584416 C172.168753,12.1488511 172.266582,12.5424575 172.266582,12.6408591 C172.46224,13.4280719 172.657897,14.3136863 172.853555,15.1008991 C172.266582,15.1993007 171.581781,15.1993007 170.896979,15.1993007 L170.896979,15.1993007 Z M182.245116,14.6088911 C182.049459,16.0849151 181.853801,17.0689311 181.755972,17.4625375 C181.658143,17.8561439 181.364657,18.0529471 181.169,18.0529471 C180.973342,18.0529471 180.777685,18.0529471 180.679856,17.9545455 L180.679856,19.528971 C180.973342,19.6273726 181.266828,19.7257742 181.658143,19.7257742 C182.245116,19.7257742 182.832089,19.528971 183.125575,19.036963 C183.51689,18.544955 183.810376,17.8561439 183.908205,16.7737263 C184.103863,15.1993007 184.397349,13.2312687 184.593006,10.7712288 L186.158267,10.7712288 C186.158267,13.7232767 186.060438,16.6753247 186.060438,19.6273726 L188.017013,19.6273726 C188.114842,16.0849151 188.114842,12.6408591 188.212671,9.0984016 C186.451753,9.0984016 184.690835,9.0984016 182.929917,9 C182.636431,11.2632368 182.440774,13.1328671 182.245116,14.6088911 L182.245116,14.6088911 Z M194.278054,19.8241758 C195.843314,19.8241758 197.408575,19.9225774 198.973835,19.9225774 L198.973835,18.2497502 C197.995547,18.2497502 197.115088,18.2497502 196.136801,18.1513487 C196.136801,17.1673327 196.136801,16.1833167 196.23463,15.1993007 C197.115088,15.1993007 197.995547,15.1993007 198.876006,15.2977023 L198.876006,13.6248751 C197.995547,13.6248751 197.115088,13.6248751 196.23463,13.5264735 C196.23463,12.7392607 196.23463,11.8536464 196.332458,11.0664336 C197.310746,11.0664336 198.191205,11.0664336 199.169492,11.1648352 L199.169492,9.49200799 C197.604232,9.49200799 195.941143,9.39360639 194.375883,9.39360639 C194.375883,12.8376623 194.375883,16.2817183 194.278054,19.8241758 L194.278054,19.8241758 Z M207.974081,9.68881119 C207.093622,9.68881119 206.213164,9.59040959 205.234876,9.59040959 C205.137047,13.1328671 205.039218,16.5769231 204.94139,20.1193806 C205.626191,20.1193806 206.213164,20.1193806 206.897965,20.2177822 C206.897965,18.9385614 206.995794,17.6593407 206.995794,16.3801199 L207.484938,16.3801199 C208.561054,16.3801199 209.343684,16.1833167 209.930657,15.5929071 C210.517629,15.0024975 210.811116,14.2152847 210.908944,13.0344655 C211.006773,10.8696304 210.028485,9.68881119 207.974081,9.68881119 L207.974081,9.68881119 Z M208.561054,14.3136863 C208.267568,14.6088911 207.974081,14.7072927 207.484938,14.7072927 L207.093622,14.7072927 C207.093622,13.6248751 207.191451,12.5424575 207.191451,11.3616384 L207.680595,11.3616384 C208.169739,11.3616384 208.463225,11.5584416 208.658883,11.7552448 C208.85454,12.0504496 208.952369,12.4440559 208.952369,13.0344655 C208.952369,13.6248751 208.85454,14.0184815 208.561054,14.3136863 L208.561054,14.3136863 Z M216.485184,20.512987 C218.050444,20.6113886 219.615704,20.6113886 221.180965,20.7097902 C221.180965,20.1193806 221.278793,19.528971 221.278793,19.036963 C220.300506,19.036963 219.420047,18.9385614 218.539588,18.9385614 C218.539588,17.9545455 218.637417,16.9705295 218.637417,15.9865135 C219.517876,15.9865135 220.398335,16.0849151 221.278793,16.0849151 C221.278793,15.4945055 221.376622,14.9040959 221.376622,14.4120879 C220.496163,14.4120879 219.615704,14.3136863 218.735246,14.3136863 C218.735246,13.5264735 218.833074,12.6408591 218.833074,11.8536464 C219.811362,11.8536464 220.691821,11.952048 221.670109,11.952048 C221.670109,11.3616384 221.767937,10.8696304 221.767937,10.2792208 C220.202677,10.1808192 218.539588,10.1808192 216.974328,10.0824176 C216.77867,13.5264735 216.583013,16.9705295 216.485184,20.512987 L216.485184,20.512987 Z M230.670355,10.6728272 C228.518122,10.5744256 227.344177,11.5584416 227.246348,13.7232767 C227.246348,14.3136863 227.246348,14.9040959 227.442006,15.3961039 C227.637663,15.8881119 227.93115,16.1833167 228.420293,16.5769231 C227.637663,18.0529471 226.952862,19.528971 226.170232,21.1033966 C226.855033,21.1033966 227.539834,21.2017982 228.322465,21.2017982 C228.909437,19.8241758 229.594239,18.544955 230.181211,17.1673327 L230.866012,17.1673327 C230.768184,18.544955 230.670355,19.9225774 230.670355,21.3001998 C231.355156,21.3001998 231.942129,21.3986014 232.62693,21.3986014 C232.822588,17.8561439 233.018245,14.4120879 233.213903,10.8696304 C232.431273,10.7712288 231.550814,10.6728272 230.670355,10.6728272 L230.670355,10.6728272 Z M230.963841,15.4945055 L230.474697,15.4945055 C229.985554,15.4945055 229.692067,15.2977023 229.49641,15.0024975 C229.300752,14.7072927 229.202923,14.3136863 229.300752,13.8216783 C229.300752,13.3296703 229.49641,12.9360639 229.692067,12.7392607 C229.887725,12.5424575 230.27904,12.4440559 230.670355,12.4440559 L231.159499,12.4440559 C231.159499,13.4280719 231.06167,14.4120879 230.963841,15.4945055 L230.963841,15.4945055 Z" id="Shape" fill="#FFFFFF"></path>
                <path d="M39.0157661,54.3470746 C37.3761767,54.3470746 36.0098522,55.7243589 36.0098522,57.3771 C36.0098522,59.0298412 37.3761767,60.4071255 39.0157661,60.4071255 C40.4504067,60.4071255 41.5434663,59.3741623 41.8850474,58.0657422 L144.22275,58.0657422 L144.22275,56.8950505 L41.8850474,56.8950505 C41.6800988,55.448902 40.518723,54.3470746 39.0157661,54.3470746 L39.0157661,54.3470746 Z M182.206571,50.4906786 C179.337289,51.3859134 176.60464,54.6913957 174.281889,56.4818653 C174.145256,56.6195937 173.940308,56.6884579 173.803675,56.8261863 C175.374948,54.9668525 171.890821,52.6943335 170.251232,52.7631977 C170.866078,52.2122839 171.54924,52.0745555 172.300718,51.9368271 C170.524496,50.2840859 168.816591,49.8020364 166.425523,50.4218144 C163.146344,51.2481849 162.531498,53.5895682 160.550328,55.7243589 C161.370122,54.484803 160.891909,52.2811482 160.14043,51.1793207 C159.25232,53.1075187 159.388952,55.6554947 157.202833,57.2393716 C155.63156,58.4100633 152.420697,58.4789275 151.532586,56.413001 C152.284065,56.9639148 153.787022,56.9639148 154.470184,56.6195937 C153.172176,55.9998158 153.855338,53.6584325 155.221662,53.4518398 L155.426611,53.2452472 C154.5385,51.7302344 151.737535,52.9697903 150.849424,53.7961609 C149.278151,55.1734452 148.731621,57.996878 149.141518,60.0628044 C149.824681,63.781472 154.333551,65.4342132 157.61273,64.4012499 C160.482012,63.5060152 163.21466,60.2005328 165.537412,58.4100633 C165.674045,58.2723348 165.878993,58.2034706 166.015626,58.0657422 C164.444353,59.925076 167.92848,62.1975951 169.568069,62.1287309 C168.953223,62.6796446 168.270061,62.817373 167.518583,62.9551014 C169.294804,64.6078426 171.00271,65.0898921 173.393778,64.4701142 C176.672957,63.6437436 177.287803,61.3023603 179.268973,59.1675696 C178.449178,60.4071255 178.927392,62.6107804 179.67887,63.781472 C180.566981,61.853274 180.430349,59.3052981 182.616468,57.7214211 C184.187741,56.5507295 187.398604,56.4818653 188.286715,58.5477917 C187.603552,57.996878 186.100595,57.996878 185.349117,58.3411991 C186.647125,58.960977 185.963963,61.3712245 184.597638,61.5089529 L184.39269,61.7155456 C185.280801,63.2994225 188.081766,61.9910024 188.969877,61.1646319 C190.54115,59.7873476 191.08768,56.9639148 190.746099,54.8979883 C190.062936,51.0415923 185.554066,49.4577154 182.206571,50.4906786 L182.206571,50.4906786 Z M152.693962,54.0027535 C152.830595,53.8650251 153.035543,54.0027535 153.035543,54.140482 C153.035543,54.4159388 152.898911,54.6913957 152.898911,54.9668525 C152.898911,55.2423094 152.762278,55.448902 152.830595,55.7243589 C152.830595,55.7243589 152.830595,55.7243589 152.762278,55.7243589 C152.55733,55.5177663 152.420697,55.2423094 152.420697,54.9668525 C152.489013,54.6225315 152.489013,54.2782104 152.693962,54.0027535 L152.693962,54.0027535 Z M187.125339,60.7514466 C186.988706,60.889175 186.783758,60.7514466 186.783758,60.6137181 C186.783758,60.3382613 186.92039,60.0628044 186.92039,59.7873476 C186.92039,59.5118907 187.057023,59.3052981 186.988706,59.0298412 C186.988706,59.0298412 186.988706,58.960977 187.057023,59.0298412 C187.261971,59.2364338 187.398604,59.5118907 187.398604,59.7873476 C187.330287,60.1316686 187.330287,60.5448539 187.125339,60.7514466 L187.125339,60.7514466 Z M164.444353,52.9009261 C164.990882,52.2122839 166.015626,51.8679629 166.903737,52.0056913 L166.903737,52.0745555 C166.015626,52.2122839 165.264147,52.6254692 164.580985,53.176383 C164.444353,53.176383 164.30772,52.9697903 164.444353,52.9009261 L164.444353,52.9009261 Z M168.270061,53.3141114 C168.338377,53.3141114 168.338377,53.3829756 168.270061,53.3829756 C166.630472,53.7272967 165.332463,54.6225315 164.034455,55.7243589 C162.941396,56.6884579 162.053285,57.7902853 160.960225,58.7543843 C160.68696,59.0298412 160.277063,58.6855201 160.413695,58.3411991 C161.984968,55.7932231 165.264147,53.5895682 168.270061,53.3141114 L168.270061,53.3141114 Z M156.314722,59.3741623 C158.090944,58.1346064 159.593901,56.8261863 160.14043,54.5536672 L160.14043,54.5536672 C159.798849,56.7573221 158.569157,58.8921128 156.451354,59.7184833 C156.246406,59.7873476 156.178089,59.5118907 156.314722,59.3741623 L156.314722,59.3741623 Z M154.060287,60.8203108 C154.811765,60.8203108 155.494927,60.8203108 156.246406,60.7514466 L156.246406,60.7514466 C155.563243,60.9580392 154.811765,61.0957676 154.060287,61.0957676 C153.855338,61.0269034 153.855338,60.8203108 154.060287,60.8203108 L154.060287,60.8203108 Z M152.55733,61.853274 C153.787022,62.1975951 155.08503,62.5419161 156.383038,62.1287309 C157.544414,61.7844098 158.500841,61.1646319 159.388952,60.2693971 L159.457268,60.2693971 C157.749363,62.5419161 155.08503,63.3682867 152.489013,62.2664593 C152.147432,62.2664593 152.215749,61.7844098 152.55733,61.853274 L152.55733,61.853274 Z M151.874167,59.7873476 C151.122689,59.3052981 150.234578,58.2723348 150.37121,57.3082358 C150.37121,57.1705074 150.576159,57.1705074 150.644475,57.2393716 C150.849424,57.5836927 150.849424,58.0657422 151.054373,58.4789275 C151.191005,58.960977 151.532586,59.3741623 151.874167,59.7873476 C151.874167,59.7184833 151.874167,59.7873476 151.874167,59.7873476 L151.874167,59.7873476 Z M152.0108,62.817373 C151.874167,62.7485088 152.0108,62.6107804 152.079116,62.6796446 C153.718705,63.3682867 155.426611,63.8503362 157.202833,63.0928299 C158.637474,62.4730519 159.867166,61.4400887 160.960225,60.3382613 C163.078028,58.2723348 165.195831,55.7932231 168.270061,55.3800378 C168.270061,55.3800378 168.338377,55.3800378 168.270061,55.448902 C162.531498,56.5507295 158.774106,67.5001396 152.0108,62.817373 L152.0108,62.817373 Z M166.083942,57.8591496 C168.201745,56.4818653 171.822505,55.0357167 173.735359,56.9639148 C171.617556,58.3411991 167.92848,59.7873476 166.083942,57.8591496 L166.083942,57.8591496 Z M175.443265,61.9221382 C174.896735,62.6107804 173.871991,62.9551014 172.98388,62.817373 L172.98388,62.7485088 C173.871991,62.6107804 174.62347,62.1975951 175.306632,61.6466814 C175.374948,61.6466814 175.511581,61.7844098 175.443265,61.9221382 L175.443265,61.9221382 Z M171.617556,61.4400887 C171.54924,61.4400887 171.54924,61.3712245 171.617556,61.4400887 C173.257145,61.0269034 174.555154,60.1316686 175.784846,59.0298412 C176.877905,58.0657422 177.766016,56.9639148 178.859076,55.9998158 C179.132341,55.7243589 179.542238,56.06868 179.337289,56.413001 C177.834332,59.0298412 174.555154,61.1646319 171.617556,61.4400887 L171.617556,61.4400887 Z M183.504579,55.448902 C181.728357,56.6884579 180.2254,57.996878 179.67887,60.2693971 L179.67887,60.2693971 C180.020451,58.0657422 181.250144,55.9309515 183.367946,55.104581 C183.572895,54.9668525 183.709528,55.3111736 183.504579,55.448902 L183.504579,55.448902 Z M185.827331,54.0027535 C185.075852,54.0027535 184.39269,53.9338893 183.641211,54.0716177 L183.641211,54.0716177 C184.324374,53.8650251 185.075852,53.7272967 185.827331,53.7272967 C185.963963,53.7272967 185.963963,54.0027535 185.827331,54.0027535 L185.827331,54.0027535 Z M187.330287,52.9009261 C186.100595,52.556605 184.802587,52.2122839 183.504579,52.6254692 C182.343203,52.9697903 181.386776,53.5895682 180.498665,54.484803 L180.430349,54.484803 C182.138254,52.2122839 184.802587,51.3859134 187.398604,52.4877408 C187.740185,52.556605 187.603552,52.9697903 187.330287,52.9009261 L187.330287,52.9009261 Z M187.740185,52.1434197 C186.100595,51.4547776 184.39269,50.9727281 182.616468,51.7302344 C181.181827,52.3500124 179.952135,53.3829756 178.859076,54.484803 C176.741273,56.5507295 174.62347,59.0298412 171.54924,59.4430265 C171.54924,59.4430265 171.480924,59.3741623 171.54924,59.3741623 C177.287803,58.2034706 181.045195,47.2540605 187.808501,51.9368271 C187.945133,52.0745555 187.808501,52.2122839 187.740185,52.1434197 L187.740185,52.1434197 Z M189.243142,57.5148285 C189.038193,57.1705074 189.038193,56.6884579 188.833244,56.2752726 C188.628296,55.7932231 188.355031,55.3800378 187.945133,55.0357167 L187.945133,54.9668525 C188.696612,55.448902 189.584723,56.4818653 189.44809,57.4459643 C189.44809,57.6525569 189.311458,57.6525569 189.243142,57.5148285 L189.243142,57.5148285 Z M301.213432,54.3470746 C299.710475,54.3470746 298.549099,55.448902 298.344151,56.8950505 L196.006448,56.8950505 L196.006448,58.0657422 L298.412467,58.0657422 C298.754048,59.3741623 299.847108,60.4071255 301.281748,60.4071255 C302.921338,60.4071255 304.287662,59.0298412 304.287662,57.3771 C304.219346,55.7243589 302.921338,54.3470746 301.213432,54.3470746 L301.213432,54.3470746 Z" id="vensel-21" fill="#85BCE6"></path>
            </g>
        </g>
    </g>
</svg>