<?xml version="1.0" encoding="UTF-8" standalone="no"?>
<svg width="408px" height="50px" viewBox="0 0 408 50" version="1.1" xmlns="http://www.w3.org/2000/svg" xmlns:xlink="http://www.w3.org/1999/xlink" xmlns:sketch="http://www.bohemiancoding.com/sketch/ns">
    <!-- Generator: Sketch 3.0.2 (7799) - http://www.bohemiancoding.com/sketch -->
    <title>ribbon</title>
    <description>Created with Sketch.</description>
    <defs></defs>
    <g id="Page-1" stroke="none" stroke-width="1" fill="none" fill-rule="evenodd" sketch:type="MSPage">
        <g id="vector-elements" sketch:type="MSLayerGroup" transform="translate(-131.000000, -20.000000)">
            <g id="ribbon" transform="translate(132.000000, 20.000000)" sketch:type="MSShapeGroup">
                <g id="Group" transform="translate(0.000000, 13.000000)" fill="#1372C9">
                    <path d="M361,-0.3 C376.1,1 391.1,2.5 406.2,4.1 C400.8,8 398.1,15.4 392.7,19.4 C397.1,24.8 398.5,31.6 403.6,37 C388.7,35.4 373.9,33.9 359,32.6 C359.7,24.8 360.3,7.4 361,-0.3 L361,-0.3 Z" id="Shape"></path>
                    <path d="M45.1,-0.3 C30,1 15,2.5 -0.1,4.1 C5.3,8 8,15.4 13.4,19.4 C9,24.8 8.1,31.6 2.5,37 C17.4,35.4 32.2,33.9 47.1,32.6 C46.4,24.8 45.8,7.4 45.1,-0.3 L45.1,-0.3 Z" id="Shape"></path>
                </g>
                <path d="M359.9,32 L369.2,33.9 L371.7,41 L359,45.6 L359.9,32 Z" id="Shape" fill="#78CFFE"></path>
                <path d="M46.2,32 L36.9,33.9 L34.5,41 L47.1,45.6 L46.2,32 Z" id="Shape" fill="#78CFFE"></path>
                <path d="M32.3,8 C146,-2.1 260.1,-2.1 373.8,8 C373.1,15.8 372.4,33.2 371.6,40.9 C259.3,30.9 146.7,30.9 34.4,40.9 C33.7,33.2 33,15.8 32.3,8 L32.3,8 Z" id="Shape" fill="#1372C9"></path>
            </g>
        </g>
    </g>
</svg>