<?xml version="1.0" encoding="UTF-8" standalone="no"?>
<svg width="408px" height="50px" viewBox="0 0 408 50" version="1.1" xmlns="http://www.w3.org/2000/svg" xmlns:xlink="http://www.w3.org/1999/xlink" xmlns:sketch="http://www.bohemiancoding.com/sketch/ns">
    <!-- Generator: Sketch 3.0.3 (7891) - http://www.bohemiancoding.com/sketch -->
    <title>ribbon1</title>
    <desc>Created with Sketch.</desc>
    <defs></defs>
    <g id="Page-1" stroke="none" stroke-width="1" fill="none" fill-rule="evenodd" sketch:type="MSPage">
        <g id="vector-elements" sketch:type="MSLayerGroup" transform="translate(-131.000000, -58.000000)">
            <g id="ribbon1" transform="translate(132.000000, 58.000000)" sketch:type="MSShapeGroup">
                <g id="Group" transform="translate(0.000000, 13.000000)" fill="#1372C9">
                    <path d="M361,-0.3 C376.1,1 391.1,2.5 406.2,4.1 C400.8,8 398.1,15.4 392.7,19.4 C397.1,24.8 398.5,31.6 403.6,37 C388.7,35.4 373.9,33.9 359,32.6 C359.7,24.8 360.3,7.4 361,-0.3 L361,-0.3 Z" id="Shape"></path>
                    <path d="M45.1,-0.3 C30,1 15,2.5 -0.1,4.1 C5.3,8 8,15.4 13.4,19.4 C9,24.8 8.1,31.6 2.5,37 C17.4,35.4 32.2,33.9 47.1,32.6 C46.4,24.8 45.8,7.4 45.1,-0.3 L45.1,-0.3 Z" id="Shape"></path>
                </g>
                <path d="M359.9,32 L369.2,33.9 L371.7,41 L359,45.6 L359.9,32 Z" id="Shape" fill="#78CFFE"></path>
                <path d="M46.2,32 L36.9,33.9 L34.5,41 L47.1,45.6 L46.2,32 Z" id="Shape" fill="#78CFFE"></path>
                <path d="M32.3,8 C146,-2.1 260.1,-2.1 373.8,8 C373.1,15.8 372.4,33.2 371.6,40.9 C259.3,30.9 146.7,30.9 34.4,40.9 C33.7,33.2 33,15.8 32.3,8 L32.3,8 Z" id="Shape" fill="#1372C9"></path>
                <path d="M122.878125,12.4 C123.011719,14.1333333 123.145312,15.8666667 123.145312,17.7333333 C122.076562,17.7333333 120.874219,17.8666667 119.805469,17.8666667 C119.671875,16.1333333 119.538281,14.4 119.538281,12.5333333 C118.736719,12.5333333 117.801562,12.6666667 117,12.6666667 C117.267187,17.0666667 117.534375,21.4666667 117.801562,26 C118.603125,26 119.404687,25.8666667 120.339844,25.8666667 C120.20625,23.8666667 120.072656,22 119.939062,20 C121.007812,20 122.076562,19.8666667 123.278906,19.8666667 C123.4125,21.8666667 123.546094,23.7333333 123.679687,25.7333333 C124.48125,25.7333333 125.282812,25.6 126.217969,25.6 C125.950781,21.2 125.683594,16.6666667 125.416406,12.2666667 C124.614844,12.2666667 123.679687,12.4 122.878125,12.4 L122.878125,12.4 Z M135.569531,11.6 C134.634375,16.1333333 133.832812,20.6666667 132.897656,25.0666667 C133.699219,25.0666667 134.500781,24.9333333 135.435937,24.9333333 C135.703125,23.8666667 135.836719,22.6666667 136.103906,21.6 C137.30625,21.6 138.375,21.4666667 139.577344,21.4666667 C139.844531,22.5333333 140.245312,23.7333333 140.5125,24.8 C141.314062,24.8 142.115625,24.6666667 143.050781,24.6666667 C141.714844,20.2666667 140.378906,15.8666667 139.042969,11.4666667 C137.974219,11.6 136.771875,11.6 135.569531,11.6 L135.569531,11.6 Z M136.504687,19.4666667 C136.905469,17.2 137.172656,15.7333333 137.30625,15.0666667 C137.439844,14.4 137.439844,13.8666667 137.573437,13.3333333 C137.573437,13.6 137.707031,14.1333333 137.974219,14.8 C138.107812,15.6 138.241406,16 138.375,16.2666667 C138.642187,17.3333333 138.909375,18.2666667 139.176562,19.3333333 C138.107812,19.3333333 137.30625,19.4666667 136.504687,19.4666667 L136.504687,19.4666667 Z M160.150781,10.6666667 C160.284375,14.4 160.417969,18.1333333 160.551562,21.7333333 C159.616406,21.7333333 158.68125,21.7333333 157.6125,21.8666667 C157.478906,18.1333333 157.345312,14.4 157.211719,10.8 C156.410156,10.8 155.608594,10.8 154.673437,10.9333333 C154.807031,14.6666667 154.940625,18.4 155.074219,22 C154.139062,22 153.203906,22.1333333 152.135156,22.1333333 C152.001562,18.4 151.867969,14.6666667 151.734375,11.0666667 C150.932812,11.0666667 149.997656,11.0666667 149.196094,11.2 C149.329687,15.6 149.596875,20.1333333 149.730469,24.5333333 C154.139062,24.4 158.547656,24.2666667 162.95625,24.1333333 C162.822656,19.7333333 162.689062,15.2 162.555469,10.8 C161.8875,10.6666667 160.952344,10.6666667 160.150781,10.6666667 L160.150781,10.6666667 Z M172.842187,10.2666667 C171.773437,14.8 170.838281,19.2 169.769531,23.7333333 L172.307812,23.7333333 C172.575,22.6666667 172.708594,21.4666667 172.975781,20.4 C174.178125,20.4 175.246875,20.4 176.449219,20.2666667 C176.716406,21.3333333 176.983594,22.5333333 177.250781,23.6 L179.789062,23.6 C178.586719,19.2 177.384375,14.6666667 176.182031,10.2666667 L172.842187,10.2666667 L172.842187,10.2666667 Z M173.510156,18.1333333 C173.910937,15.8666667 174.311719,14.4 174.311719,13.8666667 C174.445312,13.2 174.445312,12.6666667 174.578906,12.1333333 C174.578906,12.4 174.7125,12.9333333 174.846094,13.6 C174.979687,14.4 175.113281,14.8 175.113281,15.0666667 C175.380469,16.1333333 175.647656,17.0666667 175.914844,18.1333333 C175.246875,18.1333333 174.311719,18.1333333 173.510156,18.1333333 L173.510156,18.1333333 Z M203.167969,20.5333333 L203.167969,20.5333333 C202.366406,17.0666667 201.564844,13.6 200.763281,10.1333333 L196.889062,10.1333333 C196.889062,14.5333333 196.889062,19.0666667 197.022656,23.4666667 L199.29375,23.4666667 L199.29375,14.5333333 C199.29375,13.8666667 199.29375,13.0666667 199.160156,12.1333333 L199.29375,12.1333333 C200.228906,15.8666667 201.030469,19.7333333 201.832031,23.4666667 L204.503906,23.4666667 C205.305469,19.7333333 206.240625,15.8666667 207.042187,12.1333333 L207.175781,12.1333333 C207.042187,12.9333333 207.042187,13.7333333 207.042187,14.4 L207.042187,23.4666667 L209.446875,23.4666667 L209.446875,10.1333333 L205.572656,10.1333333 C204.771094,13.4666667 203.969531,16.9333333 203.167969,20.5333333 L203.167969,20.5333333 Z M219.6,19.6 L219.6,19.6 C219.6,18.8 219.733594,18.1333333 219.733594,17.3333333 C219.733594,14.9333333 219.733594,12.4 219.867187,10 L217.596094,10 C217.596094,14.4 217.4625,18.9333333 217.4625,23.3333333 L220.535156,23.3333333 C222.004687,20.1333333 223.340625,16.9333333 224.810156,13.7333333 L224.94375,13.7333333 C224.810156,14.4 224.676562,15.2 224.676562,16.1333333 C224.676562,18.5333333 224.676562,21.0666667 224.542969,23.4666667 L226.814062,23.4666667 C226.814062,19.0666667 226.947656,14.5333333 226.947656,10.1333333 L223.875,10.1333333 C222.405469,13.3333333 221.069531,16.5333333 219.6,19.6 L219.6,19.6 Z M239.505469,12.4 C239.90625,12.4 240.173437,12.5333333 240.574219,12.6666667 C240.841406,12.8 241.242187,13.0666667 241.509375,13.2 C241.776562,12.5333333 242.04375,11.8666667 242.444531,11.2 C241.910156,10.8 241.509375,10.6666667 240.975,10.4 C240.574219,10.2666667 240.039844,10.1333333 239.505469,10.1333333 C238.035937,10.1333333 236.833594,10.6666667 235.898437,11.8666667 C235.096875,13.0666667 234.5625,14.8 234.5625,16.9333333 C234.5625,19.0666667 234.829687,20.8 235.63125,22 C236.432812,23.2 237.501562,23.8666667 239.104687,23.8666667 C240.173437,23.8666667 240.975,23.7333333 241.642969,23.3333333 L241.642969,21.0666667 C240.841406,21.4666667 240.039844,21.7333333 239.371875,21.7333333 C237.76875,21.7333333 236.967187,20.1333333 237.100781,17.0666667 C237.100781,15.6 237.367969,14.4 237.76875,13.6 C238.169531,12.8 238.703906,12.4 239.505469,12.4 L239.505469,12.4 Z M253.8,12.8 C254.200781,12.8 254.467969,12.9333333 254.86875,13.0666667 C255.135937,13.2 255.403125,13.4666667 255.803906,13.6 C256.071094,12.9333333 256.471875,12.2666667 256.739062,11.6 C256.204687,11.2 255.803906,10.9333333 255.269531,10.8 C254.86875,10.6666667 254.334375,10.5333333 253.8,10.5333333 C252.330469,10.5333333 251.128125,11.0666667 250.192969,12.2666667 C249.257812,13.4666667 248.857031,15.0666667 248.723437,17.3333333 C248.723437,19.4666667 248.990625,21.2 249.792187,22.4 C250.59375,23.6 251.6625,24.2666667 253.265625,24.2666667 C254.334375,24.2666667 255.135937,24.1333333 255.803906,23.7333333 C255.803906,22.9333333 255.803906,22.2666667 255.9375,21.4666667 C255.135937,21.8666667 254.334375,22.1333333 253.666406,22 C252.063281,22 251.261719,20.4 251.395312,17.3333333 C251.395312,15.8666667 251.6625,14.6666667 252.196875,13.8666667 C252.464062,13.2 252.998437,12.8 253.8,12.8 L253.8,12.8 Z M265.689844,20.8 C265.55625,20.8 265.55625,20.8 265.689844,20.8 C265.689844,20 265.823437,19.3333333 265.823437,18.5333333 C265.957031,16.1333333 266.090625,13.6 266.090625,11.2 C265.289062,11.2 264.4875,11.2 263.819531,11.0666667 C263.685937,15.4666667 263.41875,20 263.285156,24.4 C264.353906,24.4 265.289062,24.5333333 266.357812,24.5333333 C267.827344,21.3333333 269.430469,18.2666667 270.9,15.0666667 L271.033594,15.0666667 C270.9,15.7333333 270.766406,16.5333333 270.766406,17.4666667 C270.632812,19.8666667 270.499219,22.2666667 270.365625,24.8 C271.167187,24.8 271.835156,24.9333333 272.636719,24.9333333 C272.903906,20.5333333 273.0375,16 273.304687,11.6 C272.235937,11.6 271.300781,11.4666667 270.232031,11.4666667 C268.628906,14.5333333 267.159375,17.7333333 265.689844,20.8 L265.689844,20.8 Z M285.194531,12.2666667 C282.389062,12.1333333 281.053125,13.4666667 280.919531,16.1333333 C280.919531,16.9333333 280.919531,17.6 281.186719,18.1333333 C281.453906,18.6666667 281.854687,19.2 282.389062,19.6 C281.453906,21.4666667 280.51875,23.3333333 279.583594,25.3333333 C280.51875,25.3333333 281.320312,25.4666667 282.255469,25.4666667 C283.057031,23.7333333 283.858594,22.1333333 284.660156,20.4 L285.595312,20.4 C285.461719,22.1333333 285.461719,23.8666667 285.328125,25.6 C286.129687,25.6 286.93125,25.7333333 287.866406,25.7333333 C288.133594,21.3333333 288.400781,16.8 288.667969,12.4 C287.332031,12.4 286.263281,12.2666667 285.194531,12.2666667 L285.194531,12.2666667 Z M285.595312,18.2666667 L284.927344,18.2666667 C284.392969,18.2666667 283.858594,18 283.725,17.7333333 C283.457812,17.3333333 283.457812,16.9333333 283.457812,16.2666667 C283.457812,15.6 283.725,15.0666667 283.992187,14.8 C284.259375,14.5333333 284.660156,14.4 285.328125,14.4 L285.996094,14.4 C285.728906,15.7333333 285.595312,16.9333333 285.595312,18.2666667 L285.595312,18.2666667 Z" id="Shape" fill="#FFFFFF"></path>
            </g>
        </g>
    </g>
</svg>