<?xml version="1.0" encoding="UTF-8" standalone="no"?>
<svg width="20px" height="20px" viewBox="0 0 20 20" version="1.1" xmlns="http://www.w3.org/2000/svg" xmlns:xlink="http://www.w3.org/1999/xlink" xmlns:sketch="http://www.bohemiancoding.com/sketch/ns">
    <!-- Generator: Sketch 3.0.2 (7799) - http://www.bohemiancoding.com/sketch -->
    <title>search</title>
    <description>Created with Sketch.</description>
    <defs></defs>
    <g id="Page-1" stroke="none" stroke-width="1" fill="none" fill-rule="evenodd" sketch:type="MSPage">
        <g id="vector-elements" sketch:type="MSLayerGroup" transform="translate(-139.000000, -445.000000)" fill="#FFFFFF">
            <path d="M158.792208,461.763636 L154.387013,457.301299 C155.103896,456.049351 155.477922,454.657143 155.477922,453.254545 C155.477922,448.703896 151.779221,445 147.238961,445 C142.698701,445 139,448.703896 139,453.254545 C139,457.805195 142.698701,461.509091 147.238961,461.509091 C148.688312,461.509091 150.122078,461.109091 151.4,460.345455 L155.784416,464.792208 C155.883117,464.890909 156.023377,464.953247 156.163636,464.953247 C156.303896,464.953247 156.444156,464.896104 156.542857,464.792208 L158.792208,462.516883 C159,462.303896 159,461.971429 158.792208,461.763636 L158.792208,461.763636 Z M147.238961,448.215584 C150.012987,448.215584 152.267532,450.475325 152.267532,453.254545 C152.267532,456.033766 150.012987,458.293506 147.238961,458.293506 C144.464935,458.293506 142.21039,456.033766 142.21039,453.254545 C142.21039,450.475325 144.464935,448.215584 147.238961,448.215584 L147.238961,448.215584 Z" id="search" sketch:type="MSShapeGroup"></path>
        </g>
    </g>
</svg>