<?xml version="1.0" encoding="UTF-8" standalone="no"?>
<svg width="42px" height="34px" viewBox="0 0 42 34" version="1.1" xmlns="http://www.w3.org/2000/svg" xmlns:xlink="http://www.w3.org/1999/xlink" xmlns:sketch="http://www.bohemiancoding.com/sketch/ns">
    <!-- Generator: Sketch 3.0.2 (7799) - http://www.bohemiancoding.com/sketch -->
    <title>twitter</title>
    <description>Created with Sketch.</description>
    <defs></defs>
    <g id="Page-1" stroke="none" stroke-width="1" fill="none" fill-rule="evenodd" sketch:type="MSPage">
        <g id="vector-elements" sketch:type="MSLayerGroup" transform="translate(-721.000000, -250.000000)" fill="#231F20">
            <path d="M762,254.7 C760.5,255.4 758.9,255.8 757.3,256 C759,255 760.3,253.4 760.9,251.4 C759.3,252.3 757.5,253 755.7,253.4 C754.2,251.8 752,250.8 749.7,250.8 C745.1,250.8 741.4,254.5 741.4,259.1 C741.4,259.7 741.5,260.4 741.6,261 C734.7,260.7 728.7,257.4 724.6,252.4 C723.9,253.6 723.5,255 723.5,256.6 C723.5,259.5 725,262 727.2,263.5 C725.8,263.5 724.6,263.1 723.5,262.5 L723.5,262.6 C723.5,266.6 726.3,269.9 730.1,270.7 C729.4,270.9 728.7,271 727.9,271 C727.4,271 726.9,270.9 726.3,270.9 C727.4,274.2 730.4,276.6 734,276.6 C731.2,278.8 727.6,280.1 723.7,280.1 C723,280.1 722.4,280.1 721.7,280 C725.4,282.3 729.7,283.7 734.4,283.7 C749.6,283.7 757.9,271.1 757.9,260.2 L757.9,259.1 C759.5,257.8 760.9,256.3 762,254.7 L762,254.7 L762,254.7 Z" id="twitter" sketch:type="MSShapeGroup"></path>
        </g>
    </g>
</svg>