<?xml version="1.0" encoding="UTF-8" standalone="no"?>
<svg width="70px" height="73px" viewBox="0 0 70 73" version="1.1" xmlns="http://www.w3.org/2000/svg" xmlns:xlink="http://www.w3.org/1999/xlink" xmlns:sketch="http://www.bohemiancoding.com/sketch/ns">
    <!-- Generator: Sketch 3.0.2 (7799) - http://www.bohemiancoding.com/sketch -->
    <title>vensel-1-tl</title>
    <description>Created with Sketch.</description>
    <defs></defs>
    <g id="Page-1" stroke="none" stroke-width="1" fill="none" fill-rule="evenodd" sketch:type="MSPage">
        <g id="vector-elements" sketch:type="MSLayerGroup" transform="translate(-413.000000, -261.000000)" fill="#231F20">
            <path d="M448,329.5 C448,331.5 451,331.5 451,329.5 C451,327.5 448,327.5 448,329.5 L448,329.5 Z M442.7,319.1 C442.7,317.3 439.8,317.3 439.8,319.1 C439.8,321 442.7,321 442.7,319.1 L442.7,319.1 Z M465,292.3 C466.8,292.3 466.8,289.5 465,289.5 C463.2,289.5 463.2,292.3 465,292.3 L465,292.3 Z M476,315 L464,315 L464,327 L476,327 L476,315 L476,315 Z M478.5,297 C476.5,297 476.5,300 478.5,300 C480.5,300 480.5,297 478.5,297 L478.5,297 Z M457,308 L457,334 L483,334 L483,308 L457,308 L457,308 Z M481,332 L459,332 L459,310 L481,310 L481,332 L481,332 Z M480.996834,262.002808 L480.996832,264.886719 C479.696832,262.486719 476,262 473.7,263 C471,264.3 470.2,268.6 471.3,271.1 C472.3,273.3 473.9,274.9 475.4,276.5 C474.2,276.1 472.8,276.1 471.3,276.4 C468.2,277.1 466.2,281.1 467.4,284 C468.8,287.3 472.7,287.6 475,285 C476.2,283.6 474.2,281.6 473,283 C471.1,284.9 469.2,283.9 470.3,280.6 C470.7,279.3 472.1,278.9 473.5,279 C475.2,278.9 476.4,279.8 477.1,281.2 C478.3,283.5 477.6,286.9 476.7,289.1 C475.3,292.4 472.9,295.3 469.9,297.1 C468.1,298.2 466.1,298.4 464.1,298.4 C463.2,298.4 462.4,298.1 461.6,297.6 C459.4,296.4 461.4,294.3 461.4,294.3 C462.5,295.8 464.9,294.3 463.9,292.9 C462.2,290.5 459.2,291.6 457.7,293.6 C456,295.8 458.449933,299.644577 460.549933,300.944577 L452.020148,301.021176 L452.020148,311.260254 C450.720148,309.160254 447.5,306.9 445.2,308.6 C443.2,310.1 442.1,313.1 444.5,314.8 C446,315.9 447.4,313.4 445.9,312.3 C445.9,312.3 447.9,310.3 449.1,312.5 C449.6,313.2 449.9,314.1 449.9,315 C450,317 449.7,319 448.6,320.8 C446.8,323.8 443.9,326.2 440.6,327.6 C438.4,328.6 434.9,329.3 432.6,328 C431.2,327.2 430.3,326.1 430.4,324.4 C430.3,323.1 430.7,321.7 432,321.3 C435.3,320.2 436.3,322.1 434.4,324 C433,325.2 435,327.2 436.4,326 C439,323.7 438.7,319.8 435.4,318.4 C432.5,317.2 428.5,319.1 427.8,322.3 C427.5,323.9 427.5,325.3 427.9,326.5 C426.3,325 424.7,323.3 422.5,322.3 C420,321.2 415.6,322 414.4,324.7 C413.4,326.8 413.671094,330.593039 415.371094,331.993039 L413.02832,331.993039 L413.02832,334.005673 L453.969849,334.005679 L453.969855,302.989987 L482.993842,302.989987 L482.993843,262.030811 L480.996834,262.002808 Z M420.9,332.045586 C421.4,331.445586 421.8,330.745586 421.6,329.545586 C421.2,327.745586 418.5,328.545586 418.9,330.345586 C418.1,330.445586 417.2,330.345586 417,329.645586 C416.7,328.745586 416.8,327.645586 417.3,326.845586 C418,325.445586 420.5,325.245586 422,326.145586 C423.7,327.245586 425,328.745586 426.4,330.145586 C427.2,330.945586 428.1,331.545586 429,332.045586 L420.9,332.045586 L420.9,332.045586 Z M452.000012,331.999988 L439.700012,331.999988 C439.900012,331.999988 440.000012,331.999988 440.200012,331.899988 C444.800012,330.499988 449.700012,326.799988 452.000012,322.299988 L452.000012,331.999988 L452.000012,331.999988 Z M480.900024,300.999988 L470.900024,300.999988 C475.400024,298.699988 479.100024,293.799988 480.500024,289.299988 C480.800024,288.299988 480.900024,287.299988 481.000024,286.299988 L481.000024,300.999988 L480.900024,300.999988 Z M480.6,279.4 C480,278.2 479.2,277.1 478.3,276 C476.9,274.5 475.4,273.3 474.3,271.6 C473.4,270.1 473.5,267.6 475,266.9 C475.8,266.5 476.9,266.4 477.8,266.6 C478.5,266.8 478.6,267.7 478.5,268.5 C476.7,268.1 475.9,270.9 477.7,271.3 C479.1,271.6 480.414404,271.1 481.014404,270.3 L481.014404,279.4 L480.6,279.4 Z" id="vensel-1-tl" sketch:type="MSShapeGroup" transform="translate(448.000000, 298.000000) scale(-1, -1) translate(-448.000000, -298.000000) "></path>
        </g>
    </g>
</svg>