<?xml version="1.0" encoding="UTF-8" standalone="no"?>
<svg width="32px" height="38px" viewBox="0 0 32 38" version="1.1" xmlns="http://www.w3.org/2000/svg" xmlns:xlink="http://www.w3.org/1999/xlink" xmlns:sketch="http://www.bohemiancoding.com/sketch/ns">
    <!-- Generator: Sketch 3.0.2 (7799) - http://www.bohemiancoding.com/sketch -->
    <title>vensel-5</title>
    <description>Created with Sketch.</description>
    <defs></defs>
    <g id="Page-1" stroke="none" stroke-width="1" fill="none" fill-rule="evenodd" sketch:type="MSPage">
        <g id="vector-elements" sketch:type="MSLayerGroup" transform="translate(-268.000000, -390.000000)" fill="#231F20">
            <path d="M292.1,410.7 C294.5,410.3 296.9,409.7 299.2,408.8 C296.9,408 294.5,407.3 292.1,406.9 C285.8,405.9 279.6,406.6 274,408.8 C279.7,411.1 285.8,411.7 292.1,410.7 L292.1,410.7 Z M291.8,408.9 L291.8,408.9 C288.1,409.5 284.5,409.5 281,408.9 C284.6,408.3 288.2,408.3 291.8,408.9 L291.8,408.9 Z M270.3,420.3 L270.4,420.3 C270.8,422.4 271.6,424.5 273.7,426.1 C274.9,426.9 276.7,427.3 278.6,427.1 C280.6,426.9 282.2,426 283.1,424.8 C284.4,423 284.7,420.7 283.9,418.9 C283.3,417.4 282,416.5 280.5,416.3 C278.5,416.1 276.7,417.4 276.3,419.3 C276,420.8 277.1,422.1 278.3,422.3 C279.4,422.5 280.3,421.9 280.5,420.8 C280.6,420.3 280.3,419.8 279.7,419.7 C279.2,419.6 278.7,419.9 278.6,420.4 C278.6,420.4 278.4,420.4 278.3,420.2 C278.2,420.1 278.1,419.9 278.1,419.6 C278.3,418.8 279,417.9 280.2,418.1 C281.4,418.2 281.9,419.1 282.1,419.6 C282.6,420.8 282.4,422.4 281.5,423.6 C280.9,424.4 279.7,425 278.3,425.2 C276.9,425.4 275.5,425.1 274.8,424.6 C272.6,423 272.3,420.8 271.9,418.2 L271.9,417.8 C271.9,417.7 271.8,417.6 271.8,417.5 L270.4,408.9 L271.8,400.3 C271.9,400.2 271.9,400.1 271.9,400 L271.9,399.6 C272.3,397 272.7,394.8 274.8,393.2 C275.6,392.6 276.9,392.4 278.3,392.6 C279.7,392.8 280.9,393.4 281.5,394.2 C282.4,395.4 282.6,397 282.1,398.2 C281.9,398.7 281.3,399.5 280.2,399.7 C279,399.9 278.2,399 278.1,398.2 C278.1,397.9 278.2,397.7 278.3,397.6 C278.5,397.4 278.7,397.4 278.6,397.4 C278.7,397.9 279.2,398.2 279.7,398.2 C280.2,398.1 280.6,397.6 280.5,397.1 C280.3,396 279.4,395.4 278.3,395.6 C277.1,395.8 276,397.1 276.3,398.6 C276.7,400.6 278.5,401.9 280.5,401.6 C282,401.4 283.3,400.5 283.9,399 C284.7,397.2 284.4,394.9 283.1,393.1 C282.2,391.9 280.6,391 278.6,390.8 C276.7,390.6 274.9,390.9 273.7,391.8 C271.5,393.4 270.8,395.5 270.4,397.6 L270.3,397.6 L268.7,408 L268.7,410 L270.3,420.3 Z" id="vensel-5" sketch:type="MSShapeGroup"></path>
        </g>
    </g>
</svg>