<?xml version="1.0" encoding="UTF-8" standalone="no"?>
<svg width="31px" height="38px" viewBox="0 0 31 38" version="1.1" xmlns="http://www.w3.org/2000/svg" xmlns:xlink="http://www.w3.org/1999/xlink" xmlns:sketch="http://www.bohemiancoding.com/sketch/ns">
    <!-- Generator: Sketch 3.0.2 (7799) - http://www.bohemiancoding.com/sketch -->
    <title>vensel-4</title>
    <description>Created with Sketch.</description>
    <defs></defs>
    <g id="Page-1" stroke="none" stroke-width="1" fill="none" fill-rule="evenodd" sketch:type="MSPage">
        <g id="vector-elements" sketch:type="MSLayerGroup" transform="translate(-134.000000, -303.000000)" fill="#231F20">
            <path d="M141.1,320.250991 C138.7,320.650991 136.3,321.250991 134,322.150991 C136.3,322.950991 138.7,323.650991 141.1,324.050991 C147.4,325.050991 153.6,324.350991 159.2,322.150991 C153.6,319.950991 147.4,319.250991 141.1,320.250991 L141.1,320.250991 Z M141.4,322.150991 C141.4,322.150991 141.3,322.150991 141.4,322.150991 C141.3,322.150991 141.4,322.150991 141.4,322.150991 C145.1,321.550991 148.7,321.550991 152.2,322.150991 C148.7,322.650991 145.1,322.750991 141.4,322.150991 L141.4,322.150991 Z M162.9,310.750991 L162.8,310.750991 C162.4,308.650991 161.6,306.550991 159.5,304.950991 C158.3,304.150991 156.5,303.750991 154.6,303.950991 C152.6,304.150991 151,305.050991 150.1,306.250991 C148.8,308.050991 148.5,310.250991 149.3,312.150991 C149.9,313.650991 151.2,314.550991 152.7,314.750991 C154.7,315.050991 156.5,313.650991 156.9,311.750991 C157.2,310.250991 156.1,308.950991 154.9,308.750991 C153.8,308.550991 152.9,309.150991 152.7,310.250991 C152.6,310.750991 152.9,311.250991 153.4,311.350991 C153.9,311.450991 154.4,311.150991 154.5,310.650991 C154.5,310.650991 154.7,310.650991 154.8,310.850991 C154.9,310.950991 155,311.150991 155,311.450991 C154.8,312.250991 154.1,313.150991 152.9,312.950991 C151.7,312.850991 151.2,311.950991 151,311.450991 C150.5,310.250991 150.7,308.650991 151.6,307.450991 C152.2,306.650991 153.4,306.050991 154.8,305.850991 C156.2,305.650991 157.5,305.850991 158.3,306.450991 C160.5,308.050991 160.8,310.250991 161.2,312.850991 L161.3,313.250991 C161.3,313.350991 161.4,313.450991 161.4,313.550991 L162.8,322.150991 L161.4,330.750991 C161.3,330.850991 161.3,330.950991 161.3,331.050991 L161.2,331.450991 C160.8,334.050991 160.4,336.250991 158.3,337.850991 C157.5,338.450991 156.2,338.650991 154.8,338.450991 C153.4,338.250991 152.2,337.650991 151.6,336.850991 C150.7,335.650991 150.5,334.050991 151,332.850991 C151.2,332.350991 151.8,331.550991 152.9,331.350991 C154.1,331.150991 154.9,332.050991 155,332.850991 C155.1,333.150991 154.9,333.350991 154.8,333.450991 C154.6,333.650991 154.4,333.650991 154.5,333.650991 C154.4,333.150991 153.9,332.850991 153.4,332.850991 C152.9,332.950991 152.6,333.450991 152.7,333.950991 C152.9,335.050991 153.8,335.650991 154.9,335.450991 C156.1,335.250991 157.2,333.950991 156.9,332.450991 C156.5,330.450991 154.7,329.150991 152.7,329.450991 C151.2,329.650991 149.9,330.550991 149.3,332.050991 C148.5,333.850991 148.8,336.150991 150.1,337.950991 C151,339.150991 152.6,340.050991 154.6,340.250991 C156.5,340.450991 158.3,340.150991 159.5,339.250991 C161.7,337.650991 162.4,335.550991 162.8,333.450991 L162.9,333.450991 L164.5,323.050991 L164.5,321.050991 L162.9,310.750991 Z" id="vensel-4" sketch:type="MSShapeGroup"></path>
        </g>
    </g>
</svg>