<?xml version="1.0" encoding="UTF-8" standalone="no"?>
<svg width="70px" height="73px" viewBox="0 0 70 73" version="1.1" xmlns="http://www.w3.org/2000/svg" xmlns:xlink="http://www.w3.org/1999/xlink" xmlns:sketch="http://www.bohemiancoding.com/sketch/ns">
    <!-- Generator: Sketch 3.0.2 (7799) - http://www.bohemiancoding.com/sketch -->
    <title>vensel-1-tr</title>
    <description>Created with Sketch.</description>
    <defs></defs>
    <g id="Page-1" stroke="none" stroke-width="1" fill="none" fill-rule="evenodd" sketch:type="MSPage">
        <g id="vector-elements" sketch:type="MSLayerGroup" transform="translate(-504.000000, -261.000000)" fill="#231F20">
            <path d="M539,329.5 C539,331.5 542,331.5 542,329.5 C542,327.5 539,327.5 539,329.5 L539,329.5 Z M533.7,319.1 C533.7,317.3 530.8,317.3 530.8,319.1 C530.8,321 533.7,321 533.7,319.1 L533.7,319.1 Z M556,292.3 C557.8,292.3 557.8,289.5 556,289.5 C554.2,289.5 554.2,292.3 556,292.3 L556,292.3 Z M567,315 L555,315 L555,327 L567,327 L567,315 L567,315 Z M569.5,297 C567.5,297 567.5,300 569.5,300 C571.5,300 571.5,297 569.5,297 L569.5,297 Z M548,308 L548,334 L574,334 L574,308 L548,308 L548,308 Z M572,332 L550,332 L550,310 L572,310 L572,332 L572,332 Z M571.996834,262.002808 L571.996832,264.886719 C570.696832,262.486719 567,262 564.7,263 C562,264.3 561.2,268.6 562.3,271.1 C563.3,273.3 564.9,274.9 566.4,276.5 C565.2,276.1 563.8,276.1 562.3,276.4 C559.2,277.1 557.2,281.1 558.4,284 C559.8,287.3 563.7,287.6 566,285 C567.2,283.6 565.2,281.6 564,283 C562.1,284.9 560.2,283.9 561.3,280.6 C561.7,279.3 563.1,278.9 564.5,279 C566.2,278.9 567.4,279.8 568.1,281.2 C569.3,283.5 568.6,286.9 567.7,289.1 C566.3,292.4 563.9,295.3 560.9,297.1 C559.1,298.2 557.1,298.4 555.1,298.4 C554.2,298.4 553.4,298.1 552.6,297.6 C550.4,296.4 552.4,294.3 552.4,294.3 C553.5,295.8 555.9,294.3 554.9,292.9 C553.2,290.5 550.2,291.6 548.7,293.6 C547,295.8 549.449933,299.644577 551.549933,300.944577 L543.020148,301.021176 L543.020148,311.260254 C541.720148,309.160254 538.5,306.9 536.2,308.6 C534.2,310.1 533.1,313.1 535.5,314.8 C537,315.9 538.4,313.4 536.9,312.3 C536.9,312.3 538.9,310.3 540.1,312.5 C540.6,313.2 540.9,314.1 540.9,315 C541,317 540.7,319 539.6,320.8 C537.8,323.8 534.9,326.2 531.6,327.6 C529.4,328.6 525.9,329.3 523.6,328 C522.2,327.2 521.3,326.1 521.4,324.4 C521.3,323.1 521.7,321.7 523,321.3 C526.3,320.2 527.3,322.1 525.4,324 C524,325.2 526,327.2 527.4,326 C530,323.7 529.7,319.8 526.4,318.4 C523.5,317.2 519.5,319.1 518.8,322.3 C518.5,323.9 518.5,325.3 518.9,326.5 C517.3,325 515.7,323.3 513.5,322.3 C511,321.2 506.6,322 505.4,324.7 C504.4,326.8 504.671094,330.593039 506.371094,331.993039 L504.02832,331.993039 L504.02832,334.005673 L544.969849,334.005679 L544.969855,302.989987 L573.993842,302.989987 L573.993843,262.030811 L571.996834,262.002808 Z M511.9,332.045586 C512.4,331.445586 512.8,330.745586 512.6,329.545586 C512.2,327.745586 509.5,328.545586 509.9,330.345586 C509.1,330.445586 508.2,330.345586 508,329.645586 C507.7,328.745586 507.8,327.645586 508.3,326.845586 C509,325.445586 511.5,325.245586 513,326.145586 C514.7,327.245586 516,328.745586 517.4,330.145586 C518.2,330.945586 519.1,331.545586 520,332.045586 L511.9,332.045586 L511.9,332.045586 Z M543.000012,331.999988 L530.700012,331.999988 C530.900012,331.999988 531.000012,331.999988 531.200012,331.899988 C535.800012,330.499988 540.700012,326.799988 543.000012,322.299988 L543.000012,331.999988 L543.000012,331.999988 Z M571.900024,300.999988 L561.900024,300.999988 C566.400024,298.699988 570.100024,293.799988 571.500024,289.299988 C571.800024,288.299988 571.900024,287.299988 572.000024,286.299988 L572.000024,300.999988 L571.900024,300.999988 Z M571.6,279.4 C571,278.2 570.2,277.1 569.3,276 C567.9,274.5 566.4,273.3 565.3,271.6 C564.4,270.1 564.5,267.6 566,266.9 C566.8,266.5 567.9,266.4 568.8,266.6 C569.5,266.8 569.6,267.7 569.5,268.5 C567.7,268.1 566.9,270.9 568.7,271.3 C570.1,271.6 571.414404,271.1 572.014404,270.3 L572.014404,279.4 L571.6,279.4 Z" id="vensel-1-tr" sketch:type="MSShapeGroup" transform="translate(539.000000, 298.000000) scale(1, -1) translate(-539.000000, -298.000000) "></path>
        </g>
    </g>
</svg>