<?xml version="1.0" encoding="UTF-8" standalone="no"?>
<svg width="70px" height="73px" viewBox="0 0 70 73" version="1.1" xmlns="http://www.w3.org/2000/svg" xmlns:xlink="http://www.w3.org/1999/xlink" xmlns:sketch="http://www.bohemiancoding.com/sketch/ns">
    <!-- Generator: Sketch 3.0.2 (7799) - http://www.bohemiancoding.com/sketch -->
    <title>vensel-1-bl</title>
    <description>Created with Sketch.</description>
    <defs></defs>
    <g id="Page-1" stroke="none" stroke-width="1" fill="none" fill-rule="evenodd" sketch:type="MSPage">
        <g id="vector-elements" sketch:type="MSLayerGroup" transform="translate(-413.000000, -342.000000)" fill="#231F20">
            <path d="M448,409.5 C448,411.5 451,411.5 451,409.5 C451,407.5 448,407.5 448,409.5 L448,409.5 Z M442.7,399.1 C442.7,397.3 439.8,397.3 439.8,399.1 C439.8,401 442.7,401 442.7,399.1 L442.7,399.1 Z M465,372.3 C466.8,372.3 466.8,369.5 465,369.5 C463.2,369.5 463.2,372.3 465,372.3 L465,372.3 Z M476,395 L464,395 L464,407 L476,407 L476,395 L476,395 Z M478.5,377 C476.5,377 476.5,380 478.5,380 C480.5,380 480.5,377 478.5,377 L478.5,377 Z M457,388 L457,414 L483,414 L483,388 L457,388 L457,388 Z M481,412 L459,412 L459,390 L481,390 L481,412 L481,412 Z M480.996834,342.002808 L480.996832,344.886719 C479.696832,342.486719 476,342 473.7,343 C471,344.3 470.2,348.6 471.3,351.1 C472.3,353.3 473.9,354.9 475.4,356.5 C474.2,356.1 472.8,356.1 471.3,356.4 C468.2,357.1 466.2,361.1 467.4,364 C468.8,367.3 472.7,367.6 475,365 C476.2,363.6 474.2,361.6 473,363 C471.1,364.9 469.2,363.9 470.3,360.6 C470.7,359.3 472.1,358.9 473.5,359 C475.2,358.9 476.4,359.8 477.1,361.2 C478.3,363.5 477.6,366.9 476.7,369.1 C475.3,372.4 472.9,375.3 469.9,377.1 C468.1,378.2 466.1,378.4 464.1,378.4 C463.2,378.4 462.4,378.1 461.6,377.6 C459.4,376.4 461.4,374.3 461.4,374.3 C462.5,375.8 464.9,374.3 463.9,372.9 C462.2,370.5 459.2,371.6 457.7,373.6 C456,375.8 458.449933,379.644577 460.549933,380.944577 L452.020148,381.021176 L452.020148,391.260254 C450.720148,389.160254 447.5,386.9 445.2,388.6 C443.2,390.1 442.1,393.1 444.5,394.8 C446,395.9 447.4,393.4 445.9,392.3 C445.9,392.3 447.9,390.3 449.1,392.5 C449.6,393.2 449.9,394.1 449.9,395 C450,397 449.7,399 448.6,400.8 C446.8,403.8 443.9,406.2 440.6,407.6 C438.4,408.6 434.9,409.3 432.6,408 C431.2,407.2 430.3,406.1 430.4,404.4 C430.3,403.1 430.7,401.7 432,401.3 C435.3,400.2 436.3,402.1 434.4,404 C433,405.2 435,407.2 436.4,406 C439,403.7 438.7,399.8 435.4,398.4 C432.5,397.2 428.5,399.1 427.8,402.3 C427.5,403.9 427.5,405.3 427.9,406.5 C426.3,405 424.7,403.3 422.5,402.3 C420,401.2 415.6,402 414.4,404.7 C413.4,406.8 413.671094,410.593039 415.371094,411.993039 L413.02832,411.993039 L413.02832,414.005673 L453.969849,414.005679 L453.969855,382.989987 L482.993842,382.989987 L482.993843,342.030811 L480.996834,342.002808 Z M420.9,412.045586 C421.4,411.445586 421.8,410.745586 421.6,409.545586 C421.2,407.745586 418.5,408.545586 418.9,410.345586 C418.1,410.445586 417.2,410.345586 417,409.645586 C416.7,408.745586 416.8,407.645586 417.3,406.845586 C418,405.445586 420.5,405.245586 422,406.145586 C423.7,407.245586 425,408.745586 426.4,410.145586 C427.2,410.945586 428.1,411.545586 429,412.045586 L420.9,412.045586 L420.9,412.045586 Z M452.000012,411.999988 L439.700012,411.999988 C439.900012,411.999988 440.000012,411.999988 440.200012,411.899988 C444.800012,410.499988 449.700012,406.799988 452.000012,402.299988 L452.000012,411.999988 L452.000012,411.999988 Z M480.900024,380.999988 L470.900024,380.999988 C475.400024,378.699988 479.100024,373.799988 480.500024,369.299988 C480.800024,368.299988 480.900024,367.299988 481.000024,366.299988 L481.000024,380.999988 L480.900024,380.999988 Z M480.6,359.4 C480,358.2 479.2,357.1 478.3,356 C476.9,354.5 475.4,353.3 474.3,351.6 C473.4,350.1 473.5,347.6 475,346.9 C475.8,346.5 476.9,346.4 477.8,346.6 C478.5,346.8 478.6,347.7 478.5,348.5 C476.7,348.1 475.9,350.9 477.7,351.3 C479.1,351.6 480.414404,351.1 481.014404,350.3 L481.014404,359.4 L480.6,359.4 Z" id="vensel-1-bl" sketch:type="MSShapeGroup" transform="translate(448.000000, 378.000000) scale(-1, 1) translate(-448.000000, -378.000000) "></path>
        </g>
    </g>
</svg>