<?xml version="1.0" encoding="UTF-8" standalone="no"?>
<svg width="394px" height="23px" viewBox="0 0 394 23" version="1.1" xmlns="http://www.w3.org/2000/svg" xmlns:xlink="http://www.w3.org/1999/xlink" xmlns:sketch="http://www.bohemiancoding.com/sketch/ns">
    <!-- Generator: Sketch 3.0.2 (7799) - http://www.bohemiancoding.com/sketch -->
    <title>vensel-2</title>
    <description>Created with Sketch.</description>
    <defs></defs>
    <g id="Page-1" stroke="none" stroke-width="1" fill="none" fill-rule="evenodd" sketch:type="MSPage">
        <g id="vector-elements" sketch:type="MSLayerGroup" transform="translate(-138.000000, -151.000000)" fill="#85BCE6">
            <path d="M143,157.5 C140.6,157.5 138.6,159.5 138.6,161.9 C138.6,164.3 140.6,166.3 143,166.3 C145.1,166.3 146.7,164.8 147.2,162.9 L297,162.9 L297,161.2 L147.2,161.2 C146.9,159.1 145.2,157.5 143,157.5 L143,157.5 Z M352.6,151.9 C348.4,153.2 344.4,158 341,160.6 C340.8,160.8 340.5,160.9 340.3,161.1 C342.6,158.4 337.5,155.1 335.1,155.2 C336,154.4 337,154.2 338.1,154 C335.5,151.6 333,150.9 329.5,151.8 C324.7,153 323.8,156.4 320.9,159.5 C322.1,157.7 321.4,154.5 320.3,152.9 C319,155.7 319.2,159.4 316,161.7 C313.7,163.4 309,163.5 307.7,160.5 C308.8,161.3 311,161.3 312,160.8 C310.1,159.9 311.1,156.5 313.1,156.2 L313.4,155.9 C312.1,153.7 308,155.5 306.7,156.7 C304.4,158.7 303.6,162.8 304.2,165.8 C305.2,171.2 311.8,173.6 316.6,172.1 C320.8,170.8 324.8,166 328.2,163.4 C328.4,163.2 328.7,163.1 328.9,162.9 C326.6,165.6 331.7,168.9 334.1,168.8 C333.2,169.6 332.2,169.8 331.1,170 C333.7,172.4 336.2,173.1 339.7,172.2 C344.5,171 345.4,167.6 348.3,164.5 C347.1,166.3 347.8,169.5 348.9,171.2 C350.2,168.4 350,164.7 353.2,162.4 C355.5,160.7 360.2,160.6 361.5,163.6 C360.5,162.8 358.3,162.8 357.2,163.3 C359.1,164.2 358.1,167.7 356.1,167.9 L355.8,168.2 C357.1,170.5 361.2,168.6 362.5,167.4 C364.8,165.4 365.6,161.3 365.1,158.3 C364.1,152.7 357.5,150.4 352.6,151.9 L352.6,151.9 Z M309.4,157 C309.6,156.8 309.9,157 309.9,157.2 C309.9,157.6 309.7,158 309.7,158.4 C309.7,158.8 309.5,159.1 309.6,159.5 C309.6,159.5 309.6,159.5 309.5,159.5 C309.2,159.2 309,158.8 309,158.4 C309.1,157.9 309.1,157.4 309.4,157 L309.4,157 Z M359.8,166.8 C359.6,167 359.3,166.8 359.3,166.6 C359.3,166.2 359.5,165.8 359.5,165.4 C359.5,165 359.7,164.7 359.6,164.3 C359.6,164.3 359.6,164.2 359.7,164.3 C360,164.6 360.2,165 360.2,165.4 C360.1,165.9 360.1,166.5 359.8,166.8 L359.8,166.8 Z M326.6,155.4 C327.4,154.4 328.9,153.9 330.2,154.1 L330.2,154.2 C328.9,154.4 327.8,155 326.8,155.8 C326.6,155.8 326.4,155.5 326.6,155.4 L326.6,155.4 Z M332.2,156 C332.3,156 332.3,156.1 332.2,156.1 C329.8,156.6 327.9,157.9 326,159.5 C324.4,160.9 323.1,162.5 321.5,163.9 C321.1,164.3 320.5,163.8 320.7,163.3 C323,159.6 327.8,156.4 332.2,156 L332.2,156 Z M314.7,164.8 C317.3,163 319.5,161.1 320.3,157.8 L320.3,157.8 C319.8,161 318,164.1 314.9,165.3 C314.6,165.4 314.5,165 314.7,164.8 L314.7,164.8 Z M311.4,166.9 C312.5,166.9 313.5,166.9 314.6,166.8 L314.6,166.8 C313.6,167.1 312.5,167.3 311.4,167.3 C311.1,167.2 311.1,166.9 311.4,166.9 L311.4,166.9 Z M309.2,168.4 C311,168.9 312.9,169.4 314.8,168.8 C316.5,168.3 317.9,167.4 319.2,166.1 L319.3,166.1 C316.8,169.4 312.9,170.6 309.1,169 C308.6,169 308.7,168.3 309.2,168.4 L309.2,168.4 Z M308.2,165.4 C307.1,164.7 305.8,163.2 306,161.8 C306,161.6 306.3,161.6 306.4,161.7 C306.7,162.2 306.7,162.9 307,163.5 C307.2,164.2 307.7,164.8 308.2,165.4 C308.2,165.3 308.2,165.4 308.2,165.4 L308.2,165.4 Z M308.4,169.8 C308.2,169.7 308.4,169.5 308.5,169.6 C310.9,170.6 313.4,171.3 316,170.2 C318.1,169.3 319.9,167.8 321.5,166.2 C324.6,163.2 327.7,159.6 332.2,159 C332.2,159 332.3,159 332.2,159.1 C323.8,160.7 318.3,176.6 308.4,169.8 L308.4,169.8 Z M329,162.6 C332.1,160.6 337.4,158.5 340.2,161.3 C337.1,163.3 331.7,165.4 329,162.6 L329,162.6 Z M342.7,168.5 C341.9,169.5 340.4,170 339.1,169.8 L339.1,169.7 C340.4,169.5 341.5,168.9 342.5,168.1 C342.6,168.1 342.8,168.3 342.7,168.5 L342.7,168.5 Z M337.1,167.8 C337,167.8 337,167.7 337.1,167.8 C339.5,167.2 341.4,165.9 343.2,164.3 C344.8,162.9 346.1,161.3 347.7,159.9 C348.1,159.5 348.7,160 348.4,160.5 C346.2,164.3 341.4,167.4 337.1,167.8 L337.1,167.8 Z M354.5,159.1 C351.9,160.9 349.7,162.8 348.9,166.1 L348.9,166.1 C349.4,162.9 351.2,159.8 354.3,158.6 C354.6,158.4 354.8,158.9 354.5,159.1 L354.5,159.1 Z M357.9,157 C356.8,157 355.8,156.9 354.7,157.1 L354.7,157.1 C355.7,156.8 356.8,156.6 357.9,156.6 C358.1,156.6 358.1,157 357.9,157 L357.9,157 Z M360.1,155.4 C358.3,154.9 356.4,154.4 354.5,155 C352.8,155.5 351.4,156.4 350.1,157.7 L350,157.7 C352.5,154.4 356.4,153.2 360.2,154.8 C360.7,154.9 360.5,155.5 360.1,155.4 L360.1,155.4 Z M360.7,154.3 C358.3,153.3 355.8,152.6 353.2,153.7 C351.1,154.6 349.3,156.1 347.7,157.7 C344.6,160.7 341.5,164.3 337,164.9 C337,164.9 336.9,164.8 337,164.8 C345.4,163.1 350.9,147.2 360.8,154 C361,154.2 360.8,154.4 360.7,154.3 L360.7,154.3 Z M362.9,162.1 C362.6,161.6 362.6,160.9 362.3,160.3 C362,159.6 361.6,159 361,158.5 L361,158.4 C362.1,159.1 363.4,160.6 363.2,162 C363.2,162.3 363,162.3 362.9,162.1 L362.9,162.1 Z M526.8,157.5 C524.6,157.5 522.9,159.1 522.6,161.2 L372.8,161.2 L372.8,162.9 L522.7,162.9 C523.2,164.8 524.8,166.3 526.9,166.3 C529.3,166.3 531.3,164.3 531.3,161.9 C531.2,159.5 529.3,157.5 526.8,157.5 L526.8,157.5 Z" id="vensel-2" sketch:type="MSShapeGroup"></path>
        </g>
    </g>
</svg>