<?xml version="1.0" encoding="UTF-8" standalone="no"?>
<svg width="70px" height="73px" viewBox="0 0 70 73" version="1.1" xmlns="http://www.w3.org/2000/svg" xmlns:xlink="http://www.w3.org/1999/xlink" xmlns:sketch="http://www.bohemiancoding.com/sketch/ns">
    <!-- Generator: Sketch 3.0.2 (7799) - http://www.bohemiancoding.com/sketch -->
    <title>vensel-1</title>
    <description>Created with Sketch.</description>
    <defs></defs>
    <g id="Page-1" stroke="none" stroke-width="1" fill="none" fill-rule="evenodd" sketch:type="MSPage">
        <g id="vector-elements" sketch:type="MSLayerGroup" transform="translate(-503.000000, -342.000000)" fill="#231F20">
            <path d="M538,409.5 C538,411.5 541,411.5 541,409.5 C541,407.5 538,407.5 538,409.5 L538,409.5 Z M532.7,399.1 C532.7,397.3 529.8,397.3 529.8,399.1 C529.8,401 532.7,401 532.7,399.1 L532.7,399.1 Z M555,372.3 C556.8,372.3 556.8,369.5 555,369.5 C553.2,369.5 553.2,372.3 555,372.3 L555,372.3 Z M566,395 L554,395 L554,407 L566,407 L566,395 L566,395 Z M568.5,377 C566.5,377 566.5,380 568.5,380 C570.5,380 570.5,377 568.5,377 L568.5,377 Z M547,388 L547,414 L573,414 L573,388 L547,388 L547,388 Z M571,412 L549,412 L549,390 L571,390 L571,412 L571,412 Z M570.996834,342.002808 L570.996832,344.886719 C569.696832,342.486719 566,342 563.7,343 C561,344.3 560.2,348.6 561.3,351.1 C562.3,353.3 563.9,354.9 565.4,356.5 C564.2,356.1 562.8,356.1 561.3,356.4 C558.2,357.1 556.2,361.1 557.4,364 C558.8,367.3 562.7,367.6 565,365 C566.2,363.6 564.2,361.6 563,363 C561.1,364.9 559.2,363.9 560.3,360.6 C560.7,359.3 562.1,358.9 563.5,359 C565.2,358.9 566.4,359.8 567.1,361.2 C568.3,363.5 567.6,366.9 566.7,369.1 C565.3,372.4 562.9,375.3 559.9,377.1 C558.1,378.2 556.1,378.4 554.1,378.4 C553.2,378.4 552.4,378.1 551.6,377.6 C549.4,376.4 551.4,374.3 551.4,374.3 C552.5,375.8 554.9,374.3 553.9,372.9 C552.2,370.5 549.2,371.6 547.7,373.6 C546,375.8 548.449933,379.644577 550.549933,380.944577 L542.020148,381.021176 L542.020148,391.260254 C540.720148,389.160254 537.5,386.9 535.2,388.6 C533.2,390.1 532.1,393.1 534.5,394.8 C536,395.9 537.4,393.4 535.9,392.3 C535.9,392.3 537.9,390.3 539.1,392.5 C539.6,393.2 539.9,394.1 539.9,395 C540,397 539.7,399 538.6,400.8 C536.8,403.8 533.9,406.2 530.6,407.6 C528.4,408.6 524.9,409.3 522.6,408 C521.2,407.2 520.3,406.1 520.4,404.4 C520.3,403.1 520.7,401.7 522,401.3 C525.3,400.2 526.3,402.1 524.4,404 C523,405.2 525,407.2 526.4,406 C529,403.7 528.7,399.8 525.4,398.4 C522.5,397.2 518.5,399.1 517.8,402.3 C517.5,403.9 517.5,405.3 517.9,406.5 C516.3,405 514.7,403.3 512.5,402.3 C510,401.2 505.6,402 504.4,404.7 C503.4,406.8 503.671094,410.593039 505.371094,411.993039 L503.02832,411.993039 L503.02832,414.005673 L543.969849,414.005679 L543.969855,382.989987 L572.993842,382.989987 L572.993843,342.030811 L570.996834,342.002808 Z M510.9,412.045586 C511.4,411.445586 511.8,410.745586 511.6,409.545586 C511.2,407.745586 508.5,408.545586 508.9,410.345586 C508.1,410.445586 507.2,410.345586 507,409.645586 C506.7,408.745586 506.8,407.645586 507.3,406.845586 C508,405.445586 510.5,405.245586 512,406.145586 C513.7,407.245586 515,408.745586 516.4,410.145586 C517.2,410.945586 518.1,411.545586 519,412.045586 L510.9,412.045586 L510.9,412.045586 Z M542.000012,411.999988 L529.700012,411.999988 C529.900012,411.999988 530.000012,411.999988 530.200012,411.899988 C534.800012,410.499988 539.700012,406.799988 542.000012,402.299988 L542.000012,411.999988 L542.000012,411.999988 Z M570.900024,380.999988 L560.900024,380.999988 C565.400024,378.699988 569.100024,373.799988 570.500024,369.299988 C570.800024,368.299988 570.900024,367.299988 571.000024,366.299988 L571.000024,380.999988 L570.900024,380.999988 Z M570.6,359.4 C570,358.2 569.2,357.1 568.3,356 C566.9,354.5 565.4,353.3 564.3,351.6 C563.4,350.1 563.5,347.6 565,346.9 C565.8,346.5 566.9,346.4 567.8,346.6 C568.5,346.8 568.6,347.7 568.5,348.5 C566.7,348.1 565.9,350.9 567.7,351.3 C569.1,351.6 570.414404,351.1 571.014404,350.3 L571.014404,359.4 L570.6,359.4 Z" id="vensel-1" sketch:type="MSShapeGroup"></path>
        </g>
    </g>
</svg>