<?xml version="1.0" encoding="UTF-8" standalone="no"?>
<svg width="23px" height="28px" viewBox="0 0 23 28" version="1.1" xmlns="http://www.w3.org/2000/svg" xmlns:xlink="http://www.w3.org/1999/xlink" xmlns:sketch="http://www.bohemiancoding.com/sketch/ns">
    <!-- Generator: Sketch 3.0.2 (7799) - http://www.bohemiancoding.com/sketch -->
    <title>vk</title>
    <description>Created with Sketch.</description>
    <defs></defs>
    <g id="Page-1" stroke="none" stroke-width="1" fill="none" fill-rule="evenodd" sketch:type="MSPage">
        <g id="vector-elements" sketch:type="MSLayerGroup" transform="translate(-729.000000, -426.000000)" fill="#231F20">
            <path d="M729,426 L741.8,426 C746,426 749.6,428.085 749.6,432.155714 C749.6,435.630714 748.3,436.921429 745.8,438.51 C746,438.708571 747.5,439.105714 748,439.403571 C748.8,439.800714 749.3,440.197857 749.8,440.694286 C751.3,442.183571 751.5,443.573571 751.5,445.857143 C751.5,451.218571 746.3,453.998571 741.2,453.998571 L729,453.998571 L729,426 L729,426 Z M736,433.347143 L736,437.020714 C739.3,437.020714 742.4,437.417857 742.4,433.942857 C742.4,430.666429 738.9,431.162857 736,431.162857 L736,433.347143 L736,433.347143 Z M736,448.736429 C739.6,448.736429 744.1,449.332143 744.1,445.261429 C744.2,440.992143 739.5,441.786429 736,441.786429 L736,448.736429 L736,448.736429 Z" id="vk" sketch:type="MSShapeGroup"></path>
        </g>
    </g>
</svg>