<?xml version="1.0" encoding="UTF-8" standalone="no"?>
<svg width="35px" height="48px" viewBox="0 0 35 48" version="1.1" xmlns="http://www.w3.org/2000/svg" xmlns:xlink="http://www.w3.org/1999/xlink" xmlns:sketch="http://www.bohemiancoding.com/sketch/ns">
    <!-- Generator: Sketch 3.0.2 (7799) - http://www.bohemiancoding.com/sketch -->
    <title>youtube</title>
    <description>Created with Sketch.</description>
    <defs></defs>
    <g id="Page-1" stroke="none" stroke-width="1" fill="none" fill-rule="evenodd" sketch:type="MSPage">
        <g id="vector-elements" sketch:type="MSLayerGroup" transform="translate(-721.000000, -179.000000)" fill="#231F20">
            <g id="youtube" transform="translate(721.000000, 179.000000)" sketch:type="MSShapeGroup">
                <path d="M12.8,0.2 L9.3,0.2 L7.2,9 L7,9 L4.7,0.2 L1.3,0.2 L5.4,13.5 L5.4,22.3 L8.8,22.3 L8.8,13.1 L12.8,0.2 L12.8,0.2 Z" id="Shape"></path>
                <path d="M13.8,21.5 C14.6,22.3 15.7,22.7 17,22.7 L17,22.7 C18.4,22.7 19.5,22.3 20.2,21.5 C21,20.7 21.4,19.6 21.4,18.2 L21.4,9.8 C21.4,8.6 21,7.5 20.2,6.8 C19.4,6 18.4,5.6 17.1,5.6 C15.7,5.6 14.6,6 13.8,6.7 C13,7.5 12.6,8.5 12.6,9.7 L12.6,18.2 C12.6,19.6 13,20.7 13.8,21.5 L13.8,21.5 L13.8,21.5 Z M15.7,9.6 L15.7,9.6 C15.7,9.2 15.8,9 16,8.7 C16.2,8.5 16.5,8.4 16.9,8.4 C17.3,8.4 17.6,8.5 17.9,8.7 C18.1,8.9 18.3,9.2 18.3,9.6 L18.3,18.5 C18.3,18.9 18.2,19.3 17.9,19.5 C17.7,19.8 17.3,19.9 16.9,19.9 C16.5,19.9 16.2,19.8 16,19.5 C15.8,19.3 15.7,18.9 15.7,18.5 L15.7,9.6 L15.7,9.6 Z" id="Shape"></path>
                <path d="M29.6,6 L29.6,18.4 C29.3,18.8 29,19 28.7,19.3 C28.4,19.5 28.1,19.6 27.9,19.6 C27.6,19.6 27.4,19.5 27.3,19.3 C27.2,19.1 27.1,18.8 27.1,18.5 L27.1,6 L24.1,6 L24.1,19.7 C24.1,20.7 24.3,21.4 24.6,21.9 C25,22.4 25.5,22.6 26.2,22.6 C26.8,22.6 27.4,22.4 28,22.1 C28.6,21.8 29.2,21.2 29.7,20.6 L29.7,22.4 L32.7,22.4 L32.7,6 L29.6,6 L29.6,6 Z" id="Shape"></path>
                <path d="M21.1,34.2 C21,34.2 20.8,34.2 20.7,34.3 C20.6,34.4 20.4,34.5 20.3,34.6 L20.3,41.6 C20.5,41.8 20.6,41.9 20.8,42 C21,42.1 21.1,42.1 21.3,42.1 C21.6,42.1 21.7,42 21.9,41.9 C22,41.7 22.1,41.5 22.1,41.1 L22.1,35.3 C22.1,34.9 22,34.6 21.9,34.4 C21.6,34.3 21.4,34.2 21.1,34.2 L21.1,34.2 Z M28.7,34.2 C28.4,34.2 28.1,34.3 28,34.5 C27.9,34.7 27.8,35 27.8,35.5 L27.8,36.6 L29.6,36.6 L29.6,35.5 C29.6,35 29.5,34.7 29.4,34.5 C29.3,34.3 29,34.2 28.7,34.2 L28.7,34.2 Z M34.3,30 C34.3,27.3 32.1,25.1 29.4,25.1 C25.7,24.9 21.9,24.9 18.1,24.9 L17.5,24.9 L16.9,24.9 C13,24.9 9.3,25 5.6,25.1 C2.9,25.1 0.7,27.3 0.7,30 C0.5,32.1 0.5,34.3 0.5,36.4 C0.5,38.5 0.6,40.7 0.7,42.8 C0.7,45.5 2.9,47.7 5.6,47.7 C9.3,47.9 13.1,47.9 17,47.9 L17.6,47.9 L18.1,47.9 C22,47.9 25.8,47.8 29.5,47.7 C32.2,47.7 34.4,45.5 34.4,42.8 C34.6,40.7 34.6,38.5 34.6,36.4 C34.5,34.2 34.4,32.1 34.3,30 L34.3,30 Z M7.8,43.7 L5.5,43.7 L5.5,30.8 L3,30.8 L3,28.6 L10.2,28.6 L10.2,30.8 L7.8,30.8 L7.8,43.7 L7.8,43.7 Z M16.1,43.7 L14,43.7 L14,42.5 C13.6,43 13.2,43.3 12.8,43.5 C12.4,43.7 12,43.9 11.6,43.9 C11.1,43.9 10.8,43.7 10.5,43.4 C10.3,43.1 10.1,42.6 10.1,41.9 L10.1,32.6 L12.2,32.6 L12.2,41.2 C12.2,41.5 12.2,41.7 12.3,41.8 C12.4,41.9 12.5,42 12.7,42 C12.9,42 13,41.9 13.3,41.8 C13.5,41.6 13.7,41.4 13.9,41.2 L13.9,32.7 L16,32.7 L16,43.7 L16.1,43.7 Z M24.1,41.4 C24.1,42.2 23.9,42.8 23.6,43.2 C23.3,43.6 22.8,43.8 22.2,43.8 C21.8,43.8 21.4,43.7 21.1,43.6 C20.8,43.4 20.5,43.2 20.2,42.8 L20.2,43.7 L18.1,43.7 L18.1,28.6 L20.2,28.6 L20.2,33.5 C20.5,33.2 20.8,32.9 21.1,32.7 C21.4,32.5 21.7,32.4 22.1,32.4 C22.8,32.4 23.3,32.6 23.6,33.1 C23.9,33.6 24.1,34.3 24.1,35.2 L24.1,41.4 L24.1,41.4 Z M31.8,38.4 L27.8,38.4 L27.8,40.5 C27.8,41.1 27.9,41.5 28,41.7 C28.1,41.9 28.4,42 28.7,42 C29,42 29.3,41.9 29.4,41.7 C29.5,41.5 29.6,41.1 29.6,40.4 L29.6,39.6 L31.7,39.6 L31.7,40.4 C31.7,41.5 31.4,42.4 30.9,43 C30.4,43.6 29.6,43.9 28.6,43.9 C27.7,43.9 26.9,43.6 26.4,43 C25.9,42.4 25.6,41.5 25.6,40.5 L25.6,35.5 C25.6,34.5 25.9,33.7 26.5,33.1 C27.1,32.5 27.8,32.2 28.8,32.2 C29.8,32.2 30.5,32.5 31,33 C31.5,33.6 31.8,34.4 31.8,35.4 L31.8,38.4 L31.8,38.4 Z" id="Shape"></path>
            </g>
        </g>
    </g>
</svg>